<?xml version="1.0" standalone="no"?>
<!DOCTYPE svg PUBLIC "-//W3C//DTD SVG 1.1//EN" "http://www.w3.org/Graphics/SVG/1.1/DTD/svg11.dtd" >
<svg xmlns="http://www.w3.org/2000/svg" xmlns:xlink="http://www.w3.org/1999/xlink" version="1.1">
<metadata>
Created by FontForge 20201107 at Wed Jun 10 23:05:58 2020
 By Unknown
Copyright 2019 The Sora Project Authors (https://github.com/sora-xor/sora-font)
</metadata>
<defs>
<font id="Sora-ExtraBold" horiz-adv-x="0" >
  <font-face 
    font-family="Sora ExtraBold"
    font-weight="800"
    font-stretch="normal"
    units-per-em="1000"
    panose-1="0 0 0 0 0 0 0 0 0 0"
    ascent="800"
    descent="-200"
    x-height="552"
    cap-height="730"
    bbox="-154 -314 1283 1204"
    underline-thickness="50"
    underline-position="-125"
    unicode-range="U+000D-FB02"
  />
<missing-glyph horiz-adv-x="869" 
d="M358 252v151h69q35 0 51 19.5t16 45.5q0 29 -16 47t-44 18q-30 0 -46.5 -19.5t-16.5 -46.5h-116q0 46 20.5 84.5t61.5 62t100 23.5q54 0 92.5 -20.5t59.5 -56.5t21 -82v-9q0 -46 -21.5 -81t-62.5 -54.5t-99 -21.5l43 43l-2 -103h-110zM355 100v104h116v-104h-116zM85 -54
v842h699v-842h-699zM155 12h559v710h-559v-710z" />
    <glyph glyph-name="f_f" unicode="ff" horiz-adv-x="742" 
d="M76 0v556q0 97 56 144.5t166 47.5h49v-134h-53q-24 0 -37 -13t-13 -37v-564h-168zM441 0v550q0 97 56 144.5t166 47.5h67v-134h-71q-24 0 -37 -13t-13 -37v-558h-168zM16 408v132h722v-132h-722z" />
    <glyph glyph-name="f_f_i" unicode="ffi" horiz-adv-x="1065" 
d="M76 0v560q0 97 56 144.5t166 47.5h49v-134h-53q-24 0 -37 -13t-13 -37v-568h-168zM441 0v554q0 97 56 144.5t166 47.5h67v-134h-71q-24 0 -37 -13t-13 -37v-562h-168zM815 0v552h182v-552h-182zM16 414v132h699v-132h-699zM755 420v132h242v-132h-242zM889 596
q-49 0 -72.5 25.5t-23.5 65.5t23.5 65.5t72.5 25.5q50 0 73 -25.5t23 -65.5t-23 -65.5t-73 -25.5z" />
    <glyph glyph-name="f_f_j" unicode="ffj" horiz-adv-x="1066" 
d="M76 0v560q0 97 56 144.5t166 47.5h49v-134h-53q-24 0 -37 -13t-13 -37v-568h-168zM441 0v554q0 97 56 144.5t166 47.5h53v-134h-57q-24 0 -37 -13t-13 -37v-562h-168zM728 -204v152h26q36 0 55 19t19 55v530h176v-528q0 -83 -27 -133t-83 -72.5t-144 -22.5h-22zM16 414
v132h708v-132h-708zM764 420v132h240v-132h-240zM896 596q-49 0 -72.5 25.5t-23.5 65.5t23.5 65.5t72.5 25.5q50 0 73 -25.5t23 -65.5t-23 -65.5t-73 -25.5z" />
    <glyph glyph-name="f_f_l" unicode="ffl" horiz-adv-x="1058" 
d="M76 0v556q0 97 56 144.5t166 47.5h49v-134h-53q-24 0 -37 -13t-13 -37v-564h-168zM441 0v538q0 97 56 144.5t166 47.5h49v-132h-53q-24 0 -37 -13t-13 -37v-548h-168zM808 0v730h182v-730h-182zM16 408v132h700v-132h-700zM752 598v132h238v-132h-238z" />
    <glyph glyph-name="f_j" unicode="fj" horiz-adv-x="700" 
d="M76 0v556q0 97 56 144.5t166 47.5h53v-134h-57q-24 0 -37 -13t-13 -37v-564h-168zM362 -204v152h26q36 0 55 19t19 55v530h176v-528q0 -83 -27 -133t-83 -72.5t-144 -22.5h-22zM16 414v132h343v-132h-343zM399 420v132h239v-132h-239zM531 596q-49 0 -72.5 25.5
t-23.5 65.5t23.5 65.5t72.5 25.5q50 0 73 -25.5t23 -65.5t-23 -65.5t-73 -25.5z" />
    <glyph glyph-name="fi" unicode="fi" horiz-adv-x="700" 
d="M76 0v556q0 97 56 144.5t166 47.5h52v-134h-56q-24 0 -37 -13t-13 -37v-564h-168zM16 414v132h334v-132h-334zM450 0v552h182v-552h-182zM390 420v132h242v-132h-242zM525 596q-50 0 -73.5 25.5t-23.5 65.5t23.5 65.5t72.5 25.5q50 0 73 -25.5t23 -65.5t-23 -65.5
t-72 -25.5z" />
    <glyph glyph-name="fl" unicode="fl" horiz-adv-x="692" 
d="M76 0v538q0 97 56 144.5t166 47.5h49v-132h-53q-24 0 -37 -13t-13 -37v-548h-168zM16 402v132h335v-132h-335zM442 0v730h182v-730h-182zM387 598v132h237v-132h-237z" />
    <glyph glyph-name=".notdef" horiz-adv-x="869" 
d="M358 252v151h69q35 0 51 19.5t16 45.5q0 29 -16 47t-44 18q-30 0 -46.5 -19.5t-16.5 -46.5h-116q0 46 20.5 84.5t61.5 62t100 23.5q54 0 92.5 -20.5t59.5 -56.5t21 -82v-9q0 -46 -21.5 -81t-62.5 -54.5t-99 -21.5l43 43l-2 -103h-110zM355 100v104h116v-104h-116zM85 -54
v842h699v-842h-699zM155 12h559v710h-559v-710z" />
    <glyph glyph-name="CR" unicode="&#xd;" horiz-adv-x="600" 
 />
    <glyph glyph-name="A" unicode="A" horiz-adv-x="790" 
d="M8 0l234 730h298l242 -730h-192l-188 600l53 -20h-132l54 20l-183 -600h-186zM199 169l56 152h277l56 -152h-389z" />
    <glyph glyph-name="AE" unicode="&#xc6;" horiz-adv-x="986" 
d="M-8 0l288 730h213v-150h-128l50 20l-237 -600h-186zM217 179l56 153h220v-153h-276zM472 0v730h177v-730h-177zM628 0v152h308v-152h-308zM628 295v152h288v-152h-288zM628 578v152h302v-152h-302z" />
    <glyph glyph-name="Aacute" unicode="&#xc1;" horiz-adv-x="790" 
d="M8 0l234 730h298l242 -730h-192l-188 600l53 -20h-132l54 20l-183 -600h-186zM199 169l56 152h277l56 -152h-389zM296 784l124 184h192l-142 -184h-174z" />
    <glyph glyph-name="Abreve" unicode="&#x102;" horiz-adv-x="790" 
d="M8 0l234 730h298l242 -730h-192l-188 600l53 -20h-132l54 20l-183 -600h-186zM199 169l56 152h277l56 -152h-389zM391 772q-64 0 -108 24t-67.5 68t-25.5 104h130q2 -36 18.5 -55t52.5 -19t54 19t19 55h126q-2 -60 -25 -104t-66.5 -68t-107.5 -24z" />
    <glyph glyph-name="Acircumflex" unicode="&#xc2;" horiz-adv-x="790" 
d="M8 0l234 730h298l242 -730h-192l-188 600l53 -20h-132l54 20l-183 -600h-186zM199 169l56 152h277l56 -152h-389zM156 784l130 184h214l132 -184h-166l-66 98h-18l-64 -98h-162z" />
    <glyph glyph-name="Adieresis" unicode="&#xc4;" horiz-adv-x="790" 
d="M8 0l234 730h298l242 -730h-192l-188 600l53 -20h-132l54 20l-183 -600h-186zM199 169l56 152h277l56 -152h-389zM277 790q-49 0 -72.5 25t-23.5 65t23.5 65t72.5 25q50 0 73 -25t23 -65t-23 -65t-73 -25zM505 790q-49 0 -72.5 25t-23.5 65t23.5 65t72.5 25q50 0 73 -25
t23 -65t-23 -65t-73 -25z" />
    <glyph glyph-name="Agrave" unicode="&#xc0;" horiz-adv-x="790" 
d="M8 0l234 730h298l242 -730h-192l-188 600l53 -20h-132l54 20l-183 -600h-186zM199 169l56 152h277l56 -152h-389zM304 784l-121 184h194l103 -184h-176z" />
    <glyph glyph-name="Amacron" unicode="&#x100;" horiz-adv-x="790" 
d="M8 0l234 730h298l242 -730h-192l-188 600l53 -20h-132l54 20l-183 -600h-186zM199 169l56 152h277l56 -152h-389zM186 802v126h410v-126h-410z" />
    <glyph glyph-name="Aogonek" unicode="&#x104;" horiz-adv-x="790" 
d="M8 0l234 730h298l242 -730h-192l-188 600l53 -20h-132l54 20l-183 -600h-186zM199 169l56 152h277l56 -152h-389zM694 -258q-67 0 -110.5 39t-43.5 102q0 50 22.5 91t68.5 81l30 27l80 -82l-30 -29q-15 -14 -25 -29.5t-10 -31.5q0 -18 12 -28t31 -10q14 0 25 2.5t18 6.5
v-132q-10 -3 -29.5 -5t-38.5 -2z" />
    <glyph glyph-name="Aring" unicode="&#xc5;" horiz-adv-x="790" 
d="M8 0l234 730h298l242 -730h-192l-188 600l53 -20h-132l54 20l-183 -600h-186zM199 169l56 152h277l56 -152h-389zM391 760q-60 0 -97 31t-37 83t37 83t97 31t97 -31t37 -83t-37 -83t-97 -31zM391 839q18 0 28 10t10 25t-10 25t-28 10t-28 -10t-10 -25t10 -25t28 -10z" />
    <glyph glyph-name="Aringacute" unicode="&#x1fa;" horiz-adv-x="790" 
d="M8 0l234 730h298l242 -730h-192l-188 600l53 -20h-132l54 20l-183 -600h-186zM199 169l56 152h277l56 -152h-389zM391 760q-60 0 -97 31t-37 83t37 83t97 31t97 -31t37 -83t-37 -83t-97 -31zM391 839q18 0 28 10t10 25t-10 25t-28 10t-28 -10t-10 -25t10 -25t28 -10z
M296 1020l124 184h192l-142 -184h-174z" />
    <glyph glyph-name="Atilde" unicode="&#xc3;" horiz-adv-x="790" 
d="M8 0l234 730h298l242 -730h-192l-188 600l53 -20h-132l54 20l-183 -600h-186zM199 169l56 152h277l56 -152h-389zM481 777q-33 0 -56 8.5t-41.5 19.5t-38 19.5t-45.5 8.5q-35 0 -58.5 -12t-37.5 -29l-26 124q18 21 47.5 36t74.5 15q33 0 56 -8.5t41.5 -19.5t38 -19.5
t45.5 -8.5q35 0 59 12.5t38 28.5l26 -124q-18 -21 -48 -36t-75 -15z" />
    <glyph glyph-name="B" unicode="B" horiz-adv-x="696" 
d="M234 -6v142h161q41 0 61 21t20 61t-20 60.5t-61 20.5h-161v110h155q77 0 138 -18.5t96 -60.5t35 -112v-14q0 -66 -31 -113t-91 -72t-147 -25h-155zM74 -6v742h180v-742h-180zM234 327v110h134q41 0 59.5 20.5t18.5 57.5q0 38 -18.5 58.5t-59.5 20.5h-134v142h126
q128 0 198 -53.5t70 -152.5v-15q0 -69 -35.5 -110.5t-96 -59.5t-136.5 -18h-126z" />
    <glyph glyph-name="C" unicode="C" horiz-adv-x="802" 
d="M415 -20q-99 0 -170 34.5t-117 91t-68 122.5t-22 128v22q0 69 22.5 135.5t69 120.5t116.5 86t164 32q100 0 177.5 -37.5t124.5 -105t55 -156.5h-186q-7 38 -30 66t-59 43.5t-82 15.5q-43 0 -77.5 -15t-58 -42.5t-36 -66.5t-12.5 -88t12.5 -88t37 -67t59.5 -42.5t80 -14.5
q70 0 118.5 34t58.5 91h186q-9 -82 -55 -150t-124 -108.5t-184 -40.5z" />
    <glyph glyph-name="Cacute" unicode="&#x106;" horiz-adv-x="802" 
d="M415 -20q-99 0 -170 34.5t-117 91t-68 122.5t-22 128v22q0 69 22.5 135.5t69 120.5t116.5 86t164 32q100 0 177.5 -37.5t124.5 -105t55 -156.5h-186q-7 38 -30 66t-59 43.5t-82 15.5q-43 0 -77.5 -15t-58 -42.5t-36 -66.5t-12.5 -88t12.5 -88t37 -67t59.5 -42.5t80 -14.5
q70 0 118.5 34t58.5 91h186q-9 -82 -55 -150t-124 -108.5t-184 -40.5zM317 784l124 184h192l-142 -184h-174z" />
    <glyph glyph-name="Ccaron" unicode="&#x10c;" horiz-adv-x="802" 
d="M415 -20q-99 0 -170 34.5t-117 91t-68 122.5t-22 128v22q0 69 22.5 135.5t69 120.5t116.5 86t164 32q100 0 177.5 -37.5t124.5 -105t55 -156.5h-186q-7 38 -30 66t-59 43.5t-82 15.5q-43 0 -77.5 -15t-58 -42.5t-36 -66.5t-12.5 -88t12.5 -88t37 -67t59.5 -42.5t80 -14.5
q70 0 118.5 34t58.5 91h186q-9 -82 -55 -150t-124 -108.5t-184 -40.5zM303 784l-132 184h166l66 -98h18l64 98h162l-130 -184h-214z" />
    <glyph glyph-name="Ccedilla" unicode="&#xc7;" horiz-adv-x="802" 
d="M415 -20q-99 0 -170 34.5t-117 91t-68 122.5t-22 128v22q0 69 22.5 135.5t69 120.5t116.5 86t164 32q100 0 177.5 -37.5t124.5 -105t55 -156.5h-186q-7 38 -30 66t-59 43.5t-82 15.5q-43 0 -77.5 -15t-58 -42.5t-36 -66.5t-12.5 -88t12.5 -88t37 -67t59.5 -42.5t80 -14.5
q70 0 118.5 34t58.5 91h186q-9 -82 -55 -150t-124 -108.5t-184 -40.5zM409 -286q-27 0 -51.5 4t-38.5 9v114q15 -5 35.5 -9t45.5 -4q29 0 43 6t14 19q0 10 -9.5 14.5t-31.5 4.5h-58v142h116v-101l-67 45h13q73 0 115 -27t42 -83t-43 -95t-125 -39z" />
    <glyph glyph-name="Ccircumflex" unicode="&#x108;" horiz-adv-x="802" 
d="M415 -20q-99 0 -170 34.5t-117 91t-68 122.5t-22 128v22q0 69 22.5 135.5t69 120.5t116.5 86t164 32q100 0 177.5 -37.5t124.5 -105t55 -156.5h-186q-7 38 -30 66t-59 43.5t-82 15.5q-43 0 -77.5 -15t-58 -42.5t-36 -66.5t-12.5 -88t12.5 -88t37 -67t59.5 -42.5t80 -14.5
q70 0 118.5 34t58.5 91h186q-9 -82 -55 -150t-124 -108.5t-184 -40.5zM177 784l130 184h214l132 -184h-166l-66 98h-18l-64 -98h-162z" />
    <glyph glyph-name="Cdotaccent" unicode="&#x10a;" horiz-adv-x="802" 
d="M415 -20q-99 0 -170 34.5t-117 91t-68 122.5t-22 128v22q0 69 22.5 135.5t69 120.5t116.5 86t164 32q100 0 177.5 -37.5t124.5 -105t55 -156.5h-186q-7 38 -30 66t-59 43.5t-82 15.5q-43 0 -77.5 -15t-58 -42.5t-36 -66.5t-12.5 -88t12.5 -88t37 -67t59.5 -42.5t80 -14.5
q70 0 118.5 34t58.5 91h186q-9 -82 -55 -150t-124 -108.5t-184 -40.5zM412 790q-49 0 -72.5 25t-23.5 65t23.5 65t72.5 25q50 0 73 -25t23 -65t-23 -65t-73 -25z" />
    <glyph glyph-name="D" unicode="D" horiz-adv-x="778" 
d="M240 -4v174h120q47 0 84.5 13.5t63.5 39t40 62t14 82.5q0 48 -14 84.5t-40 61t-63.5 37t-84.5 12.5h-120v174h112q99 0 173.5 -28t124.5 -77.5t75 -114.5t25 -138v-22q0 -67 -25 -131.5t-75 -116t-124.5 -82t-173.5 -30.5h-112zM74 -4v740h186v-740h-186z" />
    <glyph glyph-name="Dcaron" unicode="&#x10e;" horiz-adv-x="778" 
d="M240 -4v174h120q47 0 84.5 13.5t63.5 39t40 62t14 82.5q0 48 -14 84.5t-40 61t-63.5 37t-84.5 12.5h-120v174h112q99 0 173.5 -28t124.5 -77.5t75 -114.5t25 -138v-22q0 -67 -25 -131.5t-75 -116t-124.5 -82t-173.5 -30.5h-112zM74 -4v740h186v-740h-186zM272 784
l-132 184h166l66 -98h18l64 98h162l-130 -184h-214z" />
    <glyph glyph-name="Dcroat" unicode="&#x110;" horiz-adv-x="778" 
d="M240 -4v174h120q47 0 84.5 13.5t63.5 39t40 62t14 82.5q0 48 -14 84.5t-40 61t-63.5 37t-84.5 12.5h-120v174h112q99 0 173.5 -28t124.5 -77.5t75 -114.5t25 -138v-22q0 -67 -25 -131.5t-75 -116t-124.5 -82t-173.5 -30.5h-112zM74 -4v740h186v-740h-186zM11 289v152h394
v-152h-394z" />
    <glyph glyph-name="E" unicode="E" horiz-adv-x="592" 
d="M74 0v730h180v-730h-180zM234 0v152h308v-152h-308zM234 295v152h287v-152h-287zM234 578v152h302v-152h-302z" />
    <glyph glyph-name="Eacute" unicode="&#xc9;" horiz-adv-x="592" 
d="M74 0v730h180v-730h-180zM234 0v152h308v-152h-308zM234 295v152h287v-152h-287zM234 578v152h302v-152h-302zM209 784l124 184h192l-142 -184h-174z" />
    <glyph glyph-name="Ebreve" unicode="&#x114;" horiz-adv-x="592" 
d="M74 0v730h180v-730h-180zM234 0v152h308v-152h-308zM234 295v152h287v-152h-287zM234 578v152h302v-152h-302zM304 772q-64 0 -108 24t-67.5 68t-25.5 104h130q2 -36 18.5 -55t52.5 -19t54 19t19 55h126q-2 -60 -25 -104t-66.5 -68t-107.5 -24z" />
    <glyph glyph-name="Ecaron" unicode="&#x11a;" horiz-adv-x="592" 
d="M74 0v730h180v-730h-180zM234 0v152h308v-152h-308zM234 295v152h287v-152h-287zM234 578v152h302v-152h-302zM195 784l-132 184h166l66 -98h18l64 98h162l-130 -184h-214z" />
    <glyph glyph-name="Ecircumflex" unicode="&#xca;" horiz-adv-x="592" 
d="M74 0v730h180v-730h-180zM234 0v152h308v-152h-308zM234 295v152h287v-152h-287zM234 578v152h302v-152h-302zM69 784l130 184h214l132 -184h-166l-66 98h-18l-64 -98h-162z" />
    <glyph glyph-name="Edieresis" unicode="&#xcb;" horiz-adv-x="592" 
d="M74 0v730h180v-730h-180zM234 0v152h308v-152h-308zM234 295v152h287v-152h-287zM234 578v152h302v-152h-302zM190 790q-49 0 -72.5 25t-23.5 65t23.5 65t72.5 25q50 0 73 -25t23 -65t-23 -65t-73 -25zM418 790q-49 0 -72.5 25t-23.5 65t23.5 65t72.5 25q50 0 73 -25
t23 -65t-23 -65t-73 -25z" />
    <glyph glyph-name="Edotaccent" unicode="&#x116;" horiz-adv-x="592" 
d="M74 0v730h180v-730h-180zM234 0v152h308v-152h-308zM234 295v152h287v-152h-287zM234 578v152h302v-152h-302zM304 790q-49 0 -72.5 25t-23.5 65t23.5 65t72.5 25q50 0 73 -25t23 -65t-23 -65t-73 -25z" />
    <glyph glyph-name="Egrave" unicode="&#xc8;" horiz-adv-x="592" 
d="M74 0v730h180v-730h-180zM234 0v152h308v-152h-308zM234 295v152h287v-152h-287zM234 578v152h302v-152h-302zM217 784l-121 184h194l103 -184h-176z" />
    <glyph glyph-name="Emacron" unicode="&#x112;" horiz-adv-x="592" 
d="M74 0v730h180v-730h-180zM234 0v152h308v-152h-308zM234 295v152h287v-152h-287zM234 578v152h302v-152h-302zM99 802v126h410v-126h-410z" />
    <glyph glyph-name="Eng" unicode="&#x14a;" horiz-adv-x="885" 
d="M448 -245v161h114q35 0 57 17t22 67v48l27 -28h-172l-235 562h-35l20 18v-600h-172v730h305l235 -562h43l-20 -18v580h174v-725q0 -79 -25 -135t-81.5 -85.5t-152.5 -29.5h-104z" />
    <glyph glyph-name="Eogonek" unicode="&#x118;" horiz-adv-x="592" 
d="M74 0v730h180v-730h-180zM234 0v152h308v-152h-308zM234 295v152h287v-152h-287zM234 578v152h302v-152h-302zM495 -258q-67 0 -110.5 39t-43.5 102q0 50 22.5 91t68.5 81l30 27l80 -82l-30 -29q-15 -14 -25 -29.5t-10 -31.5q0 -18 12 -28t31 -10q14 0 25 2.5t18 6.5
v-132q-10 -3 -29.5 -5t-38.5 -2z" />
    <glyph glyph-name="Eth" unicode="&#xd0;" horiz-adv-x="778" 
d="M240 -4v174h120q47 0 84.5 13.5t63.5 39t40 62t14 82.5q0 48 -14 84.5t-40 61t-63.5 37t-84.5 12.5h-120v174h112q99 0 173.5 -28t124.5 -77.5t75 -114.5t25 -138v-22q0 -67 -25 -131.5t-75 -116t-124.5 -82t-173.5 -30.5h-112zM74 -4v740h186v-740h-186zM11 289v152h394
v-152h-394z" />
    <glyph glyph-name="uni1EBC" unicode="&#x1ebc;" horiz-adv-x="592" 
d="M74 0v730h180v-730h-180zM234 0v152h308v-152h-308zM234 295v152h287v-152h-287zM234 578v152h302v-152h-302zM394 777q-33 0 -56 8.5t-41.5 19.5t-38 19.5t-45.5 8.5q-35 0 -58.5 -12t-37.5 -29l-26 124q18 21 47.5 36t74.5 15q33 0 56 -8.5t41.5 -19.5t38 -19.5
t45.5 -8.5q35 0 59 12.5t38 28.5l26 -124q-18 -21 -48 -36t-75 -15z" />
    <glyph glyph-name="F" unicode="F" horiz-adv-x="560" 
d="M74 0v730h186v-730h-186zM240 283v152h271v-152h-271zM240 578v152h282v-152h-282z" />
    <glyph glyph-name="G" unicode="G" horiz-adv-x="833" 
d="M427 -20q-103 0 -177 34.5t-121 90.5t-69 122t-22 129v22q0 68 23 134.5t69.5 120.5t116.5 86.5t164 32.5q101 0 178.5 -37t124.5 -102.5t55 -151.5h-186q-6 33 -29 59.5t-59.5 42t-83.5 15.5q-45 0 -79.5 -15.5t-58 -44t-35.5 -67.5t-12 -85t13 -85.5t38 -69t63 -45.5
t87 -16q62 0 107 26t63 69l-14 -110v159h170v-150q-46 -79 -130.5 -121.5t-195.5 -42.5zM407 258v130h406v-130h-406z" />
    <glyph glyph-name="Gbreve" unicode="&#x11e;" horiz-adv-x="833" 
d="M427 -20q-103 0 -177 34.5t-121 90.5t-69 122t-22 129v22q0 68 23 134.5t69.5 120.5t116.5 86.5t164 32.5q101 0 178.5 -37t124.5 -102.5t55 -151.5h-186q-6 33 -29 59.5t-59.5 42t-83.5 15.5q-45 0 -79.5 -15.5t-58 -44t-35.5 -67.5t-12 -85t13 -85.5t38 -69t63 -45.5
t87 -16q62 0 107 26t63 69l-14 -110v159h170v-150q-46 -79 -130.5 -121.5t-195.5 -42.5zM407 258v130h406v-130h-406zM409 772q-64 0 -108 24t-67.5 68t-25.5 104h130q2 -36 18.5 -55t52.5 -19t54 19t19 55h126q-2 -60 -25 -104t-66.5 -68t-107.5 -24z" />
    <glyph glyph-name="Gcircumflex" unicode="&#x11c;" horiz-adv-x="833" 
d="M427 -20q-103 0 -177 34.5t-121 90.5t-69 122t-22 129v22q0 68 23 134.5t69.5 120.5t116.5 86.5t164 32.5q101 0 178.5 -37t124.5 -102.5t55 -151.5h-186q-6 33 -29 59.5t-59.5 42t-83.5 15.5q-45 0 -79.5 -15.5t-58 -44t-35.5 -67.5t-12 -85t13 -85.5t38 -69t63 -45.5
t87 -16q62 0 107 26t63 69l-14 -110v159h170v-150q-46 -79 -130.5 -121.5t-195.5 -42.5zM407 258v130h406v-130h-406zM174 784l130 184h214l132 -184h-166l-66 98h-18l-64 -98h-162z" />
    <glyph glyph-name="uni0122" unicode="&#x122;" horiz-adv-x="833" 
d="M427 -20q-103 0 -177 34.5t-121 90.5t-69 122t-22 129v22q0 68 23 134.5t69.5 120.5t116.5 86.5t164 32.5q101 0 178.5 -37t124.5 -102.5t55 -151.5h-186q-6 33 -29 59.5t-59.5 42t-83.5 15.5q-45 0 -79.5 -15.5t-58 -44t-35.5 -67.5t-12 -85t13 -85.5t38 -69t63 -45.5
t87 -16q62 0 107 26t63 69l-14 -110v159h170v-150q-46 -79 -130.5 -121.5t-195.5 -42.5zM407 258v130h406v-130h-406zM353 -314v88h33q33 0 45 13t12 35v27l23 -3q-6 -13 -20 -23t-36 -10q-28 0 -47 18t-19 50q0 41 27 58t62 17q50 0 77 -32.5t27 -88.5v-6q0 -71 -41.5 -107
t-111.5 -36h-31z" />
    <glyph glyph-name="Gdotaccent" unicode="&#x120;" horiz-adv-x="833" 
d="M427 -20q-103 0 -177 34.5t-121 90.5t-69 122t-22 129v22q0 68 23 134.5t69.5 120.5t116.5 86.5t164 32.5q101 0 178.5 -37t124.5 -102.5t55 -151.5h-186q-6 33 -29 59.5t-59.5 42t-83.5 15.5q-45 0 -79.5 -15.5t-58 -44t-35.5 -67.5t-12 -85t13 -85.5t38 -69t63 -45.5
t87 -16q62 0 107 26t63 69l-14 -110v159h170v-150q-46 -79 -130.5 -121.5t-195.5 -42.5zM407 258v130h406v-130h-406zM409 790q-49 0 -72.5 25t-23.5 65t23.5 65t72.5 25q50 0 73 -25t23 -65t-23 -65t-73 -25z" />
    <glyph glyph-name="uni1E9E" unicode="&#x1e9e;" horiz-adv-x="1294" 
d="M329 -21q-100 0 -168.5 32t-103.5 88t-35 128h180q0 -26 14 -47.5t42 -34t71 -12.5q38 0 64.5 10.5t40.5 29t14 42.5q0 30 -25 48.5t-89 23.5l-46 4q-70 6 -125 34t-86.5 78t-31.5 120q0 72 33 123t93 78t141 27q88 0 150 -30t94.5 -84t32.5 -126h-180q0 25 -11.5 44
t-33 30.5t-52.5 11.5q-28 0 -47.5 -9.5t-29.5 -26.5t-10 -38q0 -28 18 -47.5t63 -23.5l46 -4q81 -7 143.5 -35.5t97.5 -78t35 -119.5q0 -71 -36 -124.5t-103 -82.5t-160 -29zM973 -21q-100 0 -168.5 32t-103.5 88t-35 128h180q0 -26 14 -47.5t42 -34t71 -12.5
q38 0 64.5 10.5t40.5 29t14 42.5q0 31 -26 49t-88 23l-46 4q-70 6 -125 34t-86.5 78t-31.5 120q0 72 33 123t93 78t141 27q88 0 150 -30t94.5 -84t32.5 -126h-180q0 25 -11.5 44t-33 30.5t-52.5 11.5q-28 0 -47.5 -9.5t-29.5 -26.5t-10 -38q0 -28 18 -47.5t63 -23.5l46 -4
q81 -7 143 -35.5t97.5 -78t35.5 -119.5q0 -71 -36 -124.5t-103 -82.5t-160 -29z" />
    <glyph glyph-name="H" unicode="H" horiz-adv-x="798" 
d="M538 0v730h186v-730h-186zM74 0v730h186v-730h-186zM228 287v162h342v-162h-342z" />
    <glyph glyph-name="Hbar" unicode="&#x126;" horiz-adv-x="798" 
d="M25 533v124h748v-124h-748zM538 0v730h186v-730h-186zM74 0v730h186v-730h-186zM228 287v162h342v-162h-342z" />
    <glyph glyph-name="I" unicode="I" horiz-adv-x="338" 
d="M76 0v730h186v-730h-186z" />
    <glyph glyph-name="I.salt" horiz-adv-x="460" 
d="M137 118v494h186v-494h-186zM58 0v138h344v-138h-344zM58 592v138h344v-138h-344z" />
    <glyph glyph-name="Iacute" unicode="&#xcd;" horiz-adv-x="338" 
d="M76 0v730h186v-730h-186zM74 784l124 184h192l-142 -184h-174z" />
    <glyph glyph-name="Iacute.salt" horiz-adv-x="460" 
d="M137 118v494h186v-494h-186zM58 0v138h344v-138h-344zM58 592v138h344v-138h-344zM136 784l124 184h192l-142 -184h-174z" />
    <glyph glyph-name="Ibreve" unicode="&#x12c;" horiz-adv-x="338" 
d="M76 0v730h186v-730h-186zM169 772q-64 0 -108 24t-67.5 68t-25.5 104h130q2 -36 18.5 -55t52.5 -19t54 19t19 55h126q-2 -60 -25 -104t-66.5 -68t-107.5 -24z" />
    <glyph glyph-name="Ibreve.salt" horiz-adv-x="460" 
d="M137 118v494h186v-494h-186zM58 0v138h344v-138h-344zM58 592v138h344v-138h-344zM231 772q-64 0 -108 24t-67.5 68t-25.5 104h130q2 -36 18.5 -55t52.5 -19t54 19t19 55h126q-2 -60 -25 -104t-66.5 -68t-107.5 -24z" />
    <glyph glyph-name="Icircumflex" unicode="&#xce;" horiz-adv-x="338" 
d="M76 0v730h186v-730h-186zM-66 784l130 184h214l132 -184h-166l-66 98h-18l-64 -98h-162z" />
    <glyph glyph-name="Icircumflex.salt" horiz-adv-x="460" 
d="M137 118v494h186v-494h-186zM58 0v138h344v-138h-344zM58 592v138h344v-138h-344zM-4 784l130 184h214l132 -184h-166l-66 98h-18l-64 -98h-162z" />
    <glyph glyph-name="Idieresis" unicode="&#xcf;" horiz-adv-x="338" 
d="M76 0v730h186v-730h-186zM55 790q-49 0 -72.5 25t-23.5 65t23.5 65t72.5 25q50 0 73 -25t23 -65t-23 -65t-73 -25zM283 790q-49 0 -72.5 25t-23.5 65t23.5 65t72.5 25q50 0 73 -25t23 -65t-23 -65t-73 -25z" />
    <glyph glyph-name="Idieresis.salt" horiz-adv-x="460" 
d="M137 118v494h186v-494h-186zM58 0v138h344v-138h-344zM58 592v138h344v-138h-344zM117 790q-49 0 -72.5 25t-23.5 65t23.5 65t72.5 25q50 0 73 -25t23 -65t-23 -65t-73 -25zM345 790q-49 0 -72.5 25t-23.5 65t23.5 65t72.5 25q50 0 73 -25t23 -65t-23 -65t-73 -25z" />
    <glyph glyph-name="Idotaccent" unicode="&#x130;" horiz-adv-x="338" 
d="M76 0v730h186v-730h-186zM169 790q-49 0 -72.5 25t-23.5 65t23.5 65t72.5 25q50 0 73 -25t23 -65t-23 -65t-73 -25z" />
    <glyph glyph-name="Idotaccent.salt" horiz-adv-x="460" 
d="M137 118v494h186v-494h-186zM58 0v138h344v-138h-344zM58 592v138h344v-138h-344zM231 790q-49 0 -72.5 25t-23.5 65t23.5 65t72.5 25q50 0 73 -25t23 -65t-23 -65t-73 -25z" />
    <glyph glyph-name="Igrave" unicode="&#xcc;" horiz-adv-x="338" 
d="M76 0v730h186v-730h-186zM82 784l-121 184h194l103 -184h-176z" />
    <glyph glyph-name="Igrave.salt" horiz-adv-x="460" 
d="M137 118v494h186v-494h-186zM58 0v138h344v-138h-344zM58 592v138h344v-138h-344zM144 784l-121 184h194l103 -184h-176z" />
    <glyph glyph-name="Imacron" unicode="&#x12a;" horiz-adv-x="338" 
d="M76 0v730h186v-730h-186zM-36 802v126h410v-126h-410z" />
    <glyph glyph-name="Imacron.salt" horiz-adv-x="460" 
d="M137 118v494h186v-494h-186zM58 0v138h344v-138h-344zM58 592v138h344v-138h-344zM26 802v126h410v-126h-410z" />
    <glyph glyph-name="Iogonek" unicode="&#x12e;" horiz-adv-x="338" 
d="M76 0v730h186v-730h-186zM205 -258q-67 0 -110.5 39t-43.5 102q0 50 22.5 91t68.5 81l30 27l80 -82l-30 -29q-15 -14 -25 -29.5t-10 -31.5q0 -18 12 -28t31 -10q14 0 25 2.5t18 6.5v-132q-10 -3 -29.5 -5t-38.5 -2z" />
    <glyph glyph-name="Iogonek.salt" horiz-adv-x="460" 
d="M137 118v494h186v-494h-186zM58 0v138h344v-138h-344zM58 592v138h344v-138h-344zM261 -258q-67 0 -110.5 39t-43.5 102q0 50 22.5 91t68.5 81l30 27l80 -82l-30 -29q-15 -14 -25 -29.5t-10 -31.5q0 -18 12 -28t31 -10q14 0 25 2.5t18 6.5v-132q-10 -3 -29.5 -5t-38.5 -2
z" />
    <glyph glyph-name="Itilde" unicode="&#x128;" horiz-adv-x="338" 
d="M76 0v730h186v-730h-186zM259 777q-33 0 -56 8.5t-41.5 19.5t-38 19.5t-45.5 8.5q-35 0 -58.5 -12t-37.5 -29l-26 124q18 21 47.5 36t74.5 15q33 0 56 -8.5t41.5 -19.5t38 -19.5t45.5 -8.5q35 0 59 12.5t38 28.5l26 -124q-18 -21 -48 -36t-75 -15z" />
    <glyph glyph-name="Itilde.salt" horiz-adv-x="460" 
d="M137 118v494h186v-494h-186zM58 0v138h344v-138h-344zM58 592v138h344v-138h-344zM321 777q-33 0 -56 8.5t-41.5 19.5t-38 19.5t-45.5 8.5q-35 0 -58.5 -12t-37.5 -29l-26 124q18 21 47.5 36t74.5 15q33 0 56 -8.5t41.5 -19.5t38 -19.5t45.5 -8.5q35 0 59 12.5t38 28.5
l26 -124q-18 -21 -48 -36t-75 -15z" />
    <glyph glyph-name="J" unicode="J" horiz-adv-x="644" 
d="M307 -20q-87 0 -148.5 32t-94 92.5t-32.5 146.5v40h184v-46q0 -40 23.5 -65.5t66.5 -25.5t66.5 25.5t23.5 65.5v343h186v-337q0 -86 -32.5 -146.5t-93.5 -92.5t-149 -32zM114 568v162h468v-162h-468z" />
    <glyph glyph-name="J.salt" horiz-adv-x="612" 
d="M286 -22q-87 0 -145 32.5t-87 92.5t-29 144v89h186v-109q0 -34 20.5 -54.5t54.5 -20.5q35 0 54.5 20.5t19.5 54.5v503h186v-483q0 -84 -28.5 -144t-86.5 -92.5t-145 -32.5z" />
    <glyph glyph-name="Jcircumflex" unicode="&#x134;" horiz-adv-x="644" 
d="M307 -20q-87 0 -148.5 32t-94 92.5t-32.5 146.5v40h184v-46q0 -40 23.5 -65.5t66.5 -25.5t66.5 25.5t23.5 65.5v343h186v-337q0 -86 -32.5 -146.5t-93.5 -92.5t-149 -32zM114 568v162h468v-162h-468zM113 784l130 184h214l132 -184h-166l-66 98h-18l-64 -98h-162z" />
    <glyph glyph-name="Jcircumflex.salt" horiz-adv-x="612" 
d="M286 -22q-87 0 -145 32.5t-87 92.5t-29 144v89h186v-109q0 -34 20.5 -54.5t54.5 -20.5q35 0 54.5 20.5t19.5 54.5v503h186v-483q0 -84 -28.5 -144t-86.5 -92.5t-145 -32.5zM218 784l130 184h214l132 -184h-166l-66 98h-18l-64 -98h-162z" />
    <glyph glyph-name="K" unicode="K" horiz-adv-x="777" 
d="M560 0l-237 341h-99l295 389h214l-264 -348v71l315 -453h-224zM74 0v730h186v-730h-186z" />
    <glyph glyph-name="uni0136" unicode="&#x136;" horiz-adv-x="777" 
d="M560 0l-237 341h-99l295 389h214l-264 -348v71l315 -453h-224zM74 0v730h186v-730h-186zM329 -314v88h33q33 0 45 13t12 35v27l23 -3q-6 -13 -20 -23t-36 -10q-28 0 -47 18t-19 50q0 41 27 58t62 17q50 0 77 -32.5t27 -88.5v-6q0 -71 -41.5 -107t-111.5 -36h-31z" />
    <glyph glyph-name="L" unicode="L" horiz-adv-x="562" 
d="M74 0v730h186v-730h-186zM240 0v162h296v-162h-296z" />
    <glyph glyph-name="Lacute" unicode="&#x139;" horiz-adv-x="562" 
d="M74 0v730h186v-730h-186zM240 0v162h296v-162h-296zM72 784l124 184h192l-142 -184h-174z" />
    <glyph glyph-name="Lcaron" unicode="&#x13d;" horiz-adv-x="562" 
d="M74 0v730h186v-730h-186zM240 0v162h296v-162h-296zM330 565v264h156l-18 -264h-138z" />
    <glyph glyph-name="uni013B" unicode="&#x13b;" horiz-adv-x="562" 
d="M74 0v730h186v-730h-186zM240 0v162h296v-162h-296zM229 -314v88h33q33 0 45 13t12 35v27l23 -3q-6 -13 -20 -23t-36 -10q-28 0 -47 18t-19 50q0 41 27 58t62 17q50 0 77 -32.5t27 -88.5v-6q0 -71 -41.5 -107t-111.5 -36h-31z" />
    <glyph glyph-name="Lslash" unicode="&#x141;" horiz-adv-x="562" 
d="M167 277v146l230 133v-146zM18 195v146l119 69v-146zM74 0v730h186v-730h-186zM240 0v162h296v-162h-296z" />
    <glyph glyph-name="M" unicode="M" horiz-adv-x="988" 
d="M74 0v730h258l150 -385h20l149 385h263v-730h-184v623l29 -2l-188 -474h-169l-189 474l31 2v-623h-170z" />
    <glyph glyph-name="N" unicode="N" horiz-adv-x="885" 
d="M74 0v730h305l243 -582h35l-20 -18v600h174v-730h-307l-243 582h-35l20 18v-600h-172z" />
    <glyph glyph-name="NULL" horiz-adv-x="600" 
 />
    <glyph glyph-name="Nacute" unicode="&#x143;" horiz-adv-x="885" 
d="M74 0v730h305l243 -582h35l-20 -18v600h174v-730h-307l-243 582h-35l20 18v-600h-172zM358 784l124 184h192l-142 -184h-174z" />
    <glyph glyph-name="Ncaron" unicode="&#x147;" horiz-adv-x="885" 
d="M74 0v730h305l243 -582h35l-20 -18v600h174v-730h-307l-243 582h-35l20 18v-600h-172zM344 784l-132 184h166l66 -98h18l64 98h162l-130 -184h-214z" />
    <glyph glyph-name="uni0145" unicode="&#x145;" horiz-adv-x="885" 
d="M74 0v730h305l243 -582h35l-20 -18v600h174v-730h-307l-243 582h-35l20 18v-600h-172zM362 -314v88h33q33 0 45 13t12 35v27l23 -3q-6 -13 -20 -23t-36 -10q-28 0 -47 18t-19 50q0 41 27 58t62 17q50 0 77 -32.5t27 -88.5v-6q0 -71 -41.5 -107t-111.5 -36h-31z" />
    <glyph glyph-name="Ntilde" unicode="&#xd1;" horiz-adv-x="885" 
d="M74 0v730h305l243 -582h35l-20 -18v600h174v-730h-307l-243 582h-35l20 18v-600h-172zM543 777q-33 0 -56 8.5t-41.5 19.5t-38 19.5t-45.5 8.5q-35 0 -58.5 -12t-37.5 -29l-26 124q18 21 47.5 36t74.5 15q33 0 56 -8.5t41.5 -19.5t38 -19.5t45.5 -8.5q35 0 59 12.5
t38 28.5l26 -124q-18 -21 -48 -36t-75 -15z" />
    <glyph glyph-name="O" unicode="O" horiz-adv-x="864" 
d="M432 -20q-100 0 -174 34.5t-123 91t-73 122.5t-24 128v22q0 69 25 135.5t75 120.5t123.5 86t170.5 32q96 0 169.5 -32t123.5 -86t75.5 -120.5t25.5 -135.5v-22q0 -62 -24.5 -128t-73.5 -122.5t-123 -91t-173 -34.5zM432 154q48 0 86 16t65 45t41 67.5t14 83.5
q0 48 -14.5 87t-41.5 67t-65 43t-85 15q-48 0 -86 -15t-65 -43t-41 -67t-14 -87q0 -45 14 -83.5t41 -67.5t65 -45t86 -16z" />
    <glyph glyph-name="OE" unicode="&#x152;" horiz-adv-x="1041" 
d="M432 -22q-81 0 -144.5 23t-110.5 62t-78 88t-46 101.5t-15 102.5v22q0 69 24.5 135.5t74 120.5t123.5 86.5t172 32.5q38 0 72.5 -6t62.5 -16h136v-730h-136q-26 -10 -59 -16t-76 -6zM432 152q29 0 56 6.5t46 16.5l-11 -23v423l11 -19q-20 10 -46 16t-56 6
q-63 0 -109.5 -27t-71.5 -74.5t-25 -111.5q0 -45 14 -84t41 -68t65 -45t86 -16zM683 0v152h308v-152h-308zM683 295v152h288v-152h-288zM683 578v152h302v-152h-302z" />
    <glyph glyph-name="Oacute" unicode="&#xd3;" horiz-adv-x="864" 
d="M432 -20q-100 0 -174 34.5t-123 91t-73 122.5t-24 128v22q0 69 25 135.5t75 120.5t123.5 86t170.5 32q96 0 169.5 -32t123.5 -86t75.5 -120.5t25.5 -135.5v-22q0 -62 -24.5 -128t-73.5 -122.5t-123 -91t-173 -34.5zM432 154q48 0 86 16t65 45t41 67.5t14 83.5
q0 48 -14.5 87t-41.5 67t-65 43t-85 15q-48 0 -86 -15t-65 -43t-41 -67t-14 -87q0 -45 14 -83.5t41 -67.5t65 -45t86 -16zM337 784l124 184h192l-142 -184h-174z" />
    <glyph glyph-name="Obreve" unicode="&#x14e;" horiz-adv-x="864" 
d="M432 -20q-100 0 -174 34.5t-123 91t-73 122.5t-24 128v22q0 69 25 135.5t75 120.5t123.5 86t170.5 32q96 0 169.5 -32t123.5 -86t75.5 -120.5t25.5 -135.5v-22q0 -62 -24.5 -128t-73.5 -122.5t-123 -91t-173 -34.5zM432 154q48 0 86 16t65 45t41 67.5t14 83.5
q0 48 -14.5 87t-41.5 67t-65 43t-85 15q-48 0 -86 -15t-65 -43t-41 -67t-14 -87q0 -45 14 -83.5t41 -67.5t65 -45t86 -16zM432 772q-64 0 -108 24t-67.5 68t-25.5 104h130q2 -36 18.5 -55t52.5 -19t54 19t19 55h126q-2 -60 -25 -104t-66.5 -68t-107.5 -24z" />
    <glyph glyph-name="Ocircumflex" unicode="&#xd4;" horiz-adv-x="864" 
d="M432 -20q-100 0 -174 34.5t-123 91t-73 122.5t-24 128v22q0 69 25 135.5t75 120.5t123.5 86t170.5 32q96 0 169.5 -32t123.5 -86t75.5 -120.5t25.5 -135.5v-22q0 -62 -24.5 -128t-73.5 -122.5t-123 -91t-173 -34.5zM432 154q48 0 86 16t65 45t41 67.5t14 83.5
q0 48 -14.5 87t-41.5 67t-65 43t-85 15q-48 0 -86 -15t-65 -43t-41 -67t-14 -87q0 -45 14 -83.5t41 -67.5t65 -45t86 -16zM197 784l130 184h214l132 -184h-166l-66 98h-18l-64 -98h-162z" />
    <glyph glyph-name="Odieresis" unicode="&#xd6;" horiz-adv-x="864" 
d="M432 -20q-100 0 -174 34.5t-123 91t-73 122.5t-24 128v22q0 69 25 135.5t75 120.5t123.5 86t170.5 32q96 0 169.5 -32t123.5 -86t75.5 -120.5t25.5 -135.5v-22q0 -62 -24.5 -128t-73.5 -122.5t-123 -91t-173 -34.5zM432 154q48 0 86 16t65 45t41 67.5t14 83.5
q0 48 -14.5 87t-41.5 67t-65 43t-85 15q-48 0 -86 -15t-65 -43t-41 -67t-14 -87q0 -45 14 -83.5t41 -67.5t65 -45t86 -16zM318 790q-49 0 -72.5 25t-23.5 65t23.5 65t72.5 25q50 0 73 -25t23 -65t-23 -65t-73 -25zM546 790q-49 0 -72.5 25t-23.5 65t23.5 65t72.5 25
q50 0 73 -25t23 -65t-23 -65t-73 -25z" />
    <glyph glyph-name="Ograve" unicode="&#xd2;" horiz-adv-x="864" 
d="M432 -20q-100 0 -174 34.5t-123 91t-73 122.5t-24 128v22q0 69 25 135.5t75 120.5t123.5 86t170.5 32q96 0 169.5 -32t123.5 -86t75.5 -120.5t25.5 -135.5v-22q0 -62 -24.5 -128t-73.5 -122.5t-123 -91t-173 -34.5zM432 154q48 0 86 16t65 45t41 67.5t14 83.5
q0 48 -14.5 87t-41.5 67t-65 43t-85 15q-48 0 -86 -15t-65 -43t-41 -67t-14 -87q0 -45 14 -83.5t41 -67.5t65 -45t86 -16zM345 784l-121 184h194l103 -184h-176z" />
    <glyph glyph-name="Ohungarumlaut" unicode="&#x150;" horiz-adv-x="864" 
d="M432 -20q-100 0 -174 34.5t-123 91t-73 122.5t-24 128v22q0 69 25 135.5t75 120.5t123.5 86t170.5 32q96 0 169.5 -32t123.5 -86t75.5 -120.5t25.5 -135.5v-22q0 -62 -24.5 -128t-73.5 -122.5t-123 -91t-173 -34.5zM432 154q48 0 86 16t65 45t41 67.5t14 83.5
q0 48 -14.5 87t-41.5 67t-65 43t-85 15q-48 0 -86 -15t-65 -43t-41 -67t-14 -87q0 -45 14 -83.5t41 -67.5t65 -45t86 -16zM450 784l91 184h144l-99 -184h-136zM266 784l91 184h144l-99 -184h-136z" />
    <glyph glyph-name="Omacron" unicode="&#x14c;" horiz-adv-x="864" 
d="M432 -20q-100 0 -174 34.5t-123 91t-73 122.5t-24 128v22q0 69 25 135.5t75 120.5t123.5 86t170.5 32q96 0 169.5 -32t123.5 -86t75.5 -120.5t25.5 -135.5v-22q0 -62 -24.5 -128t-73.5 -122.5t-123 -91t-173 -34.5zM432 154q48 0 86 16t65 45t41 67.5t14 83.5
q0 48 -14.5 87t-41.5 67t-65 43t-85 15q-48 0 -86 -15t-65 -43t-41 -67t-14 -87q0 -45 14 -83.5t41 -67.5t65 -45t86 -16zM227 802v126h410v-126h-410z" />
    <glyph glyph-name="Oslash" unicode="&#xd8;" horiz-adv-x="864" 
d="M78 -70l571 860h136l-571 -860h-136zM432 -20q-100 0 -174 34.5t-123 91t-73 122.5t-24 128v22q0 69 25 135.5t75 120.5t123.5 86t170.5 32q96 0 169.5 -32t123.5 -86t75.5 -120.5t25.5 -135.5v-22q0 -62 -24.5 -128t-73.5 -122.5t-123 -91t-173 -34.5zM432 154
q48 0 86 16t65 45t41 67.5t14 83.5q0 48 -14.5 87t-41.5 67t-65 43t-85 15q-48 0 -86 -15t-65 -43t-41 -67t-14 -87q0 -45 14 -83.5t41 -67.5t65 -45t86 -16z" />
    <glyph glyph-name="Otilde" unicode="&#xd5;" horiz-adv-x="864" 
d="M432 -20q-100 0 -174 34.5t-123 91t-73 122.5t-24 128v22q0 69 25 135.5t75 120.5t123.5 86t170.5 32q96 0 169.5 -32t123.5 -86t75.5 -120.5t25.5 -135.5v-22q0 -62 -24.5 -128t-73.5 -122.5t-123 -91t-173 -34.5zM432 154q48 0 86 16t65 45t41 67.5t14 83.5
q0 48 -14.5 87t-41.5 67t-65 43t-85 15q-48 0 -86 -15t-65 -43t-41 -67t-14 -87q0 -45 14 -83.5t41 -67.5t65 -45t86 -16zM522 777q-33 0 -56 8.5t-41.5 19.5t-38 19.5t-45.5 8.5q-35 0 -58.5 -12t-37.5 -29l-26 124q18 21 47.5 36t74.5 15q33 0 56 -8.5t41.5 -19.5
t38 -19.5t45.5 -8.5q35 0 59 12.5t38 28.5l26 -124q-18 -21 -48 -36t-75 -15z" />
    <glyph glyph-name="P" unicode="P" horiz-adv-x="676" 
d="M240 194v160h120q34 0 59 13.5t39 38.5t14 59q0 35 -14 60t-39 38t-59 13h-120v160h115q94 0 162.5 -31.5t105.5 -90.5t37 -141v-16q0 -81 -37 -140t-105.5 -91t-162.5 -32h-115zM74 0v736h186v-736h-186z" />
    <glyph glyph-name="P.salt" horiz-adv-x="711" 
d="M240 240v160h175q29 0 48.5 10t29.5 30t10 48q0 29 -10 48.5t-29.5 29.5t-48.5 10h-175v160h168q81 0 145 -26.5t101 -79.5t37 -134v-16q0 -80 -37 -133.5t-100.5 -80t-145.5 -26.5h-168zM74 0v736h186v-736h-186z" />
    <glyph glyph-name="Q" unicode="Q" horiz-adv-x="864" 
d="M577 -220q-72 0 -125 16t-82.5 59t-29.5 125v120h174v-124q0 -28 15.5 -42t43.5 -14h104v-140h-100zM432 -20q-100 0 -174 34.5t-123 91t-73 122.5t-24 128v22q0 69 25 135.5t75 120.5t123.5 86t170.5 32q96 0 169.5 -32t123.5 -86t75.5 -120.5t25.5 -135.5v-22
q0 -62 -24.5 -128t-73.5 -122.5t-123 -91t-173 -34.5zM432 154q48 0 86 16t65 45t41 67.5t14 83.5q0 48 -14.5 87t-41.5 67t-65 43t-85 15q-48 0 -86 -15t-65 -43t-41 -67t-14 -87q0 -45 14 -83.5t41 -67.5t65 -45t86 -16z" />
    <glyph glyph-name="Q.salt" horiz-adv-x="864" 
d="M612 -82l-278 384h176l278 -384h-176zM432 -20q-100 0 -174 34.5t-123 91t-73 122.5t-24 128v22q0 69 25 135.5t75 120.5t123.5 86t170.5 32q96 0 169.5 -32t123.5 -86t75.5 -120.5t25.5 -135.5v-22q0 -62 -24.5 -128t-73.5 -122.5t-123 -91t-173 -34.5zM432 154
q48 0 86 16t65 45t41 67.5t14 83.5q0 48 -14.5 87t-41.5 67t-65 43t-85 15q-48 0 -86 -15t-65 -43t-41 -67t-14 -87q0 -45 14 -83.5t41 -67.5t65 -45t86 -16z" />
    <glyph glyph-name="R" unicode="R" horiz-adv-x="740" 
d="M74 0v736h186v-736h-186zM514 0l-205 310h202l217 -310h-214zM213 224v143h175q33 0 57 13t37.5 37t13.5 56q0 33 -13.5 57t-37.5 37t-57 13h-175v156h164q95 0 164 -28.5t106 -84t37 -137.5v-16q0 -82 -37.5 -136.5t-106 -82t-163.5 -27.5h-164z" />
    <glyph glyph-name="R.salt" horiz-adv-x="749" 
d="M74 0v736h186v-736h-186zM506 0l-140 304h203l144 -304h-207zM240 253v143h178q44 0 66.5 23.5t22.5 66.5q0 44 -23 67t-66 23h-178v160h172q81 0 145 -25t101 -76.5t37 -132.5v-16q0 -80 -37 -132t-100.5 -76.5t-145.5 -24.5h-172z" />
    <glyph glyph-name="Racute" unicode="&#x154;" horiz-adv-x="740" 
d="M74 0v736h186v-736h-186zM514 0l-205 310h202l217 -310h-214zM213 224v143h175q33 0 57 13t37.5 37t13.5 56q0 33 -13.5 57t-37.5 37t-57 13h-175v156h164q95 0 164 -28.5t106 -84t37 -137.5v-16q0 -82 -37.5 -136.5t-106 -82t-163.5 -27.5h-164zM255 784l124 184h192
l-142 -184h-174z" />
    <glyph glyph-name="Racute.salt" horiz-adv-x="749" 
d="M74 0v736h186v-736h-186zM506 0l-140 304h203l144 -304h-207zM240 253v143h178q44 0 66.5 23.5t22.5 66.5q0 44 -23 67t-66 23h-178v160h172q81 0 145 -25t101 -76.5t37 -132.5v-16q0 -80 -37 -132t-100.5 -76.5t-145.5 -24.5h-172zM267 784l124 184h192l-142 -184h-174z
" />
    <glyph glyph-name="Rcaron" unicode="&#x158;" horiz-adv-x="740" 
d="M74 0v736h186v-736h-186zM514 0l-205 310h202l217 -310h-214zM213 224v143h175q33 0 57 13t37.5 37t13.5 56q0 33 -13.5 57t-37.5 37t-57 13h-175v156h164q95 0 164 -28.5t106 -84t37 -137.5v-16q0 -82 -37.5 -136.5t-106 -82t-163.5 -27.5h-164zM241 784l-132 184h166
l66 -98h18l64 98h162l-130 -184h-214z" />
    <glyph glyph-name="Rcaron.salt" horiz-adv-x="749" 
d="M74 0v736h186v-736h-186zM506 0l-140 304h203l144 -304h-207zM240 253v143h178q44 0 66.5 23.5t22.5 66.5q0 44 -23 67t-66 23h-178v160h172q81 0 145 -25t101 -76.5t37 -132.5v-16q0 -80 -37 -132t-100.5 -76.5t-145.5 -24.5h-172zM255 784l-132 184h166l66 -98h18
l64 98h162l-130 -184h-214z" />
    <glyph glyph-name="uni0156" unicode="&#x156;" horiz-adv-x="740" 
d="M74 0v736h186v-736h-186zM514 0l-205 310h202l217 -310h-214zM213 224v143h175q33 0 57 13t37.5 37t13.5 56q0 33 -13.5 57t-37.5 37t-57 13h-175v156h164q95 0 164 -28.5t106 -84t37 -137.5v-16q0 -82 -37.5 -136.5t-106 -82t-163.5 -27.5h-164zM303 -314v88h33
q33 0 45 13t12 35v27l23 -3q-6 -13 -20 -23t-36 -10q-28 0 -47 18t-19 50q0 41 27 58t62 17q50 0 77 -32.5t27 -88.5v-6q0 -71 -41.5 -107t-111.5 -36h-31z" />
    <glyph glyph-name="uni0156.salt" horiz-adv-x="749" 
d="M74 0v736h186v-736h-186zM506 0l-140 304h203l144 -304h-207zM240 253v143h178q44 0 66.5 23.5t22.5 66.5q0 44 -23 67t-66 23h-178v160h172q81 0 145 -25t101 -76.5t37 -132.5v-16q0 -80 -37 -132t-100.5 -76.5t-145.5 -24.5h-172zM305 -314v88h33q33 0 45 13t12 35v27
l23 -3q-6 -13 -20 -23t-36 -10q-28 0 -47 18t-19 50q0 41 27 58t62 17q50 0 77 -32.5t27 -88.5v-6q0 -71 -41.5 -107t-111.5 -36h-31z" />
    <glyph glyph-name="S" unicode="S" horiz-adv-x="659" 
d="M334 -20q-102 0 -171.5 32t-105 87.5t-35.5 127.5h180q0 -26 14.5 -47.5t43.5 -33.5t74 -12q39 0 66.5 10t42 28t14.5 43q0 32 -27 49.5t-91 22.5l-47 4q-113 10 -180 71t-67 162q0 72 33.5 123t94.5 78t144 27q90 0 152.5 -30t95.5 -84.5t33 -126.5h-180q0 24 -12 44
t-34.5 31.5t-54.5 11.5q-30 0 -50.5 -9.5t-31 -26.5t-10.5 -38q0 -28 19 -48t66 -24l47 -4q82 -7 145 -35.5t99 -77.5t36 -120t-36.5 -124t-104 -82t-162.5 -29z" />
    <glyph glyph-name="Sacute" unicode="&#x15a;" horiz-adv-x="659" 
d="M334 -20q-102 0 -171.5 32t-105 87.5t-35.5 127.5h180q0 -26 14.5 -47.5t43.5 -33.5t74 -12q39 0 66.5 10t42 28t14.5 43q0 32 -27 49.5t-91 22.5l-47 4q-113 10 -180 71t-67 162q0 72 33.5 123t94.5 78t144 27q90 0 152.5 -30t95.5 -84.5t33 -126.5h-180q0 24 -12 44
t-34.5 31.5t-54.5 11.5q-30 0 -50.5 -9.5t-31 -26.5t-10.5 -38q0 -28 19 -48t66 -24l47 -4q82 -7 145 -35.5t99 -77.5t36 -120t-36.5 -124t-104 -82t-162.5 -29zM222 784l124 184h192l-142 -184h-174z" />
    <glyph glyph-name="Scaron" unicode="&#x160;" horiz-adv-x="659" 
d="M334 -20q-102 0 -171.5 32t-105 87.5t-35.5 127.5h180q0 -26 14.5 -47.5t43.5 -33.5t74 -12q39 0 66.5 10t42 28t14.5 43q0 32 -27 49.5t-91 22.5l-47 4q-113 10 -180 71t-67 162q0 72 33.5 123t94.5 78t144 27q90 0 152.5 -30t95.5 -84.5t33 -126.5h-180q0 24 -12 44
t-34.5 31.5t-54.5 11.5q-30 0 -50.5 -9.5t-31 -26.5t-10.5 -38q0 -28 19 -48t66 -24l47 -4q82 -7 145 -35.5t99 -77.5t36 -120t-36.5 -124t-104 -82t-162.5 -29zM208 784l-132 184h166l66 -98h18l64 98h162l-130 -184h-214z" />
    <glyph glyph-name="Scedilla" unicode="&#x15e;" horiz-adv-x="659" 
d="M334 -20q-102 0 -171.5 32t-105 87.5t-35.5 127.5h180q0 -26 14.5 -47.5t43.5 -33.5t74 -12q39 0 66.5 10t42 28t14.5 43q0 32 -27 49.5t-91 22.5l-47 4q-113 10 -180 71t-67 162q0 72 33.5 123t94.5 78t144 27q90 0 152.5 -30t95.5 -84.5t33 -126.5h-180q0 24 -12 44
t-34.5 31.5t-54.5 11.5q-30 0 -50.5 -9.5t-31 -26.5t-10.5 -38q0 -28 19 -48t66 -24l47 -4q82 -7 145 -35.5t99 -77.5t36 -120t-36.5 -124t-104 -82t-162.5 -29zM325 -286q-27 0 -51.5 4t-38.5 9v114q15 -5 35.5 -9t45.5 -4q29 0 43 6t14 19q0 10 -9.5 14.5t-31.5 4.5h-58
v142h116v-101l-67 45h13q73 0 115 -27t42 -83t-43 -95t-125 -39z" />
    <glyph glyph-name="Scircumflex" unicode="&#x15c;" horiz-adv-x="659" 
d="M334 -20q-102 0 -171.5 32t-105 87.5t-35.5 127.5h180q0 -26 14.5 -47.5t43.5 -33.5t74 -12q39 0 66.5 10t42 28t14.5 43q0 32 -27 49.5t-91 22.5l-47 4q-113 10 -180 71t-67 162q0 72 33.5 123t94.5 78t144 27q90 0 152.5 -30t95.5 -84.5t33 -126.5h-180q0 24 -12 44
t-34.5 31.5t-54.5 11.5q-30 0 -50.5 -9.5t-31 -26.5t-10.5 -38q0 -28 19 -48t66 -24l47 -4q82 -7 145 -35.5t99 -77.5t36 -120t-36.5 -124t-104 -82t-162.5 -29zM82 784l130 184h214l132 -184h-166l-66 98h-18l-64 -98h-162z" />
    <glyph glyph-name="uni0218" unicode="&#x218;" horiz-adv-x="659" 
d="M334 -20q-102 0 -171.5 32t-105 87.5t-35.5 127.5h180q0 -26 14.5 -47.5t43.5 -33.5t74 -12q39 0 66.5 10t42 28t14.5 43q0 32 -27 49.5t-91 22.5l-47 4q-113 10 -180 71t-67 162q0 72 33.5 123t94.5 78t144 27q90 0 152.5 -30t95.5 -84.5t33 -126.5h-180q0 24 -12 44
t-34.5 31.5t-54.5 11.5q-30 0 -50.5 -9.5t-31 -26.5t-10.5 -38q0 -28 19 -48t66 -24l47 -4q82 -7 145 -35.5t99 -77.5t36 -120t-36.5 -124t-104 -82t-162.5 -29zM256 -314v88h33q33 0 45 13t12 35v27l23 -3q-6 -13 -20 -23t-36 -10q-28 0 -47 18t-19 50q0 41 27 58t62 17
q50 0 77 -32.5t27 -88.5v-6q0 -71 -41.5 -107t-111.5 -36h-31z" />
    <glyph glyph-name="T" unicode="T" horiz-adv-x="626" 
d="M220 0v588h186v-588h-186zM20 568v162h586v-162h-586z" />
    <glyph glyph-name="Tbar" unicode="&#x166;" horiz-adv-x="626" 
d="M80 286v124h466v-124h-466zM220 0v588h186v-588h-186zM20 568v162h586v-162h-586z" />
    <glyph glyph-name="Tcaron" unicode="&#x164;" horiz-adv-x="626" 
d="M220 0v588h186v-588h-186zM20 568v162h586v-162h-586zM204 784l-132 184h166l66 -98h18l64 98h162l-130 -184h-214z" />
    <glyph glyph-name="uni0162" unicode="&#x162;" horiz-adv-x="626" 
d="M220 0v588h186v-588h-186zM20 568v162h586v-162h-586zM306 -286q-27 0 -51.5 4t-38.5 9v114q15 -5 35.5 -9t45.5 -4q29 0 43 6t14 19q0 10 -9.5 14.5t-31.5 4.5h-58v142h116v-101l-67 45h13q73 0 115 -27t42 -83t-43 -95t-125 -39z" />
    <glyph glyph-name="uni021A" unicode="&#x21a;" horiz-adv-x="626" 
d="M220 0v588h186v-588h-186zM20 568v162h586v-162h-586zM237 -314v88h33q33 0 45 13t12 35v27l23 -3q-6 -13 -20 -23t-36 -10q-28 0 -47 18t-19 50q0 41 27 58t62 17q50 0 77 -32.5t27 -88.5v-6q0 -71 -41.5 -107t-111.5 -36h-31z" />
    <glyph glyph-name="Thorn" unicode="&#xde;" horiz-adv-x="662" 
d="M240 104v161h112q33 0 56.5 12.5t36.5 36.5t13 57q0 34 -13 57.5t-36.5 36.5t-56.5 13h-112v160h107q93 0 160 -31t103 -89t36 -139v-16q0 -80 -36 -138.5t-103 -89.5t-160 -31h-107zM74 0v730h186v-730h-186z" />
    <glyph glyph-name="U" unicode="U" horiz-adv-x="771" 
d="M386 -20q-105 0 -177.5 39t-110.5 110.5t-38 169.5v431h186v-435q0 -43 16.5 -75t47.5 -49t76 -17t76 17t47 48.5t16 75.5v435h186v-431q0 -98 -37.5 -169.5t-110 -110.5t-177.5 -39z" />
    <glyph glyph-name="Uacute" unicode="&#xda;" horiz-adv-x="771" 
d="M386 -20q-105 0 -177.5 39t-110.5 110.5t-38 169.5v431h186v-435q0 -43 16.5 -75t47.5 -49t76 -17t76 17t47 48.5t16 75.5v435h186v-431q0 -98 -37.5 -169.5t-110 -110.5t-177.5 -39zM291 784l124 184h192l-142 -184h-174z" />
    <glyph glyph-name="Ubreve" unicode="&#x16c;" horiz-adv-x="771" 
d="M386 -20q-105 0 -177.5 39t-110.5 110.5t-38 169.5v431h186v-435q0 -43 16.5 -75t47.5 -49t76 -17t76 17t47 48.5t16 75.5v435h186v-431q0 -98 -37.5 -169.5t-110 -110.5t-177.5 -39zM386 772q-64 0 -108 24t-67.5 68t-25.5 104h130q2 -36 18.5 -55t52.5 -19t54 19t19 55
h126q-2 -60 -25 -104t-66.5 -68t-107.5 -24z" />
    <glyph glyph-name="Ucircumflex" unicode="&#xdb;" horiz-adv-x="771" 
d="M386 -20q-105 0 -177.5 39t-110.5 110.5t-38 169.5v431h186v-435q0 -43 16.5 -75t47.5 -49t76 -17t76 17t47 48.5t16 75.5v435h186v-431q0 -98 -37.5 -169.5t-110 -110.5t-177.5 -39zM151 784l130 184h214l132 -184h-166l-66 98h-18l-64 -98h-162z" />
    <glyph glyph-name="Udieresis" unicode="&#xdc;" horiz-adv-x="771" 
d="M386 -20q-105 0 -177.5 39t-110.5 110.5t-38 169.5v431h186v-435q0 -43 16.5 -75t47.5 -49t76 -17t76 17t47 48.5t16 75.5v435h186v-431q0 -98 -37.5 -169.5t-110 -110.5t-177.5 -39zM272 790q-49 0 -72.5 25t-23.5 65t23.5 65t72.5 25q50 0 73 -25t23 -65t-23 -65
t-73 -25zM500 790q-49 0 -72.5 25t-23.5 65t23.5 65t72.5 25q50 0 73 -25t23 -65t-23 -65t-73 -25z" />
    <glyph glyph-name="Ugrave" unicode="&#xd9;" horiz-adv-x="771" 
d="M386 -20q-105 0 -177.5 39t-110.5 110.5t-38 169.5v431h186v-435q0 -43 16.5 -75t47.5 -49t76 -17t76 17t47 48.5t16 75.5v435h186v-431q0 -98 -37.5 -169.5t-110 -110.5t-177.5 -39zM299 784l-121 184h194l103 -184h-176z" />
    <glyph glyph-name="Uhungarumlaut" unicode="&#x170;" horiz-adv-x="771" 
d="M386 -20q-105 0 -177.5 39t-110.5 110.5t-38 169.5v431h186v-435q0 -43 16.5 -75t47.5 -49t76 -17t76 17t47 48.5t16 75.5v435h186v-431q0 -98 -37.5 -169.5t-110 -110.5t-177.5 -39zM404 784l91 184h144l-99 -184h-136zM220 784l91 184h144l-99 -184h-136z" />
    <glyph glyph-name="Umacron" unicode="&#x16a;" horiz-adv-x="771" 
d="M386 -20q-105 0 -177.5 39t-110.5 110.5t-38 169.5v431h186v-435q0 -43 16.5 -75t47.5 -49t76 -17t76 17t47 48.5t16 75.5v435h186v-431q0 -98 -37.5 -169.5t-110 -110.5t-177.5 -39zM181 802v126h410v-126h-410z" />
    <glyph glyph-name="Uogonek" unicode="&#x172;" horiz-adv-x="771" 
d="M386 -20q-105 0 -177.5 39t-110.5 110.5t-38 169.5v431h186v-435q0 -43 16.5 -75t47.5 -49t76 -17t76 17t47 48.5t16 75.5v435h186v-431q0 -98 -37.5 -169.5t-110 -110.5t-177.5 -39zM496 -251q-67 0 -110.5 39t-43.5 102q0 50 22.5 91t68.5 81l30 27l80 -82l-30 -29
q-15 -14 -25 -29.5t-10 -31.5q0 -18 12 -28t31 -10q14 0 25 2.5t18 6.5v-132q-10 -3 -29.5 -5t-38.5 -2z" />
    <glyph glyph-name="Uring" unicode="&#x16e;" horiz-adv-x="771" 
d="M386 -20q-105 0 -177.5 39t-110.5 110.5t-38 169.5v431h186v-435q0 -43 16.5 -75t47.5 -49t76 -17t76 17t47 48.5t16 75.5v435h186v-431q0 -98 -37.5 -169.5t-110 -110.5t-177.5 -39zM386 760q-60 0 -97 31t-37 83t37 83t97 31t97 -31t37 -83t-37 -83t-97 -31zM386 839
q18 0 28 10t10 25t-10 25t-28 10t-28 -10t-10 -25t10 -25t28 -10z" />
    <glyph glyph-name="Utilde" unicode="&#x168;" horiz-adv-x="771" 
d="M386 -20q-105 0 -177.5 39t-110.5 110.5t-38 169.5v431h186v-435q0 -43 16.5 -75t47.5 -49t76 -17t76 17t47 48.5t16 75.5v435h186v-431q0 -98 -37.5 -169.5t-110 -110.5t-177.5 -39zM476 777q-33 0 -56 8.5t-41.5 19.5t-38 19.5t-45.5 8.5q-35 0 -58.5 -12t-37.5 -29
l-26 124q18 21 47.5 36t74.5 15q33 0 56 -8.5t41.5 -19.5t38 -19.5t45.5 -8.5q35 0 59 12.5t38 28.5l26 -124q-18 -21 -48 -36t-75 -15z" />
    <glyph glyph-name="V" unicode="V" horiz-adv-x="750" 
d="M232 0l-212 730h192l159 -599l-35 17h96l-36 -17l148 599h186l-198 -730h-300z" />
    <glyph glyph-name="W" unicode="W" horiz-adv-x="1080" 
d="M192 0l-174 730h192l131 -605l-31 23h81l-35 -23l99 579h151l-137 -704h-277zM626 0l-147 704h159l116 -579l-35 23h76l-26 -23l113 605h180l-153 -730h-283z" />
    <glyph glyph-name="Wacute" unicode="&#x1e82;" horiz-adv-x="1080" 
d="M192 0l-174 730h192l131 -605l-31 23h81l-35 -23l99 579h151l-137 -704h-277zM626 0l-147 704h159l116 -579l-35 23h76l-26 -23l113 605h180l-153 -730h-283zM446 784l124 184h192l-142 -184h-174z" />
    <glyph glyph-name="Wcircumflex" unicode="&#x174;" horiz-adv-x="1080" 
d="M192 0l-174 730h192l131 -605l-31 23h81l-35 -23l99 579h151l-137 -704h-277zM626 0l-147 704h159l116 -579l-35 23h76l-26 -23l113 605h180l-153 -730h-283zM306 784l130 184h214l132 -184h-166l-66 98h-18l-64 -98h-162z" />
    <glyph glyph-name="Wdieresis" unicode="&#x1e84;" horiz-adv-x="1080" 
d="M192 0l-174 730h192l131 -605l-31 23h81l-35 -23l99 579h151l-137 -704h-277zM626 0l-147 704h159l116 -579l-35 23h76l-26 -23l113 605h180l-153 -730h-283zM427 790q-49 0 -72.5 25t-23.5 65t23.5 65t72.5 25q50 0 73 -25t23 -65t-23 -65t-73 -25zM655 790
q-49 0 -72.5 25t-23.5 65t23.5 65t72.5 25q50 0 73 -25t23 -65t-23 -65t-73 -25z" />
    <glyph glyph-name="Wgrave" unicode="&#x1e80;" horiz-adv-x="1080" 
d="M192 0l-174 730h192l131 -605l-31 23h81l-35 -23l99 579h151l-137 -704h-277zM626 0l-147 704h159l116 -579l-35 23h76l-26 -23l113 605h180l-153 -730h-283zM454 784l-121 184h194l103 -184h-176z" />
    <glyph glyph-name="X" unicode="X" horiz-adv-x="730" 
d="M6 0l242 388l2 -16l-224 358h204l125 -211h26l121 211h198l-223 -360l-3 16l250 -386h-204l-149 241h-26l-141 -241h-198z" />
    <glyph glyph-name="Y" unicode="Y" horiz-adv-x="658" 
d="M211 274l-207 456h190l139 -325l-26 9h72l-28 -9l123 325h180l-189 -456h-254zM247 0v298h182v-298h-182z" />
    <glyph glyph-name="Yacute" unicode="&#xdd;" horiz-adv-x="658" 
d="M211 274l-207 456h190l139 -325l-26 9h72l-28 -9l123 325h180l-189 -456h-254zM247 0v298h182v-298h-182zM239 784l124 184h192l-142 -184h-174z" />
    <glyph glyph-name="Ycircumflex" unicode="&#x176;" horiz-adv-x="658" 
d="M211 274l-207 456h190l139 -325l-26 9h72l-28 -9l123 325h180l-189 -456h-254zM247 0v298h182v-298h-182zM99 784l130 184h214l132 -184h-166l-66 98h-18l-64 -98h-162z" />
    <glyph glyph-name="Ydieresis" unicode="&#x178;" horiz-adv-x="658" 
d="M211 274l-207 456h190l139 -325l-26 9h72l-28 -9l123 325h180l-189 -456h-254zM247 0v298h182v-298h-182zM220 790q-49 0 -72.5 25t-23.5 65t23.5 65t72.5 25q50 0 73 -25t23 -65t-23 -65t-73 -25zM448 790q-49 0 -72.5 25t-23.5 65t23.5 65t72.5 25q50 0 73 -25t23 -65
t-23 -65t-73 -25z" />
    <glyph glyph-name="Ygrave" unicode="&#x1ef2;" horiz-adv-x="658" 
d="M211 274l-207 456h190l139 -325l-26 9h72l-28 -9l123 325h180l-189 -456h-254zM247 0v298h182v-298h-182zM247 784l-121 184h194l103 -184h-176z" />
    <glyph glyph-name="Z" unicode="Z" horiz-adv-x="645" 
d="M30 0v124l356 448l5 -18l-34 44l23 -20h-336v152h573v-124l-357 -448l-5 19l34 -45l-23 20h347v-152h-583z" />
    <glyph glyph-name="Zacute" unicode="&#x179;" horiz-adv-x="645" 
d="M30 0v124l356 448l5 -18l-34 44l23 -20h-336v152h573v-124l-357 -448l-5 19l34 -45l-23 20h347v-152h-583zM235 784l124 184h192l-142 -184h-174z" />
    <glyph glyph-name="Zcaron" unicode="&#x17d;" horiz-adv-x="645" 
d="M30 0v124l356 448l5 -18l-34 44l23 -20h-336v152h573v-124l-357 -448l-5 19l34 -45l-23 20h347v-152h-583zM221 784l-132 184h166l66 -98h18l64 98h162l-130 -184h-214z" />
    <glyph glyph-name="Zdotaccent" unicode="&#x17b;" horiz-adv-x="645" 
d="M30 0v124l356 448l5 -18l-34 44l23 -20h-336v152h573v-124l-357 -448l-5 19l34 -45l-23 20h347v-152h-583zM330 790q-49 0 -72.5 25t-23.5 65t23.5 65t72.5 25q50 0 73 -25t23 -65t-23 -65t-73 -25z" />
    <glyph glyph-name="a" unicode="a" horiz-adv-x="600" 
d="M400 0v162h-30v173q0 38 -17.5 56.5t-57.5 18.5q-19 0 -56 -1t-78 -3t-75 -4v152q24 2 57 4t68.5 3t65.5 1q85 0 144.5 -25t91 -75t31.5 -127v-335h-144zM225 -14q-58 0 -103 21t-70.5 60.5t-25.5 94.5q0 62 33 100.5t91 56.5t133 18h107v-94h-107q-37 0 -57 -18.5
t-20 -49.5q0 -30 20 -48.5t57 -18.5q24 0 42.5 8.5t30.5 29.5t14 58l42 -40q-5 -57 -27.5 -96.5t-62 -60.5t-97.5 -21z" />
    <glyph glyph-name="aacute" unicode="&#xe1;" horiz-adv-x="600" 
d="M400 0v162h-30v173q0 38 -17.5 56.5t-57.5 18.5q-19 0 -56 -1t-78 -3t-75 -4v152q24 2 57 4t68.5 3t65.5 1q85 0 144.5 -25t91 -75t31.5 -127v-335h-144zM225 -14q-58 0 -103 21t-70.5 60.5t-25.5 94.5q0 62 33 100.5t91 56.5t133 18h107v-94h-107q-37 0 -57 -18.5
t-20 -49.5q0 -30 20 -48.5t57 -18.5q24 0 42.5 8.5t30.5 29.5t14 58l42 -40q-5 -57 -27.5 -96.5t-62 -60.5t-97.5 -21zM205 612l90 212h186l-116 -212h-160z" />
    <glyph glyph-name="abreve" unicode="&#x103;" horiz-adv-x="600" 
d="M400 0v162h-30v173q0 38 -17.5 56.5t-57.5 18.5q-19 0 -56 -1t-78 -3t-75 -4v152q24 2 57 4t68.5 3t65.5 1q85 0 144.5 -25t91 -75t31.5 -127v-335h-144zM225 -14q-58 0 -103 21t-70.5 60.5t-25.5 94.5q0 62 33 100.5t91 56.5t133 18h107v-94h-107q-37 0 -57 -18.5
t-20 -49.5q0 -30 20 -48.5t57 -18.5q24 0 42.5 8.5t30.5 29.5t14 58l42 -40q-5 -57 -27.5 -96.5t-62 -60.5t-97.5 -21zM295 606q-90 0 -139.5 53t-52.5 165h134q2 -52 16 -71t42 -19t43.5 19t16.5 71h130q-3 -112 -51.5 -165t-138.5 -53z" />
    <glyph glyph-name="acircumflex" unicode="&#xe2;" horiz-adv-x="600" 
d="M400 0v162h-30v173q0 38 -17.5 56.5t-57.5 18.5q-19 0 -56 -1t-78 -3t-75 -4v152q24 2 57 4t68.5 3t65.5 1q85 0 144.5 -25t91 -75t31.5 -127v-335h-144zM225 -14q-58 0 -103 21t-70.5 60.5t-25.5 94.5q0 62 33 100.5t91 56.5t133 18h107v-94h-107q-37 0 -57 -18.5
t-20 -49.5q0 -30 20 -48.5t57 -18.5q24 0 42.5 8.5t30.5 29.5t14 58l42 -40q-5 -57 -27.5 -96.5t-62 -60.5t-97.5 -21zM82 612l101 212h224l103 -212h-154l-56 128h-14l-54 -128h-150z" />
    <glyph glyph-name="acute" unicode="&#xb4;" horiz-adv-x="300" 
d="M0 612l90 212h186l-116 -212h-160z" />
    <glyph glyph-name="acutecomb" unicode="&#x301;" 
d="M0 612l90 212h186l-116 -212h-160z" />
    <glyph glyph-name="acutecomb.case" 
d="M0 784l124 184h192l-142 -184h-174z" />
    <glyph glyph-name="adieresis" unicode="&#xe4;" horiz-adv-x="600" 
d="M400 0v162h-30v173q0 38 -17.5 56.5t-57.5 18.5q-19 0 -56 -1t-78 -3t-75 -4v152q24 2 57 4t68.5 3t65.5 1q85 0 144.5 -25t91 -75t31.5 -127v-335h-144zM225 -14q-58 0 -103 21t-70.5 60.5t-25.5 94.5q0 62 33 100.5t91 56.5t133 18h107v-94h-107q-37 0 -57 -18.5
t-20 -49.5q0 -30 20 -48.5t57 -18.5q24 0 42.5 8.5t30.5 29.5t14 58l42 -40q-5 -57 -27.5 -96.5t-62 -60.5t-97.5 -21zM184 626q-49 0 -70.5 26.5t-21.5 65.5t21.5 65.5t70.5 26.5t70.5 -26.5t21.5 -65.5t-21.5 -65.5t-70.5 -26.5zM404 626q-49 0 -70.5 26.5t-21.5 65.5
t21.5 65.5t70.5 26.5t70.5 -26.5t21.5 -65.5t-21.5 -65.5t-70.5 -26.5z" />
    <glyph glyph-name="ae" unicode="&#xe6;" horiz-adv-x="958" 
d="M657 -20q-55 0 -97.5 15.5t-73.5 41.5t-51 59t-31 69h52q-5 -57 -35.5 -97.5t-79.5 -61.5t-109 -21q-61 0 -107.5 21t-72.5 60.5t-26 94.5q0 62 33 100.5t91 56.5t133 18h107v-94h-107q-37 0 -57 -18.5t-20 -49.5q0 -30 20 -48.5t57 -18.5q24 0 43.5 9.5t31.5 31.5t12 60
v126q0 38 -17.5 56.5t-57.5 18.5q-19 0 -56 -1t-78 -3t-75 -4v152q24 2 57 4t67.5 3t64.5 1q83 0 135.5 -26t78 -74.5t27.5 -118.5h-112q11 60 40 112t80.5 84t128.5 32q88 0 149 -40.5t93.5 -106t32.5 -141.5v-55h-414v94h309l-63 -41q0 47 -12.5 79t-37 48.5t-61.5 16.5
q-36 0 -62.5 -17t-40.5 -50.5t-14 -83.5q0 -45 12.5 -78t40 -51t70.5 -18q37 0 62 13t35 35h166q-12 -56 -47.5 -100t-90 -69t-123.5 -25z" />
    <glyph glyph-name="agrave" unicode="&#xe0;" horiz-adv-x="600" 
d="M400 0v162h-30v173q0 38 -17.5 56.5t-57.5 18.5q-19 0 -56 -1t-78 -3t-75 -4v152q24 2 57 4t68.5 3t65.5 1q85 0 144.5 -25t91 -75t31.5 -127v-335h-144zM225 -14q-58 0 -103 21t-70.5 60.5t-25.5 94.5q0 62 33 100.5t91 56.5t133 18h107v-94h-107q-37 0 -57 -18.5
t-20 -49.5q0 -30 20 -48.5t57 -18.5q24 0 42.5 8.5t30.5 29.5t14 58l42 -40q-5 -57 -27.5 -96.5t-62 -60.5t-97.5 -21zM212 612l-114 212h190l88 -212h-164z" />
    <glyph glyph-name="amacron" unicode="&#x101;" horiz-adv-x="600" 
d="M400 0v162h-30v173q0 38 -17.5 56.5t-57.5 18.5q-19 0 -56 -1t-78 -3t-75 -4v152q24 2 57 4t68.5 3t65.5 1q85 0 144.5 -25t91 -75t31.5 -127v-335h-144zM225 -14q-58 0 -103 21t-70.5 60.5t-25.5 94.5q0 62 33 100.5t91 56.5t133 18h107v-94h-107q-37 0 -57 -18.5
t-20 -49.5q0 -30 20 -48.5t57 -18.5q24 0 42.5 8.5t30.5 29.5t14 58l42 -40q-5 -57 -27.5 -96.5t-62 -60.5t-97.5 -21zM114 642v126h360v-126h-360z" />
    <glyph glyph-name="ampersand" unicode="&#x26;" horiz-adv-x="745" 
d="M530 0l-271 294q-46 50 -73.5 88t-40 74t-12.5 79q0 60 27.5 106t85.5 72.5t150 26.5q38 0 75.5 -3.5t65.5 -8.5v-148q-20 3 -48 6t-55.5 4.5t-45.5 1.5q-55 0 -72 -18t-17 -49t15.5 -61t50.5 -69l364 -395h-199zM294 -22q-82 0 -143.5 32.5t-96 88.5t-34.5 125v13
q0 73 41 130.5t108 85.5l70 -90q-21 -16 -37 -46.5t-16 -73.5q0 -32 12 -59t38.5 -42.5t69.5 -15.5q54 0 102 28.5t78 92t30 168.5h158q0 -108 -31.5 -189.5t-85.5 -136.5t-122 -83t-141 -28zM429 392v130h292v-130h-292z" />
    <glyph glyph-name="aogonek" unicode="&#x105;" horiz-adv-x="600" 
d="M400 0v162h-30v173q0 38 -17.5 56.5t-57.5 18.5q-19 0 -56 -1t-78 -3t-75 -4v152q24 2 57 4t68.5 3t65.5 1q85 0 144.5 -25t91 -75t31.5 -127v-335h-144zM225 -14q-58 0 -103 21t-70.5 60.5t-25.5 94.5q0 62 33 100.5t91 56.5t133 18h107v-94h-107q-37 0 -57 -18.5
t-20 -49.5q0 -30 20 -48.5t57 -18.5q24 0 42.5 8.5t30.5 29.5t14 58l42 -40q-5 -57 -27.5 -96.5t-62 -60.5t-97.5 -21zM499 -242q-66 0 -105.5 35t-39.5 95q0 46 18.5 81.5t58.5 76.5l33 34l78 -80l-33 -36q-11 -12 -18 -23.5t-7 -24.5q0 -14 10.5 -22t28.5 -8q25 0 41 7
v-128q-10 -3 -29.5 -5t-35.5 -2z" />
    <glyph glyph-name="aring" unicode="&#xe5;" horiz-adv-x="600" 
d="M400 0v162h-30v173q0 38 -17.5 56.5t-57.5 18.5q-19 0 -56 -1t-78 -3t-75 -4v152q24 2 57 4t68.5 3t65.5 1q85 0 144.5 -25t91 -75t31.5 -127v-335h-144zM225 -14q-58 0 -103 21t-70.5 60.5t-25.5 94.5q0 62 33 100.5t91 56.5t133 18h107v-94h-107q-37 0 -57 -18.5
t-20 -49.5q0 -30 20 -48.5t57 -18.5q24 0 42.5 8.5t30.5 29.5t14 58l42 -40q-5 -57 -27.5 -96.5t-62 -60.5t-97.5 -21zM294 601q-59 0 -96 35t-37 90t37 90t96 35t96 -35t37 -90t-37 -90t-96 -35zM294 686q19 0 29.5 11.5t10.5 28.5t-10.5 28.5t-29.5 11.5t-29.5 -11.5
t-10.5 -28.5t10.5 -28.5t29.5 -11.5z" />
    <glyph glyph-name="asciicircum" unicode="^" horiz-adv-x="632" 
d="M44 311l161 432h222l161 -432h-154l-103 302h-25l-104 -302h-158z" />
    <glyph glyph-name="asciitilde" unicode="~" horiz-adv-x="559" 
d="M382 208q-36 0 -65.5 13t-54.5 29.5t-46.5 29.5t-41.5 13q-19 0 -33 -15.5t-19 -49.5l-102 -1q2 74 25.5 119.5t59 66.5t72.5 21q36 0 65.5 -13t54.5 -29.5t46.5 -29.5t41.5 -13t33.5 15.5t18.5 49.5h102q-1 -75 -25 -120.5t-59 -65.5t-73 -20z" />
    <glyph glyph-name="asterisk" unicode="*" horiz-adv-x="571" 
d="M471 359l-151 112v120l151 112l65 -116l-119 -47v-18l119 -47zM332 785l-21 -187l-104 -60l-172 75l67 114l101 -79l15 9l-19 126zM35 449l172 75l104 -60l21 -187l-132 2l18 126l-15 9l-100 -79z" />
    <glyph glyph-name="at" unicode="@" horiz-adv-x="1129" 
d="M567 -247q-112 0 -207.5 34.5t-166.5 99t-110 157t-39 207.5q0 114 36.5 206t106 157.5t167 100.5t218.5 35q104 0 195 -29.5t160.5 -87.5t109 -142.5t39.5 -195.5q0 -87 -26.5 -154.5t-78 -106t-127.5 -38.5q-52 0 -91 21t-60 60t-21 94v52h34q-3 -71 -27.5 -120.5
t-67.5 -75t-101 -25.5q-63 0 -113.5 29.5t-80 84t-29.5 127.5v16q0 74 28 126.5t76.5 81t110.5 28.5q60 0 104 -26.5t69.5 -74t28.5 -112.5h-16v193h126v-292q0 -18 4.5 -30.5t14 -19.5t24.5 -7q28 0 45.5 20t26.5 57t9 88q0 87 -29 149t-80 102t-117 59t-139 19
q-92 0 -164.5 -25t-123 -72.5t-77 -116t-26.5 -155.5q0 -115 49.5 -197t136.5 -125.5t199 -43.5q33 0 71 4t69 10v-133q-30 -6 -68.5 -9.5t-71.5 -3.5zM543 132q30 0 53 13t36.5 38.5t13.5 60.5v18q0 32 -13.5 55t-36.5 35.5t-53 12.5q-32 0 -55.5 -14.5t-36 -40
t-12.5 -59.5q0 -33 12 -60t35 -43t57 -16z" />
    <glyph glyph-name="atilde" unicode="&#xe3;" horiz-adv-x="600" 
d="M400 0v162h-30v173q0 38 -17.5 56.5t-57.5 18.5q-19 0 -56 -1t-78 -3t-75 -4v152q24 2 57 4t68.5 3t65.5 1q85 0 144.5 -25t91 -75t31.5 -127v-335h-144zM225 -14q-58 0 -103 21t-70.5 60.5t-25.5 94.5q0 62 33 100.5t91 56.5t133 18h107v-94h-107q-37 0 -57 -18.5
t-20 -49.5q0 -30 20 -48.5t57 -18.5q24 0 42.5 8.5t30.5 29.5t14 58l42 -40q-5 -57 -27.5 -96.5t-62 -60.5t-97.5 -21zM376 618q-31 0 -52 8t-37.5 18t-34 18t-41.5 8q-28 0 -49 -10.5t-36 -24.5l-26 124q18 18 44.5 31.5t66.5 13.5q32 0 52.5 -8t37 -18t34 -18t41.5 -8
q29 0 50 10.5t36 24.5l26 -124q-18 -18 -45 -31.5t-67 -13.5z" />
    <glyph glyph-name="b" unicode="b" horiz-adv-x="708" 
d="M422 -18q-68 0 -118.5 28t-79 82t-30.5 132h16v-224h-144v730h182v-376l-40 -40q3 81 31 138t77.5 86.5t114.5 29.5q56 0 101 -20.5t76.5 -58t48.5 -88.5t17 -112v-24q0 -61 -17 -112.5t-50 -90t-79.5 -59.5t-105.5 -21zM370 132q36 0 63.5 18.5t43 51.5t15.5 75
q0 43 -15.5 74.5t-42.5 49t-64 17.5q-33 0 -61.5 -15t-46.5 -44t-18 -70v-34q0 -39 19 -66.5t48 -42t59 -14.5z" />
    <glyph glyph-name="backslash" unicode="\" horiz-adv-x="428" 
d="M230 -60l-218 840h186l218 -840h-186z" />
    <glyph glyph-name="bar" unicode="|" horiz-adv-x="376" 
d="M112 -200v930l152 1v-930z" />
    <glyph glyph-name="braceleft" unicode="{" horiz-adv-x="398" 
d="M340 -182q-103 0 -163.5 46t-60.5 152v143q0 31 -19 45.5t-59 14.5v160q40 0 59 14.5t19 45.5v139q0 107 60.5 152.5t163.5 45.5h26v-152h-26q-29 0 -40.5 -12.5t-11.5 -35.5v-148q0 -61 -26.5 -88.5t-79.5 -32.5v-16q53 -4 79.5 -31.5t26.5 -89.5v-152q0 -23 11.5 -35.5
t40.5 -12.5h26v-152h-26z" />
    <glyph glyph-name="braceleft.case" horiz-adv-x="398" 
d="M340 -118q-103 0 -163.5 46t-60.5 152v126q0 31 -19 45.5t-59 14.5v160q40 0 59 14.5t19 45.5v122q0 107 60.5 152.5t163.5 45.5h26v-152h-26q-29 0 -40.5 -12.5t-11.5 -35.5v-131q0 -61 -26.5 -88.5t-79.5 -32.5v-16q53 -4 79.5 -31.5t26.5 -89.5v-135q0 -23 11.5 -35.5
t40.5 -12.5h26v-152h-26z" />
    <glyph glyph-name="braceright" unicode="}" horiz-adv-x="398" 
d="M58 -182q103 0 163.5 46t60.5 152v143q0 31 19 45.5t59 14.5v160q-40 0 -59 14.5t-19 45.5v139q0 107 -60.5 152.5t-163.5 45.5h-26v-152h26q29 0 40.5 -12.5t11.5 -35.5v-148q0 -61 26.5 -88.5t79.5 -32.5v-16q-53 -4 -79.5 -31.5t-26.5 -89.5v-152q0 -23 -11.5 -35.5
t-40.5 -12.5h-26v-152h26z" />
    <glyph glyph-name="braceright.case" horiz-adv-x="398" 
d="M58 -118q103 0 163.5 46t60.5 152v126q0 31 19 45.5t59 14.5v160q-40 0 -59 14.5t-19 45.5v122q0 107 -60.5 152.5t-163.5 45.5h-26v-152h26q29 0 40.5 -12.5t11.5 -35.5v-131q0 -61 26.5 -88.5t79.5 -32.5v-16q-53 -4 -79.5 -31.5t-26.5 -89.5v-135q0 -23 -11.5 -35.5
t-40.5 -12.5h-26v-152h26z" />
    <glyph glyph-name="bracketleft" unicode="[" horiz-adv-x="398" 
d="M78 -182v958h174v-958h-174zM204 -182v152h156v-152h-156zM204 624v152h156v-152h-156z" />
    <glyph glyph-name="bracketleft.case" horiz-adv-x="398" 
d="M78 -118v924h174v-924h-174zM204 -118v152h156v-152h-156zM204 654v152h156v-152h-156z" />
    <glyph glyph-name="bracketright" unicode="]" horiz-adv-x="398" 
d="M320 -182v958h-174v-958h174zM194 -182v152h-156v-152h156zM194 624v152h-156v-152h156z" />
    <glyph glyph-name="bracketright.case" horiz-adv-x="398" 
d="M320 -118v924h-174v-924h174zM194 -118v152h-156v-152h156zM194 654v152h-156v-152h156z" />
    <glyph glyph-name="uni0306" unicode="&#x306;" 
d="M194 606q-90 0 -139.5 53t-52.5 165h134q2 -52 16 -71t42 -19t43.5 19t16.5 71h130q-3 -112 -51.5 -165t-138.5 -53z" />
    <glyph glyph-name="uni0306.case" 
d="M201 772q-64 0 -108 24t-67.5 68t-25.5 104h130q2 -36 18.5 -55t52.5 -19t54 19t19 55h126q-2 -60 -25 -104t-66.5 -68t-107.5 -24z" />
    <glyph glyph-name="brokenbar" unicode="&#xa6;" horiz-adv-x="376" 
d="M112 319v411h152v-411h-152zM112 -200v411h152v-411h-152z" />
    <glyph glyph-name="bullet" unicode="&#x2022;" horiz-adv-x="436" 
d="M78 144v290h280v-290h-280z" />
    <glyph glyph-name="c" unicode="c" horiz-adv-x="613" 
d="M318 -20q-72 0 -125 23.5t-88.5 63.5t-53 91t-17.5 106v20q0 58 18.5 110t54.5 92t89 63t122 23q76 0 134 -30t92.5 -82.5t38.5 -120.5h-178q-3 33 -24.5 56t-62.5 23q-35 0 -57.5 -18t-33.5 -50t-11 -76q0 -41 9.5 -73t32 -49.5t60.5 -17.5q28 0 47 10t30 28.5t14 43.5
h178q-4 -70 -39.5 -123t-94.5 -83t-135 -30z" />
    <glyph glyph-name="cacute" unicode="&#x107;" horiz-adv-x="613" 
d="M318 -20q-72 0 -125 23.5t-88.5 63.5t-53 91t-17.5 106v20q0 58 18.5 110t54.5 92t89 63t122 23q76 0 134 -30t92.5 -82.5t38.5 -120.5h-178q-3 33 -24.5 56t-62.5 23q-35 0 -57.5 -18t-33.5 -50t-11 -76q0 -41 9.5 -73t32 -49.5t60.5 -17.5q28 0 47 10t30 28.5t14 43.5
h178q-4 -70 -39.5 -123t-94.5 -83t-135 -30zM229 612l90 212h186l-116 -212h-160z" />
    <glyph glyph-name="uni030C" unicode="&#x30c;" 
d="M101 612l-101 212h154l56 -128h14l50 128h150l-95 -212h-228z" />
    <glyph glyph-name="uni030C.alt" 
d="M52 576v264h156l-18 -264h-138z" />
    <glyph glyph-name="uni030C.case" 
d="M132 784l-132 184h166l66 -98h18l64 98h162l-130 -184h-214z" />
    <glyph glyph-name="ccaron" unicode="&#x10d;" horiz-adv-x="613" 
d="M318 -20q-72 0 -125 23.5t-88.5 63.5t-53 91t-17.5 106v20q0 58 18.5 110t54.5 92t89 63t122 23q76 0 134 -30t92.5 -82.5t38.5 -120.5h-178q-3 33 -24.5 56t-62.5 23q-35 0 -57.5 -18t-33.5 -50t-11 -76q0 -41 9.5 -73t32 -49.5t60.5 -17.5q28 0 47 10t30 28.5t14 43.5
h178q-4 -70 -39.5 -123t-94.5 -83t-135 -30zM197 612l-101 212h154l56 -128h14l50 128h150l-95 -212h-228z" />
    <glyph glyph-name="ccedilla" unicode="&#xe7;" horiz-adv-x="613" 
d="M318 -20q-72 0 -125 23.5t-88.5 63.5t-53 91t-17.5 106v20q0 58 18.5 110t54.5 92t89 63t122 23q76 0 134 -30t92.5 -82.5t38.5 -120.5h-178q-3 33 -24.5 56t-62.5 23q-35 0 -57.5 -18t-33.5 -50t-11 -76q0 -41 9.5 -73t32 -49.5t60.5 -17.5q28 0 47 10t30 28.5t14 43.5
h178q-4 -70 -39.5 -123t-94.5 -83t-135 -30zM315 -280q-25 0 -48.5 4.5t-36.5 8.5v110q14 -5 34 -9t42 -4q27 0 40.5 6.5t13.5 18.5q0 9 -8.5 14t-29.5 5h-57v140h110v-101l-62 45h13q72 0 112 -27t40 -81q0 -55 -41.5 -92.5t-121.5 -37.5z" />
    <glyph glyph-name="ccircumflex" unicode="&#x109;" horiz-adv-x="613" 
d="M318 -20q-72 0 -125 23.5t-88.5 63.5t-53 91t-17.5 106v20q0 58 18.5 110t54.5 92t89 63t122 23q76 0 134 -30t92.5 -82.5t38.5 -120.5h-178q-3 33 -24.5 56t-62.5 23q-35 0 -57.5 -18t-33.5 -50t-11 -76q0 -41 9.5 -73t32 -49.5t60.5 -17.5q28 0 47 10t30 28.5t14 43.5
h178q-4 -70 -39.5 -123t-94.5 -83t-135 -30zM106 612l101 212h224l103 -212h-154l-56 128h-14l-54 -128h-150z" />
    <glyph glyph-name="cdotaccent" unicode="&#x10b;" horiz-adv-x="613" 
d="M318 -20q-72 0 -125 23.5t-88.5 63.5t-53 91t-17.5 106v20q0 58 18.5 110t54.5 92t89 63t122 23q76 0 134 -30t92.5 -82.5t38.5 -120.5h-178q-3 33 -24.5 56t-62.5 23q-35 0 -57.5 -18t-33.5 -50t-11 -76q0 -41 9.5 -73t32 -49.5t60.5 -17.5q28 0 47 10t30 28.5t14 43.5
h178q-4 -70 -39.5 -123t-94.5 -83t-135 -30zM318 626q-49 0 -70.5 26.5t-21.5 65.5t21.5 65.5t70.5 26.5t70.5 -26.5t21.5 -65.5t-21.5 -65.5t-70.5 -26.5z" />
    <glyph glyph-name="cedilla" unicode="&#xb8;" horiz-adv-x="300" 
d="M119 -280q-25 0 -48.5 4.5t-36.5 8.5v110q14 -5 34 -9t42 -4q27 0 40.5 6.5t13.5 18.5q0 9 -8.5 14t-29.5 5h-57v140h110v-101l-62 45h13q72 0 112 -27t40 -81q0 -55 -41.5 -92.5t-121.5 -37.5z" />
    <glyph glyph-name="uni0327" unicode="&#x327;" 
d="M119 -280q-25 0 -48.5 4.5t-36.5 8.5v110q14 -5 34 -9t42 -4q27 0 40.5 6.5t13.5 18.5q0 9 -8.5 14t-29.5 5h-57v140h110v-101l-62 45h13q72 0 112 -27t40 -81q0 -55 -41.5 -92.5t-121.5 -37.5z" />
    <glyph glyph-name="uni0327.case" 
d="M90 -286q-27 0 -51.5 4t-38.5 9v114q15 -5 35.5 -9t45.5 -4q29 0 43 6t14 19q0 10 -9.5 14.5t-31.5 4.5h-58v142h116v-101l-67 45h13q73 0 115 -27t42 -83t-43 -95t-125 -39z" />
    <glyph glyph-name="cent" unicode="&#xa2;" horiz-adv-x="610" 
d="M315 89q-67 0 -119 20.5t-88 56.5t-55 84t-19 102v20q0 57 19 106t55.5 85t88.5 56t118 20q77 0 134.5 -27.5t91 -78t37.5 -119.5h-172q-4 32 -28 53.5t-64 21.5q-31 0 -54.5 -15t-36.5 -43.5t-13 -68.5q0 -38 11.5 -65.5t35 -42.5t57.5 -15q41 0 66 21.5t30 58.5h172
q-4 -69 -37.5 -121t-92 -80.5t-137.5 -28.5zM245 0v146h146v-146h-146zM245 574v146h146v-146h-146z" />
    <glyph glyph-name="cent.tnum" horiz-adv-x="676" 
d="M347 89q-67 0 -119 20.5t-88 56.5t-55 84t-19 102v20q0 57 19 106t55.5 85t88.5 56t118 20q77 0 134.5 -27.5t91 -78t37.5 -119.5h-172q-4 32 -28 53.5t-64 21.5q-31 0 -54.5 -15t-36.5 -43.5t-13 -68.5q0 -38 11.5 -65.5t35 -42.5t57.5 -15q41 0 66 21.5t30 58.5h172
q-4 -69 -37.5 -121t-92 -80.5t-137.5 -28.5zM277 0v146h146v-146h-146zM277 574v146h146v-146h-146z" />
    <glyph glyph-name="circumflex" unicode="&#x2c6;" horiz-adv-x="300" 
d="M0 612l101 212h224l103 -212h-154l-56 128h-14l-54 -128h-150z" />
    <glyph glyph-name="uni0302" unicode="&#x302;" 
d="M0 612l101 212h224l103 -212h-154l-56 128h-14l-54 -128h-150z" />
    <glyph glyph-name="uni0302.case" 
d="M0 784l130 184h214l132 -184h-166l-66 98h-18l-64 -98h-162z" />
    <glyph glyph-name="colon" unicode=":" horiz-adv-x="276" 
d="M40 0v198h196v-198h-196zM40 320v198h196v-198h-196z" />
    <glyph glyph-name="comma" unicode="," horiz-adv-x="276" 
d="M139 -176l-139 54l110 322l154 -56z" />
    <glyph glyph-name="uni0326" unicode="&#x326;" 
d="M86 -42q48 0 74.5 -32.5t26.5 -88.5v-6q0 -70 -41.5 -106.5t-109.5 -36.5h-28v88h30q31 0 43 14t12 34v27l27 -3q-6 -14 -19.5 -23.5t-35.5 -9.5q-29 0 -47 18t-18 50q0 40 26 57.5t60 17.5z" />
    <glyph glyph-name="uni0326.case" 
d="M9 -314v88h33q33 0 45 13t12 35v27l23 -3q-6 -13 -20 -23t-36 -10q-28 0 -47 18t-19 50q0 41 27 58t62 17q50 0 77 -32.5t27 -88.5v-6q0 -71 -41.5 -107t-111.5 -36h-31z" />
    <glyph glyph-name="uni0312" unicode="&#x312;" 
d="M101 594q-48 0 -74.5 32.5t-26.5 88.5v6q0 70 41.5 106.5t109.5 36.5h28v-88h-30q-31 0 -43 -14t-12 -34v-27l-27 3q6 14 19.5 23.5t35.5 9.5q29 0 47 -18t18 -50q0 -40 -26 -57.5t-60 -17.5z" />
    <glyph glyph-name="copyright" unicode="&#xa9;" horiz-adv-x="710" 
d="M356 106q-83 0 -143 28t-98 74t-56.5 100.5t-18.5 106.5v18q0 54 19 108.5t57.5 99.5t98 72t140.5 27t140.5 -27t98 -72t57.5 -99.5t19 -108.5v-18q0 -52 -18.5 -106.5t-56.5 -100.5t-97.5 -74t-141.5 -28zM355 160q79 0 136 36.5t88 96.5t31 130q0 73 -31 132.5t-88 95
t-136 35.5t-136 -35.5t-88 -95t-31 -132.5q0 -70 31 -130t88 -96.5t136 -36.5zM356 233q-61 0 -102.5 24.5t-62.5 66t-21 90.5v13q0 52 21.5 93.5t63.5 66t101 24.5q78 0 127 -42t53 -110h-122q-2 21 -15 35.5t-39 14.5q-34 0 -49 -22.5t-15 -65.5q0 -27 6 -46.5t20 -29.5
t38 -10q26 0 39.5 14.5t16.5 39.5h123q-4 -70 -54.5 -113t-128.5 -43z" />
    <glyph glyph-name="currency" unicode="&#xa4;" horiz-adv-x="688" 
d="M344 131q-74 0 -130.5 32t-88 83.5t-31.5 109.5v16q0 59 31.5 110.5t88 83t130.5 31.5t130.5 -31.5t88 -83t31.5 -110.5v-16q0 -58 -31.5 -109.5t-88 -83.5t-130.5 -32zM130 56l-102 104l113 113l102 -104zM141 453l-113 113l102 104l113 -113zM344 267q32 0 53 12t32 34
t11 51q0 31 -11.5 52.5t-32.5 33t-52 11.5q-30 0 -51.5 -11.5t-33 -33t-11.5 -52.5q0 -29 11 -51t32.5 -34t52.5 -12zM558 56l-113 113l102 104l113 -113zM547 453l-102 104l113 113l102 -104z" />
    <glyph glyph-name="currency.tnum" horiz-adv-x="676" 
d="M338 131q-73 0 -127 31.5t-84 83t-30 110.5v16q0 60 30 111.5t84 82.5t127 31t127 -31t84 -82.5t30 -111.5v-16q0 -59 -30 -110.5t-84 -83t-127 -31.5zM132 56l-102 104l113 113l102 -104zM143 453l-113 113l102 104l113 -113zM338 267q31 0 50 12.5t28 34.5t9 50
q0 30 -9.5 52t-28.5 33.5t-49 11.5q-29 0 -48.5 -11.5t-29 -33.5t-9.5 -52q0 -28 9 -50t28.5 -34.5t49.5 -12.5zM544 56l-113 113l102 104l113 -113zM533 453l-102 104l113 113l102 -104z" />
    <glyph glyph-name="d" unicode="d" horiz-adv-x="708" 
d="M293 -18q-58 0 -105.5 21t-82 58.5t-53 88.5t-18.5 111v24q0 60 17.5 111.5t50.5 90t80 60t105 21.5q67 0 114.5 -29.5t73 -85.5t27.5 -136l-42 31v382h182v-730h-144v224h20q-2 -74 -30 -128.5t-77.5 -84t-117.5 -29.5zM342 132q33 0 60.5 15t44.5 44t17 70v34
q0 40 -17.5 67t-45 41.5t-59.5 14.5q-36 0 -64.5 -18.5t-45 -51t-16.5 -75.5t16.5 -74.5t45 -49t64.5 -17.5z" />
    <glyph glyph-name="dagger" unicode="&#x2020;" horiz-adv-x="602" 
d="M216 -200v548h170v-548h-170zM36 408v138h530v-138h-530zM216 512v218h170v-218h-170z" />
    <glyph glyph-name="daggerdbl" unicode="&#x2021;" horiz-adv-x="602" 
d="M36 408v138h530v-138h-530zM216 -200v218h170v-218h-170zM36 -16v138h530v-138h-530zM216 182v166h170v-166h-170zM216 512v218h170v-218h-170z" />
    <glyph glyph-name="dcaron" unicode="&#x10f;" horiz-adv-x="708" 
d="M293 -18q-58 0 -105.5 21t-82 58.5t-53 88.5t-18.5 111v24q0 60 17.5 111.5t50.5 90t80 60t105 21.5q67 0 114.5 -29.5t73 -85.5t27.5 -136l-42 31v382h182v-730h-144v224h20q-2 -74 -30 -128.5t-77.5 -84t-117.5 -29.5zM342 132q33 0 60.5 15t44.5 44t17 70v34
q0 40 -17.5 67t-45 41.5t-59.5 14.5q-36 0 -64.5 -18.5t-45 -51t-16.5 -75.5t16.5 -74.5t45 -49t64.5 -17.5zM678 558v264h156l-18 -264h-138z" />
    <glyph glyph-name="dcroat" unicode="&#x111;" horiz-adv-x="708" 
d="M293 -18q-58 0 -105.5 21t-82 58.5t-53 88.5t-18.5 111v24q0 60 17.5 111.5t50.5 90t80 60t105 21.5q67 0 114.5 -29.5t73 -85.5t27.5 -136l-42 31v382h182v-730h-144v224h20q-2 -74 -30 -128.5t-77.5 -84t-117.5 -29.5zM342 132q33 0 60.5 15t44.5 44t17 70v34
q0 40 -17.5 67t-45 41.5t-59.5 14.5q-36 0 -64.5 -18.5t-45 -51t-16.5 -75.5t16.5 -74.5t45 -49t64.5 -17.5zM324 590v94h372v-94h-372z" />
    <glyph glyph-name="degree" unicode="&#xb0;" horiz-adv-x="442" 
d="M221 333q-60 0 -106 27t-71.5 72t-25.5 100t25.5 99.5t71.5 71.5t106 27q61 0 106.5 -27t71 -71.5t25.5 -99.5t-25.5 -100t-71 -72t-106.5 -27zM221 459q33 0 52 21t19 52t-19 51.5t-52 20.5t-52 -20.5t-19 -51.5t19 -52t52 -21z" />
    <glyph glyph-name="dieresis" unicode="&#xa8;" horiz-adv-x="300" 
d="M92 626q-49 0 -70.5 26.5t-21.5 65.5t21.5 65.5t70.5 26.5t70.5 -26.5t21.5 -65.5t-21.5 -65.5t-70.5 -26.5zM312 626q-49 0 -70.5 26.5t-21.5 65.5t21.5 65.5t70.5 26.5t70.5 -26.5t21.5 -65.5t-21.5 -65.5t-70.5 -26.5z" />
    <glyph glyph-name="uni0308" unicode="&#x308;" 
d="M92 626q-49 0 -70.5 26.5t-21.5 65.5t21.5 65.5t70.5 26.5t70.5 -26.5t21.5 -65.5t-21.5 -65.5t-70.5 -26.5zM312 626q-49 0 -70.5 26.5t-21.5 65.5t21.5 65.5t70.5 26.5t70.5 -26.5t21.5 -65.5t-21.5 -65.5t-70.5 -26.5z" />
    <glyph glyph-name="uni0308.case" 
d="M96 790q-49 0 -72.5 25t-23.5 65t23.5 65t72.5 25q50 0 73 -25t23 -65t-23 -65t-73 -25zM324 790q-49 0 -72.5 25t-23.5 65t23.5 65t72.5 25q50 0 73 -25t23 -65t-23 -65t-73 -25z" />
    <glyph glyph-name="divide" unicode="&#xf7;" horiz-adv-x="598" 
d="M44 270v148h510v-148h-510zM217 50v158h164v-158h-164zM217 480v158h164v-158h-164z" />
    <glyph glyph-name="divide.tnum" horiz-adv-x="676" 
d="M70 270v148h536v-148h-536zM256 50v158h164v-158h-164zM256 480v158h164v-158h-164z" />
    <glyph glyph-name="uni2215" unicode="&#x2215;" horiz-adv-x="477" 
d="M-17 -68l350 894h164l-350 -894h-164z" />
    <glyph glyph-name="dollar" unicode="$" horiz-adv-x="650" 
d="M329 -6q-102 0 -169 28.5t-100.5 81t-33.5 124.5h166q0 -27 15 -48t45.5 -32.5t76.5 -11.5q60 0 94.5 19.5t34.5 56.5q0 31 -28.5 50.5t-94.5 25.5l-46 4q-110 10 -175 66.5t-65 159.5q0 71 31 118t90 70.5t142 23.5q90 0 150.5 -27.5t91.5 -78.5t31 -124h-166
q0 26 -13 45.5t-36.5 31t-57.5 11.5q-31 0 -52.5 -8.5t-33 -24t-11.5 -37.5q0 -27 20.5 -49.5t69.5 -27.5l46 -4q124 -10 198.5 -65.5t74.5 -159.5q0 -71 -34 -119.5t-100 -73.5t-161 -25zM249 -129v146h146v-146h-146zM245 681v146h146v-146h-146z" />
    <glyph glyph-name="dollar.tnum" horiz-adv-x="676" 
d="M346 -7q-100 0 -165.5 28.5t-97 81.5t-31.5 125h166q0 -27 14 -48t42.5 -33t71.5 -12q56 0 88 20.5t32 56.5q0 30 -26 50.5t-88 25.5l-46 4q-108 10 -169.5 66t-61.5 158q0 71 29.5 117.5t86.5 70t138 23.5q88 0 146.5 -26.5t88 -77.5t29.5 -123h-166q0 25 -11.5 44
t-33.5 30t-53 11q-28 0 -48 -8.5t-30 -23.5t-10 -37q0 -26 18 -48.5t63 -26.5l46 -4q122 -10 193 -66t71 -159q0 -70 -32.5 -119t-96 -74.5t-157.5 -25.5zM266 -129v146h146v-146h-146zM262 681v146h146v-146h-146z" />
    <glyph glyph-name="uni0307" unicode="&#x307;" 
d="M92 626q-49 0 -70.5 26.5t-21.5 65.5t21.5 65.5t70.5 26.5t70.5 -26.5t21.5 -65.5t-21.5 -65.5t-70.5 -26.5z" />
    <glyph glyph-name="uni0307.case" 
d="M96 790q-49 0 -72.5 25t-23.5 65t23.5 65t72.5 25q50 0 73 -25t23 -65t-23 -65t-73 -25z" />
    <glyph glyph-name="e" unicode="e" horiz-adv-x="628" 
d="M325 -20q-70 0 -124 24t-91 65t-56.5 92t-19.5 105v20q0 56 19.5 107.5t56 91.5t89.5 63.5t120 23.5q89 0 151 -40t95 -105.5t33 -142.5v-58h-488v98h383l-63 -44q0 47 -12.5 79.5t-37 49.5t-61.5 17q-36 0 -62.5 -16.5t-40.5 -50t-14 -84.5q0 -46 13 -79.5t40 -51.5
t70 -18q38 0 62.5 13t34.5 35h166q-12 -56 -47.5 -100t-90 -69t-125.5 -25z" />
    <glyph glyph-name="eacute" unicode="&#xe9;" horiz-adv-x="628" 
d="M325 -20q-70 0 -124 24t-91 65t-56.5 92t-19.5 105v20q0 56 19.5 107.5t56 91.5t89.5 63.5t120 23.5q89 0 151 -40t95 -105.5t33 -142.5v-58h-488v98h383l-63 -44q0 47 -12.5 79.5t-37 49.5t-61.5 17q-36 0 -62.5 -16.5t-40.5 -50t-14 -84.5q0 -46 13 -79.5t40 -51.5
t70 -18q38 0 62.5 13t34.5 35h166q-12 -56 -47.5 -100t-90 -69t-125.5 -25zM230 612l90 212h186l-116 -212h-160z" />
    <glyph glyph-name="ebreve" unicode="&#x115;" horiz-adv-x="628" 
d="M325 -20q-70 0 -124 24t-91 65t-56.5 92t-19.5 105v20q0 56 19.5 107.5t56 91.5t89.5 63.5t120 23.5q89 0 151 -40t95 -105.5t33 -142.5v-58h-488v98h383l-63 -44q0 47 -12.5 79.5t-37 49.5t-61.5 17q-36 0 -62.5 -16.5t-40.5 -50t-14 -84.5q0 -46 13 -79.5t40 -51.5
t70 -18q38 0 62.5 13t34.5 35h166q-12 -56 -47.5 -100t-90 -69t-125.5 -25zM320 606q-90 0 -139.5 53t-52.5 165h134q2 -52 16 -71t42 -19t43.5 19t16.5 71h130q-3 -112 -51.5 -165t-138.5 -53z" />
    <glyph glyph-name="ecaron" unicode="&#x11b;" horiz-adv-x="628" 
d="M325 -20q-70 0 -124 24t-91 65t-56.5 92t-19.5 105v20q0 56 19.5 107.5t56 91.5t89.5 63.5t120 23.5q89 0 151 -40t95 -105.5t33 -142.5v-58h-488v98h383l-63 -44q0 47 -12.5 79.5t-37 49.5t-61.5 17q-36 0 -62.5 -16.5t-40.5 -50t-14 -84.5q0 -46 13 -79.5t40 -51.5
t70 -18q38 0 62.5 13t34.5 35h166q-12 -56 -47.5 -100t-90 -69t-125.5 -25zM198 612l-101 212h154l56 -128h14l50 128h150l-95 -212h-228z" />
    <glyph glyph-name="ecircumflex" unicode="&#xea;" horiz-adv-x="628" 
d="M325 -20q-70 0 -124 24t-91 65t-56.5 92t-19.5 105v20q0 56 19.5 107.5t56 91.5t89.5 63.5t120 23.5q89 0 151 -40t95 -105.5t33 -142.5v-58h-488v98h383l-63 -44q0 47 -12.5 79.5t-37 49.5t-61.5 17q-36 0 -62.5 -16.5t-40.5 -50t-14 -84.5q0 -46 13 -79.5t40 -51.5
t70 -18q38 0 62.5 13t34.5 35h166q-12 -56 -47.5 -100t-90 -69t-125.5 -25zM107 612l101 212h224l103 -212h-154l-56 128h-14l-54 -128h-150z" />
    <glyph glyph-name="edieresis" unicode="&#xeb;" horiz-adv-x="628" 
d="M325 -20q-70 0 -124 24t-91 65t-56.5 92t-19.5 105v20q0 56 19.5 107.5t56 91.5t89.5 63.5t120 23.5q89 0 151 -40t95 -105.5t33 -142.5v-58h-488v98h383l-63 -44q0 47 -12.5 79.5t-37 49.5t-61.5 17q-36 0 -62.5 -16.5t-40.5 -50t-14 -84.5q0 -46 13 -79.5t40 -51.5
t70 -18q38 0 62.5 13t34.5 35h166q-12 -56 -47.5 -100t-90 -69t-125.5 -25zM209 626q-49 0 -70.5 26.5t-21.5 65.5t21.5 65.5t70.5 26.5t70.5 -26.5t21.5 -65.5t-21.5 -65.5t-70.5 -26.5zM429 626q-49 0 -70.5 26.5t-21.5 65.5t21.5 65.5t70.5 26.5t70.5 -26.5t21.5 -65.5
t-21.5 -65.5t-70.5 -26.5z" />
    <glyph glyph-name="edotaccent" unicode="&#x117;" horiz-adv-x="628" 
d="M325 -20q-70 0 -124 24t-91 65t-56.5 92t-19.5 105v20q0 56 19.5 107.5t56 91.5t89.5 63.5t120 23.5q89 0 151 -40t95 -105.5t33 -142.5v-58h-488v98h383l-63 -44q0 47 -12.5 79.5t-37 49.5t-61.5 17q-36 0 -62.5 -16.5t-40.5 -50t-14 -84.5q0 -46 13 -79.5t40 -51.5
t70 -18q38 0 62.5 13t34.5 35h166q-12 -56 -47.5 -100t-90 -69t-125.5 -25zM319 626q-49 0 -70.5 26.5t-21.5 65.5t21.5 65.5t70.5 26.5t70.5 -26.5t21.5 -65.5t-21.5 -65.5t-70.5 -26.5z" />
    <glyph glyph-name="egrave" unicode="&#xe8;" horiz-adv-x="628" 
d="M325 -20q-70 0 -124 24t-91 65t-56.5 92t-19.5 105v20q0 56 19.5 107.5t56 91.5t89.5 63.5t120 23.5q89 0 151 -40t95 -105.5t33 -142.5v-58h-488v98h383l-63 -44q0 47 -12.5 79.5t-37 49.5t-61.5 17q-36 0 -62.5 -16.5t-40.5 -50t-14 -84.5q0 -46 13 -79.5t40 -51.5
t70 -18q38 0 62.5 13t34.5 35h166q-12 -56 -47.5 -100t-90 -69t-125.5 -25zM237 612l-114 212h190l88 -212h-164z" />
    <glyph glyph-name="eight" unicode="8" horiz-adv-x="677" 
d="M338 -22q-91 0 -158.5 25.5t-104.5 75.5t-37 123q0 47 14.5 82.5t41 60.5t63.5 38v14q-28 12 -50.5 32t-35 50t-12.5 71q0 69 36 113.5t99.5 66.5t143.5 22q81 0 144 -22t99 -66.5t36 -113.5q0 -41 -12.5 -71t-34.5 -50t-51 -32v-14q37 -13 64 -38t41.5 -60.5t14.5 -82.5
q0 -73 -37 -123t-104.5 -75.5t-159.5 -25.5zM338 130q36 0 63 10.5t42.5 32t15.5 53.5t-15 53t-42.5 31.5t-63.5 10.5q-35 0 -62.5 -10.5t-42.5 -31.5t-15 -53t15 -53.5t42.5 -32t62.5 -10.5zM338 457q47 0 73 19t26 53q0 35 -26 53t-73 18t-73 -18.5t-26 -52.5t26.5 -53
t72.5 -19z" />
    <glyph glyph-name="eight.dnom" horiz-adv-x="405" 
d="M202 -13q-76 0 -124.5 31.5t-48.5 95.5q0 34 14.5 58t45.5 38v8q-25 11 -37 32t-12 49q0 40 22 65.5t59 37.5t81 12q45 0 82 -12.5t58.5 -37.5t21.5 -65q0 -28 -12.5 -49t-37.5 -32v-8q31 -13 46.5 -37t15.5 -59q0 -65 -49 -96t-125 -31zM202 85q26 0 43.5 9t17.5 34
q0 23 -17 32t-44 9q-26 0 -43.5 -9t-17.5 -32q0 -25 17.5 -34t43.5 -9zM202 257q23 0 34.5 7t11.5 23q0 17 -13 23t-33 6q-21 0 -34 -6.5t-13 -22.5t12.5 -23t34.5 -7z" />
    <glyph glyph-name="eight.numr" horiz-adv-x="405" 
d="M202 242q-76 0 -124.5 31.5t-48.5 95.5q0 34 14.5 58t45.5 38v8q-25 11 -37 32t-12 49q0 40 22 65.5t59 37.5t81 12q45 0 82 -12.5t58.5 -37.5t21.5 -65q0 -28 -12.5 -49t-37.5 -32v-8q31 -13 46.5 -37t15.5 -59q0 -65 -49 -96t-125 -31zM202 340q26 0 43.5 9t17.5 34
q0 23 -17 32t-44 9q-26 0 -43.5 -9t-17.5 -32q0 -25 17.5 -34t43.5 -9zM202 512q23 0 34.5 7t11.5 23q0 17 -13 23t-33 6q-21 0 -34 -6.5t-13 -22.5t12.5 -23t34.5 -7z" />
    <glyph glyph-name="eight.tnum" horiz-adv-x="676" 
d="M338 -22q-91 0 -158.5 25.5t-104.5 75.5t-37 123q0 46 14.5 82t41.5 61t64 38v14q-29 12 -51.5 32t-35 50t-12.5 71q0 69 36 113.5t99 66.5t144 22q82 0 144.5 -22t98.5 -66.5t36 -113.5q0 -41 -12.5 -71t-35 -50t-51.5 -32v-14q37 -13 64 -38t41.5 -60.5t14.5 -82.5
q0 -73 -37 -123t-104 -75.5t-159 -25.5zM338 130q35 0 62 10.5t42.5 31.5t15.5 54t-15 54t-42 31t-63 10q-35 0 -62.5 -10t-42.5 -31t-15 -54t15.5 -54t42.5 -31.5t62 -10.5zM338 457q47 0 73 18.5t26 53.5t-26 53t-73 18t-73 -18t-26 -53t26.5 -53.5t72.5 -18.5z" />
    <glyph glyph-name="ellipsis" unicode="&#x2026;" horiz-adv-x="872" 
d="M48 0v198h196v-198h-196zM338 0v198h196v-198h-196zM628 0v198h196v-198h-196z" />
    <glyph glyph-name="emacron" unicode="&#x113;" horiz-adv-x="628" 
d="M325 -20q-70 0 -124 24t-91 65t-56.5 92t-19.5 105v20q0 56 19.5 107.5t56 91.5t89.5 63.5t120 23.5q89 0 151 -40t95 -105.5t33 -142.5v-58h-488v98h383l-63 -44q0 47 -12.5 79.5t-37 49.5t-61.5 17q-36 0 -62.5 -16.5t-40.5 -50t-14 -84.5q0 -46 13 -79.5t40 -51.5
t70 -18q38 0 62.5 13t34.5 35h166q-12 -56 -47.5 -100t-90 -69t-125.5 -25zM139 642v126h360v-126h-360z" />
    <glyph glyph-name="emdash" unicode="&#x2014;" horiz-adv-x="918" 
d="M18 216v136h882v-136h-882z" />
    <glyph glyph-name="emdash.case" horiz-adv-x="918" 
d="M18 290v136h882v-136h-882z" />
    <glyph glyph-name="endash" unicode="&#x2013;" horiz-adv-x="530" 
d="M18 216v136h494v-136h-494z" />
    <glyph glyph-name="endash.case" horiz-adv-x="530" 
d="M18 290v136h494v-136h-494z" />
    <glyph glyph-name="eng" unicode="&#x14b;" horiz-adv-x="656" 
d="M312 -204v152h46q36 0 48 14t12 38v33h182v-33q0 -106 -58.5 -155t-187.5 -49h-42zM66 0v552h144v-237h-8q0 86 22 142.5t65.5 84.5t105.5 28h8q94 0 145.5 -62.5t51.5 -191.5v-316h-182v321q0 38 -22.5 62.5t-61.5 24.5t-62.5 -24.5t-23.5 -64.5v-319h-182z" />
    <glyph glyph-name="eogonek" unicode="&#x119;" horiz-adv-x="628" 
d="M325 -20q-70 0 -124 24t-91 65t-56.5 92t-19.5 105v20q0 56 19.5 107.5t56 91.5t89.5 63.5t120 23.5q89 0 151 -40t95 -105.5t33 -142.5v-58h-488v98h383l-63 -44q0 47 -12.5 79.5t-37 49.5t-61.5 17q-36 0 -62.5 -16.5t-40.5 -50t-14 -84.5q0 -46 13 -79.5t40 -51.5
t70 -18q38 0 62.5 13t34.5 35h166q-12 -56 -47.5 -100t-90 -69t-125.5 -25zM485 -182q-66 0 -105.5 35t-39.5 95q0 46 18.5 81.5t58.5 76.5l33 34l78 -80l-33 -36q-11 -12 -18 -23.5t-7 -24.5q0 -14 10.5 -22t28.5 -8q25 0 41 7v-128q-10 -3 -29.5 -5t-35.5 -2z" />
    <glyph glyph-name="equal" unicode="=" horiz-adv-x="590" 
d="M44 370v148h502v-148h-502zM44 142v148h502v-148h-502z" />
    <glyph glyph-name="equal.tnum" horiz-adv-x="676" 
d="M70 370v148h536v-148h-536zM70 142v148h536v-148h-536z" />
    <glyph glyph-name="eth" unicode="&#xf0;" horiz-adv-x="682" 
d="M342 -18q-71 0 -128 20t-97 55.5t-61.5 83.5t-21.5 103v16q0 78 35.5 133t95 84t130.5 29q54 0 101 -17t79 -49.5t39 -80.5h-12q-1 96 -24 151t-51 76q-20 15 -53 22.5t-74 7.5q-33 0 -67.5 -3.5t-67.5 -8.5v136q34 6 68.5 9t65.5 3q122 0 198.5 -46.5t112.5 -134.5
t36 -213v-26q0 -111 -36 -189.5t-103.5 -119.5t-164.5 -41zM343 134q39 0 67.5 13.5t44 40t15.5 64.5q0 39 -16 66.5t-44.5 41.5t-66.5 14q-37 0 -66 -14t-45 -41.5t-16 -66.5q0 -38 15.5 -64.5t44 -40t67.5 -13.5zM388 504l-63 64l229 229l63 -64z" />
    <glyph glyph-name="uni1EBD" unicode="&#x1ebd;" horiz-adv-x="628" 
d="M325 -20q-70 0 -124 24t-91 65t-56.5 92t-19.5 105v20q0 56 19.5 107.5t56 91.5t89.5 63.5t120 23.5q89 0 151 -40t95 -105.5t33 -142.5v-58h-488v98h383l-63 -44q0 47 -12.5 79.5t-37 49.5t-61.5 17q-36 0 -62.5 -16.5t-40.5 -50t-14 -84.5q0 -46 13 -79.5t40 -51.5
t70 -18q38 0 62.5 13t34.5 35h166q-12 -56 -47.5 -100t-90 -69t-125.5 -25zM401 618q-31 0 -52 8t-37.5 18t-34 18t-41.5 8q-28 0 -49 -10.5t-36 -24.5l-26 124q18 18 44.5 31.5t66.5 13.5q32 0 52.5 -8t37 -18t34 -18t41.5 -8q29 0 50 10.5t36 24.5l26 -124
q-18 -18 -45 -31.5t-67 -13.5z" />
    <glyph glyph-name="Euro" unicode="&#x20ac;" horiz-adv-x="716" 
d="M398 -18q-154 0 -235.5 94.5t-81.5 281.5v14q0 188 79.5 282t232.5 94q96 0 159.5 -32.5t96 -90t35.5 -132.5h-160q-4 50 -35.5 79.5t-95.5 29.5q-81 0 -115.5 -54t-34.5 -183t36.5 -183t118.5 -54q65 0 96.5 29.5t35.5 79.5h160q-3 -74 -35.5 -132t-96 -90.5
t-160.5 -32.5zM10 239v86h431v-86h-431zM28 391v86h431v-86h-431z" />
    <glyph glyph-name="Euro.tnum" horiz-adv-x="676" 
d="M388 -18q-151 0 -229 95t-78 281v14q0 186 76 281t225 95q94 0 154.5 -33t91.5 -90.5t34 -131.5h-160q-4 50 -32 79.5t-88 29.5q-77 0 -108 -55t-31 -182t33 -182t112 -55q62 0 90 30t32 79h160q-3 -74 -34 -131.5t-92 -90.5t-156 -33zM8 239v86h421v-86h-421zM26 391v86
h421v-86h-421z" />
    <glyph glyph-name="exclam" unicode="!" horiz-adv-x="324" 
d="M69 256v474h186v-474h-186zM56 0v174h212v-174h-212z" />
    <glyph glyph-name="exclamdown" unicode="&#xa1;" horiz-adv-x="324" 
d="M69 296v-474h186v474h-186zM56 552v-174h212v174h-212z" />
    <glyph glyph-name="exclamdown.case" horiz-adv-x="324" 
d="M69 474v-474h186v474h-186zM56 730v-174h212v174h-212z" />
    <glyph glyph-name="f" unicode="f" horiz-adv-x="383" 
d="M78 0v550q0 97 56 144.5t166 47.5h71v-134h-75q-24 0 -37 -13t-13 -37v-558h-168zM16 408v132h363v-132h-363z" />
    <glyph glyph-name="f.salt" horiz-adv-x="402" 
d="M76 0v586q0 78 48.5 122t133.5 44q80 0 130 -41t50 -115h-144q0 13 -5.5 21t-19.5 8q-13 0 -19 -8t-6 -21v-596h-168zM16 408v132h368v-132h-368z" />
    <glyph glyph-name="f_f.salt" horiz-adv-x="780" 
d="M76 0v580q0 77 46.5 121.5t128.5 44.5q78 0 125.5 -41.5t47.5 -114.5h-134q0 12 -5 20.5t-18 8.5t-18 -8.5t-5 -20.5v-590h-168zM454 0v586q0 78 48.5 122t133.5 44q80 0 130 -41t50 -115h-144q0 13 -5.5 21t-19.5 8q-13 0 -19 -8t-6 -21v-596h-168zM16 408v132h746v-132
h-746z" />
    <glyph glyph-name="f_f_i.salt" horiz-adv-x="1078" 
d="M76 0v580q0 77 46.5 121.5t128.5 44.5q78 0 125.5 -41.5t47.5 -114.5h-134q0 12 -5 20.5t-18 8.5t-18 -8.5t-5 -20.5v-590h-168zM454 0v586q0 77 45.5 121.5t128.5 44.5q79 0 126.5 -41.5t47.5 -114.5h-134q0 12 -5.5 20.5t-17.5 8.5t-17.5 -8.5t-5.5 -20.5v-596h-168z
M828 0v552h182v-552h-182zM16 408v132h718v-132h-718zM778 420v132h232v-132h-232zM916 600q-49 0 -71.5 25t-22.5 64t22.5 64t71.5 25t71.5 -25t22.5 -64t-22.5 -64t-71.5 -25z" />
    <glyph glyph-name="f_f_j.salt" horiz-adv-x="1079" 
d="M76 0v580q0 77 46.5 121.5t128.5 44.5q78 0 125.5 -41.5t47.5 -114.5h-134q0 12 -5 20.5t-18 8.5t-18 -8.5t-5 -20.5v-590h-168zM454 0v586q0 77 45.5 121.5t128.5 44.5q79 0 126.5 -41.5t47.5 -114.5h-134q0 12 -5.5 20.5t-17.5 8.5t-17.5 -8.5t-5.5 -20.5v-596h-168z
M741 -204v152h26q36 0 55 19t19 55v530h176v-528q0 -83 -27 -133t-83 -72.5t-144 -22.5h-22zM16 408v132h722v-132h-722zM782 420v132h235v-132h-235zM923 600q-49 0 -71.5 25t-22.5 64t22.5 64t71.5 25t71.5 -25t22.5 -64t-22.5 -64t-71.5 -25z" />
    <glyph glyph-name="f_f_l.salt" horiz-adv-x="1108" 
d="M76 0v580q0 77 46.5 121.5t128.5 44.5q78 0 125.5 -41.5t47.5 -114.5h-134q0 12 -5 20.5t-18 8.5t-18 -8.5t-5 -20.5v-590h-168zM454 0v586q0 77 45.5 121.5t128.5 44.5q79 0 126.5 -41.5t47.5 -114.5h-134q0 12 -5.5 20.5t-17.5 8.5t-17.5 -8.5t-5.5 -20.5v-596h-168z
M1020 -6q-76 0 -118.5 20t-60 61.5t-17.5 107.5v547h182v-547q0 -16 9 -24.5t24 -8.5h47v-156h-66zM16 408v132h736v-132h-736z" />
    <glyph glyph-name="f_j.salt" horiz-adv-x="700" 
d="M76 0v586q0 77 45.5 121.5t128.5 44.5q79 0 126.5 -41.5t47.5 -114.5h-134q0 12 -5.5 20.5t-17.5 8.5t-17.5 -8.5t-5.5 -20.5v-596h-168zM362 -204v152h26q36 0 55 19t19 55v530h176v-528q0 -83 -27 -133t-83 -72.5t-144 -22.5h-22zM16 408v132h344v-132h-344zM404 420
v132h234v-132h-234zM544 600q-49 0 -71.5 25t-22.5 64t22.5 64t71.5 25t71.5 -25t22.5 -64t-22.5 -64t-71.5 -25z" />
    <glyph glyph-name="fi.salt" horiz-adv-x="700" 
d="M76 0v586q0 77 45.5 121.5t128.5 44.5q79 0 126.5 -41.5t47.5 -114.5h-134q0 12 -5.5 20.5t-17.5 8.5t-17.5 -8.5t-5.5 -20.5v-596h-168zM16 408v132h340v-132h-340zM450 0v552h182v-552h-182zM400 420v132h232v-132h-232zM538 600q-49 0 -71.5 25t-22.5 64t22.5 64
t71.5 25t71.5 -25t22.5 -64t-22.5 -64t-71.5 -25z" />
    <glyph glyph-name="five" unicode="5" horiz-adv-x="651" 
d="M329 -20q-88 0 -152.5 33.5t-99.5 90.5t-35 128h180q0 -30 14 -52t39 -34t56 -12q36 0 60.5 15t37 41t12.5 59t-12.5 59t-36.5 41t-59 15t-61 -15.5t-38 -38.5h-175l37 420h463v-160h-395l76 45l-20 -221l-42 10q30 38 72.5 65t117.5 27q78 0 134.5 -31.5t87.5 -86
t31 -124.5v-12q0 -70 -34 -129.5t-99 -96t-159 -36.5z" />
    <glyph glyph-name="five.dnom" horiz-adv-x="389" 
d="M197 -12q-50 0 -87.5 19.5t-58 51.5t-20.5 71h115q0 -21 16.5 -32t35.5 -11q23 0 39.5 14.5t16.5 38.5q0 23 -16 38t-39 15q-18 0 -31.5 -7.5t-18.5 -18.5h-112l21 235h273v-102h-224l44 30l-10 -108l-25 9q15 20 39 34t64 14q45 0 77.5 -18t50.5 -49t18 -69v-8
q0 -38 -19.5 -71.5t-57 -54.5t-91.5 -21z" />
    <glyph glyph-name="five.numr" horiz-adv-x="389" 
d="M197 243q-50 0 -87.5 19.5t-58 51.5t-20.5 71h115q0 -21 16.5 -32t35.5 -11q23 0 39.5 14.5t16.5 38.5q0 23 -16 38t-39 15q-18 0 -31.5 -7.5t-18.5 -18.5h-112l21 235h273v-102h-224l44 30l-10 -108l-25 9q15 20 39 34t64 14q45 0 77.5 -18t50.5 -49t18 -69v-8
q0 -38 -19.5 -71.5t-57 -54.5t-91.5 -21z" />
    <glyph glyph-name="five.tnum" horiz-adv-x="676" 
d="M344 -20q-88 0 -153.5 33.5t-101.5 90.5t-36 128h180q0 -30 14.5 -52t40.5 -34t58 -12q36 0 61.5 15t38.5 41t13 59t-13 59t-38 41t-60 15q-37 0 -64.5 -15.5t-38.5 -38.5h-176l37 420h472v-160h-398l70 45l-20 -221l-36 10q20 26 44.5 46.5t59 33t85.5 12.5
q78 0 135.5 -31.5t89 -86t31.5 -124.5v-12q0 -70 -34.5 -129.5t-100.5 -96t-160 -36.5z" />
    <glyph glyph-name="fl.salt" horiz-adv-x="730" 
d="M76 0v586q0 77 45.5 121.5t128.5 44.5q79 0 126.5 -41.5t47.5 -114.5h-134q0 12 -5.5 20.5t-17.5 8.5t-17.5 -8.5t-5.5 -20.5v-596h-168zM16 408v132h358v-132h-358zM642 -6q-76 0 -118.5 20t-60 61.5t-17.5 107.5v547h182v-547q0 -16 9 -24.5t24 -8.5h47v-156h-66z" />
    <glyph glyph-name="four" unicode="4" horiz-adv-x="682" 
d="M28 129v189l268 434l147 -93l-221 -360l15 -22h425v-148h-634zM411 0v529h172v-529h-172z" />
    <glyph glyph-name="four.dnom" horiz-adv-x="409" 
d="M23 64v123l152 247l90 -55l-125 -207l9 -14h241v-94h-367zM237 0v293h110v-293h-110z" />
    <glyph glyph-name="four.numr" horiz-adv-x="409" 
d="M23 319v123l152 247l90 -55l-125 -207l9 -14h241v-94h-367zM237 255v293h110v-293h-110z" />
    <glyph glyph-name="four.tnum" horiz-adv-x="676" 
d="M30 129v189l265 434l147 -93l-218 -360l15 -22h421v-148h-630zM410 0v529h172v-529h-172z" />
    <glyph glyph-name="uni2074" unicode="&#x2074;" horiz-adv-x="409" 
d="M23 484v123l152 247l90 -55l-125 -207l9 -14h241v-94h-367zM237 420v293h110v-293h-110z" />
    <glyph glyph-name="fraction" unicode="&#x2044;" horiz-adv-x="219" 
d="M-154 -22l416 702h120l-416 -702h-120z" />
    <glyph glyph-name="g" unicode="g" horiz-adv-x="690" 
d="M287 -221q-41 0 -84.5 3t-78.5 8v152q35 -4 78 -7.5t79 -3.5q62 0 101.5 13t58.5 40t19 69v112l28 60q-2 -70 -27 -121.5t-71.5 -79.5t-112.5 -28q-56 0 -101 20t-76.5 56.5t-48.5 86.5t-17 109v24q0 59 18 109.5t52 88t80.5 58t103.5 20.5q66 0 114 -29.5t75 -85.5
t29 -136l-20 -7v242h144v-487q0 -102 -38 -165t-114.5 -92t-190.5 -29zM338 146q33 0 59.5 15t42.5 43.5t16 68.5v24q0 39 -16.5 66t-43.5 41t-58 14q-36 0 -63.5 -17t-43 -48t-15.5 -73t15.5 -72t43 -46t63.5 -16z" />
    <glyph glyph-name="gbreve" unicode="&#x11f;" horiz-adv-x="690" 
d="M287 -221q-41 0 -84.5 3t-78.5 8v152q35 -4 78 -7.5t79 -3.5q62 0 101.5 13t58.5 40t19 69v112l28 60q-2 -70 -27 -121.5t-71.5 -79.5t-112.5 -28q-56 0 -101 20t-76.5 56.5t-48.5 86.5t-17 109v24q0 59 18 109.5t52 88t80.5 58t103.5 20.5q66 0 114 -29.5t75 -85.5
t29 -136l-20 -7v242h144v-487q0 -102 -38 -165t-114.5 -92t-190.5 -29zM338 146q33 0 59.5 15t42.5 43.5t16 68.5v24q0 39 -16.5 66t-43.5 41t-58 14q-36 0 -63.5 -17t-43 -48t-15.5 -73t15.5 -72t43 -46t63.5 -16zM326 606q-90 0 -139.5 53t-52.5 165h134q2 -52 16 -71
t42 -19t43.5 19t16.5 71h130q-3 -112 -51.5 -165t-138.5 -53z" />
    <glyph glyph-name="gcircumflex" unicode="&#x11d;" horiz-adv-x="690" 
d="M287 -221q-41 0 -84.5 3t-78.5 8v152q35 -4 78 -7.5t79 -3.5q62 0 101.5 13t58.5 40t19 69v112l28 60q-2 -70 -27 -121.5t-71.5 -79.5t-112.5 -28q-56 0 -101 20t-76.5 56.5t-48.5 86.5t-17 109v24q0 59 18 109.5t52 88t80.5 58t103.5 20.5q66 0 114 -29.5t75 -85.5
t29 -136l-20 -7v242h144v-487q0 -102 -38 -165t-114.5 -92t-190.5 -29zM338 146q33 0 59.5 15t42.5 43.5t16 68.5v24q0 39 -16.5 66t-43.5 41t-58 14q-36 0 -63.5 -17t-43 -48t-15.5 -73t15.5 -72t43 -46t63.5 -16zM113 612l101 212h224l103 -212h-154l-56 128h-14l-54 -128
h-150z" />
    <glyph glyph-name="uni0123" unicode="&#x123;" horiz-adv-x="690" 
d="M287 -221q-41 0 -84.5 3t-78.5 8v152q35 -4 78 -7.5t79 -3.5q62 0 101.5 13t58.5 40t19 69v112l28 60q-2 -70 -27 -121.5t-71.5 -79.5t-112.5 -28q-56 0 -101 20t-76.5 56.5t-48.5 86.5t-17 109v24q0 59 18 109.5t52 88t80.5 58t103.5 20.5q66 0 114 -29.5t75 -85.5
t29 -136l-20 -7v242h144v-487q0 -102 -38 -165t-114.5 -92t-190.5 -29zM338 146q33 0 59.5 15t42.5 43.5t16 68.5v24q0 39 -16.5 66t-43.5 41t-58 14q-36 0 -63.5 -17t-43 -48t-15.5 -73t15.5 -72t43 -46t63.5 -16zM331 594q-48 0 -74.5 32.5t-26.5 88.5v6q0 70 41.5 106.5
t109.5 36.5h28v-88h-30q-31 0 -43 -14t-12 -34v-27l-27 3q6 14 19.5 23.5t35.5 9.5q29 0 47 -18t18 -50q0 -40 -26 -57.5t-60 -17.5z" />
    <glyph glyph-name="gdotaccent" unicode="&#x121;" horiz-adv-x="690" 
d="M287 -221q-41 0 -84.5 3t-78.5 8v152q35 -4 78 -7.5t79 -3.5q62 0 101.5 13t58.5 40t19 69v112l28 60q-2 -70 -27 -121.5t-71.5 -79.5t-112.5 -28q-56 0 -101 20t-76.5 56.5t-48.5 86.5t-17 109v24q0 59 18 109.5t52 88t80.5 58t103.5 20.5q66 0 114 -29.5t75 -85.5
t29 -136l-20 -7v242h144v-487q0 -102 -38 -165t-114.5 -92t-190.5 -29zM338 146q33 0 59.5 15t42.5 43.5t16 68.5v24q0 39 -16.5 66t-43.5 41t-58 14q-36 0 -63.5 -17t-43 -48t-15.5 -73t15.5 -72t43 -46t63.5 -16zM325 626q-49 0 -70.5 26.5t-21.5 65.5t21.5 65.5
t70.5 26.5t70.5 -26.5t21.5 -65.5t-21.5 -65.5t-70.5 -26.5z" />
    <glyph glyph-name="germandbls" unicode="&#xdf;" horiz-adv-x="693" 
d="M406 -14q-28 0 -54 3.5t-44 9.5v146q18 -5 38.5 -9t39.5 -4q43 0 70.5 22t27.5 68q0 26 -11.5 48.5t-36.5 36t-66 13.5h-44v132h33q22 0 37.5 9t23.5 25.5t8 36.5q0 24 -10 42t-28 27.5t-42 9.5t-44.5 -11t-33 -32.5t-12.5 -55.5v-503h-182v497q0 121 73 186t197 65h4
q79 0 137 -27t90.5 -75t32.5 -111q0 -47 -20.5 -84.5t-64.5 -59t-114 -21.5v44q83 0 139.5 -25t86 -71.5t29.5 -111.5q0 -77 -36.5 -125.5t-95.5 -71.5t-128 -23zM16 392v132h90v-132h-90z" />
    <glyph glyph-name="grave" unicode="`" horiz-adv-x="300" 
d="M114 612l-114 212h190l88 -212h-164z" />
    <glyph glyph-name="gravecomb" unicode="&#x300;" 
d="M114 612l-114 212h190l88 -212h-164z" />
    <glyph glyph-name="gravecomb.case" 
d="M121 784l-121 184h194l103 -184h-176z" />
    <glyph glyph-name="greater" unicode="&#x3e;" horiz-adv-x="598" 
d="M68 66v154l462 138v-147zM530 294l-462 138v158l462 -145v-151zM400 289v82h30v-82h-30z" />
    <glyph glyph-name="greaterequal" unicode="&#x2265;" horiz-adv-x="598" 
d="M68 21v142h462v-142h-462zM68 210v146l462 106v-128zM530 406l-462 105v150l462 -123v-132zM386 397v82h30v-82h-30z" />
    <glyph glyph-name="guillemotleft" unicode="&#xab;" horiz-adv-x="686" 
d="M144 39l-132 195v50l138 199h208l-144 -203v-38l144 -203h-214zM454 39l-132 195v50l138 199h208l-144 -203v-38l144 -203h-214z" />
    <glyph glyph-name="guillemotleft.case" horiz-adv-x="686" 
d="M146 141l-136 198v50l142 202h208l-148 -206v-38l148 -206h-214zM456 141l-136 198v50l142 202h208l-148 -206v-38l148 -206h-214z" />
    <glyph glyph-name="guillemotright" unicode="&#xbb;" horiz-adv-x="686" 
d="M542 483l132 -195v-50l-138 -199h-208l144 203v38l-144 203h214zM232 483l132 -195v-50l-138 -199h-208l144 203v38l-144 203h214z" />
    <glyph glyph-name="guillemotright.case" horiz-adv-x="686" 
d="M540 591l136 -198v-50l-142 -202h-208l148 206v38l-148 206h214zM230 591l136 -198v-50l-142 -202h-208l148 206v38l-148 206h214z" />
    <glyph glyph-name="guilsinglleft" unicode="&#x2039;" horiz-adv-x="376" 
d="M144 39l-132 195v50l138 199h208l-144 -203v-38l144 -203h-214z" />
    <glyph glyph-name="guilsinglleft.case" horiz-adv-x="376" 
d="M146 141l-136 198v50l142 202h208l-148 -206v-38l148 -206h-214z" />
    <glyph glyph-name="guilsinglright" unicode="&#x203a;" horiz-adv-x="376" 
d="M232 483l132 -195v-50l-138 -199h-208l144 203v38l-144 203h214z" />
    <glyph glyph-name="guilsinglright.case" horiz-adv-x="376" 
d="M230 591l136 -198v-50l-142 -202h-208l148 206v38l-148 206h214z" />
    <glyph glyph-name="h" unicode="h" horiz-adv-x="656" 
d="M66 0v730h182v-416h-24q0 84 21 141t61.5 86t100.5 29h8q90 0 137.5 -65t47.5 -191v-314h-182v321q0 38 -23 62.5t-61 24.5t-62 -24.5t-24 -64.5v-319h-182z" />
    <glyph glyph-name="hbar" unicode="&#x127;" horiz-adv-x="656" 
d="M66 0v730h182v-416h-24q0 84 21 141t61.5 86t100.5 29h8q90 0 137.5 -65t47.5 -191v-314h-182v321q0 38 -23 62.5t-61 24.5t-62 -24.5t-24 -64.5v-319h-182zM12 590v94h372v-94h-372z" />
    <glyph glyph-name="uni030B" unicode="&#x30b;" 
d="M188 612l84 212h138l-92 -212h-130zM0 612l84 212h138l-92 -212h-130z" />
    <glyph glyph-name="uni030B.case" 
d="M184 784l91 184h144l-99 -184h-136zM0 784l91 184h144l-99 -184h-136z" />
    <glyph glyph-name="hyphen" unicode="-" horiz-adv-x="510" 
d="M36 203v162h438v-162h-438z" />
    <glyph glyph-name="hyphen.case" horiz-adv-x="510" 
d="M36 291v162h438v-162h-438z" />
    <glyph glyph-name="i" unicode="i" horiz-adv-x="342" 
d="M92 0v552h182v-552h-182zM22 420v132h252v-132h-252zM167 596q-50 0 -73.5 25.5t-23.5 65.5t23.5 65.5t72.5 25.5q50 0 73 -25.5t23 -65.5t-23 -65.5t-72 -25.5z" />
    <glyph glyph-name="iacute" unicode="&#xed;" horiz-adv-x="342" 
d="M92 0v552h182v-552h-182zM22 420v132h252v-132h-252zM70 612l90 212h186l-116 -212h-160z" />
    <glyph glyph-name="ibreve" unicode="&#x12d;" horiz-adv-x="342" 
d="M92 0v552h182v-552h-182zM22 420v132h252v-132h-252zM160 606q-90 0 -139.5 53t-52.5 165h134q2 -52 16 -71t42 -19t43.5 19t16.5 71h130q-3 -112 -51.5 -165t-138.5 -53z" />
    <glyph glyph-name="icircumflex" unicode="&#xee;" horiz-adv-x="342" 
d="M92 0v552h182v-552h-182zM22 420v132h252v-132h-252zM-53 612l101 212h224l103 -212h-154l-56 128h-14l-54 -128h-150z" />
    <glyph glyph-name="idieresis" unicode="&#xef;" horiz-adv-x="342" 
d="M92 0v552h182v-552h-182zM22 420v132h252v-132h-252zM49 626q-49 0 -70.5 26.5t-21.5 65.5t21.5 65.5t70.5 26.5t70.5 -26.5t21.5 -65.5t-21.5 -65.5t-70.5 -26.5zM269 626q-49 0 -70.5 26.5t-21.5 65.5t21.5 65.5t70.5 26.5t70.5 -26.5t21.5 -65.5t-21.5 -65.5
t-70.5 -26.5z" />
    <glyph glyph-name="i.loclTRK" horiz-adv-x="342" 
d="M92 0v552h182v-552h-182zM22 420v132h252v-132h-252zM159 626q-49 0 -70.5 26.5t-21.5 65.5t21.5 65.5t70.5 26.5t70.5 -26.5t21.5 -65.5t-21.5 -65.5t-70.5 -26.5z" />
    <glyph glyph-name="dotlessi" unicode="&#x131;" horiz-adv-x="342" 
d="M92 0v552h182v-552h-182zM22 420v132h252v-132h-252z" />
    <glyph glyph-name="igrave" unicode="&#xec;" horiz-adv-x="342" 
d="M92 0v552h182v-552h-182zM22 420v132h252v-132h-252zM77 612l-114 212h190l88 -212h-164z" />
    <glyph glyph-name="imacron" unicode="&#x12b;" horiz-adv-x="342" 
d="M92 0v552h182v-552h-182zM22 420v132h252v-132h-252zM-21 642v126h360v-126h-360z" />
    <glyph glyph-name="iogonek" unicode="&#x12f;" horiz-adv-x="342" 
d="M92 0v552h182v-552h-182zM22 420v132h252v-132h-252zM167 596q-50 0 -73.5 25.5t-23.5 65.5t23.5 65.5t72.5 25.5q50 0 73 -25.5t23 -65.5t-23 -65.5t-72 -25.5zM211 -242q-66 0 -105.5 35t-39.5 95q0 46 18.5 81.5t58.5 76.5l33 34l78 -80l-33 -36q-11 -12 -18 -23.5
t-7 -24.5q0 -14 10.5 -22t28.5 -8q25 0 41 7v-128q-10 -3 -29.5 -5t-35.5 -2z" />
    <glyph glyph-name="itilde" unicode="&#x129;" horiz-adv-x="342" 
d="M92 0v552h182v-552h-182zM22 420v132h252v-132h-252zM241 618q-31 0 -52 8t-37.5 18t-34 18t-41.5 8q-28 0 -49 -10.5t-36 -24.5l-26 124q18 18 44.5 31.5t66.5 13.5q32 0 52.5 -8t37 -18t34 -18t41.5 -8q29 0 50 10.5t36 24.5l26 -124q-18 -18 -45 -31.5t-67 -13.5z" />
    <glyph glyph-name="j" unicode="j" horiz-adv-x="346" 
d="M6 -206v152h28q36 0 55 19t19 55v532h176v-530q0 -83 -27 -133t-83 -72.5t-144 -22.5h-24zM34 420v132h250v-132h-250zM176 596q-49 0 -72.5 25.5t-23.5 65.5t23.5 65.5t72.5 25.5q50 0 73 -25.5t23 -65.5t-23 -65.5t-73 -25.5z" />
    <glyph glyph-name="jcircumflex" unicode="&#x135;" horiz-adv-x="346" 
d="M6 -206v152h28q36 0 55 19t19 55v532h176v-530q0 -83 -27 -133t-83 -72.5t-144 -22.5h-24zM34 420v132h250v-132h-250zM-51 612l101 212h224l103 -212h-154l-56 128h-14l-54 -128h-150z" />
    <glyph glyph-name="uni0237" unicode="&#x237;" horiz-adv-x="346" 
d="M6 -206v152h28q36 0 55 19t19 55v532h176v-530q0 -83 -27 -133t-83 -72.5t-144 -22.5h-24zM34 420v132h250v-132h-250z" />
    <glyph glyph-name="k" unicode="k" horiz-adv-x="661" 
d="M458 0l-163 258h-74l216 294h190l-205 -277v88l239 -363h-203zM66 0v730h182v-730h-182z" />
    <glyph glyph-name="uni0137" unicode="&#x137;" horiz-adv-x="661" 
d="M458 0l-163 258h-74l216 294h190l-205 -277v88l239 -363h-203zM66 0v730h182v-730h-182zM347 -42q48 0 74.5 -32.5t26.5 -88.5v-6q0 -70 -41.5 -106.5t-109.5 -36.5h-28v88h30q31 0 43 14t12 34v27l27 -3q-6 -14 -19.5 -23.5t-35.5 -9.5q-29 0 -47 18t-18 50
q0 40 26 57.5t60 17.5z" />
    <glyph glyph-name="l" unicode="l" horiz-adv-x="324" 
d="M74 0v730h182v-730h-182zM12 598v132h244v-132h-244z" />
    <glyph glyph-name="l.salt" horiz-adv-x="336" 
d="M248 -6q-76 0 -118.5 20t-60 61.5t-17.5 107.5v547h182v-547q0 -16 9 -24.5t24 -8.5h47v-156h-66z" />
    <glyph glyph-name="lacute" unicode="&#x13a;" horiz-adv-x="324" 
d="M74 0v730h182v-730h-182zM12 598v132h244v-132h-244zM43 784l124 184h192l-142 -184h-174z" />
    <glyph glyph-name="lacute.salt" horiz-adv-x="336" 
d="M248 -6q-76 0 -118.5 20t-60 61.5t-17.5 107.5v547h182v-547q0 -16 9 -24.5t24 -8.5h47v-156h-66zM48 784l124 184h192l-142 -184h-174z" />
    <glyph glyph-name="lcaron" unicode="&#x13e;" horiz-adv-x="324" 
d="M74 0v730h182v-730h-182zM12 598v132h244v-132h-244zM292 558v264h156l-18 -264h-138z" />
    <glyph glyph-name="lcaron.salt" horiz-adv-x="336" 
d="M248 -6q-76 0 -118.5 20t-60 61.5t-17.5 107.5v547h182v-547q0 -16 9 -24.5t24 -8.5h47v-156h-66zM270 558v264h156l-18 -264h-138z" />
    <glyph glyph-name="uni013C" unicode="&#x13c;" horiz-adv-x="324" 
d="M74 0v730h182v-730h-182zM12 598v132h244v-132h-244zM166 -42q48 0 74.5 -32.5t26.5 -88.5v-6q0 -70 -41.5 -106.5t-109.5 -36.5h-28v88h30q31 0 43 14t12 34v27l27 -3q-6 -14 -19.5 -23.5t-35.5 -9.5q-29 0 -47 18t-18 50q0 40 26 57.5t60 17.5z" />
    <glyph glyph-name="uni013C.salt" horiz-adv-x="336" 
d="M248 -6q-76 0 -118.5 20t-60 61.5t-17.5 107.5v547h182v-547q0 -16 9 -24.5t24 -8.5h47v-156h-66zM180 -42q48 0 74.5 -32.5t26.5 -88.5v-6q0 -70 -41.5 -106.5t-109.5 -36.5h-28v88h30q31 0 43 14t12 34v27l27 -3q-6 -14 -19.5 -23.5t-35.5 -9.5q-29 0 -47 18t-18 50
q0 40 26 57.5t60 17.5z" />
    <glyph glyph-name="less" unicode="&#x3c;" horiz-adv-x="598" 
d="M530 590v-154l-462 -138v147zM68 362l462 -138v-158l-462 145v151zM198 367v-82h-30v82h30z" />
    <glyph glyph-name="lessequal" unicode="&#x2264;" horiz-adv-x="590" 
d="M68 21v142h462v-142h-462zM530 210l-462 123v132l462 -105v-150zM68 409v128l462 124v-146zM182 392v82h30v-82h-30z" />
    <glyph glyph-name="logicalnot" unicode="&#xac;" horiz-adv-x="632" 
d="M44 250v148h544v-334h-138v268l82 -82h-488z" />
    <glyph glyph-name="lslash" unicode="&#x142;" horiz-adv-x="324" 
d="M9 181v132l128 70v-132zM193 279v132l124 67v-132zM74 0v730h182v-730h-182zM12 598v132h244v-132h-244z" />
    <glyph glyph-name="lslash.salt" horiz-adv-x="336" 
d="M5 181v132l128 70v-132zM186 279v132l122 66v-132zM248 -6q-76 0 -118.5 20t-60 61.5t-17.5 107.5v547h182v-547q0 -16 8.5 -24.5t24.5 -8.5h47v-156h-66z" />
    <glyph glyph-name="m" unicode="m" horiz-adv-x="988" 
d="M66 0v552h144v-238h-8q0 86 21.5 142.5t63.5 85t103 28.5h8q62 0 103.5 -28.5t63 -85t21.5 -142.5h-42q0 86 21.5 142.5t63.5 85t103 28.5h8q62 0 104.5 -28.5t65 -85t22.5 -142.5v-314h-182v319q0 38 -20.5 63.5t-58.5 25.5t-59.5 -25.5t-21.5 -65.5v-317h-182v319
q0 38 -20.5 63.5t-58.5 25.5t-59.5 -25.5t-21.5 -65.5v-317h-182z" />
    <glyph glyph-name="macron" unicode="&#xaf;" horiz-adv-x="300" 
d="M0 642v126h360v-126h-360z" />
    <glyph glyph-name="uni0304" unicode="&#x304;" 
d="M0 642v126h360v-126h-360z" />
    <glyph glyph-name="uni0304.case" 
d="M0 802v126h410v-126h-410z" />
    <glyph glyph-name="uni00B5" unicode="&#xb5;" horiz-adv-x="684" 
d="M54 -200v752h182v-325q0 -37 22 -60t59 -23q25 0 43.5 10.5t29 29.5t10.5 45v323h182v-363q0 -16 8.5 -24.5t24.5 -8.5h47v-156h-66q-71 0 -111 22t-56 66t-16 109l25 35h10q0 -85 -22 -140.5t-60.5 -82.5t-88.5 -27h-6q-36 0 -69.5 19.5t-54.5 52t-21 69.5l51 17
q0 -34 10 -69.5t20 -74t10 -83.5v-113h-163z" />
    <glyph glyph-name="minus" unicode="&#x2212;" horiz-adv-x="598" 
d="M44 270v148h510v-148h-510z" />
    <glyph glyph-name="minus.tnum" horiz-adv-x="676" 
d="M70 270v148h536v-148h-536z" />
    <glyph glyph-name="minute" unicode="&#x2032;" horiz-adv-x="270" 
d="M24 408l56 322h166l-56 -322h-166z" />
    <glyph glyph-name="multiply" unicode="&#xd7;" horiz-adv-x="598" 
d="M455 84l105 105l-417 416l-105 -105zM139 84l421 420l-101 101l-421 -420z" />
    <glyph glyph-name="multiply.tnum" horiz-adv-x="676" 
d="M167 73l443 442l-101 101l-443 -442zM505 73l105 105l-439 438l-105 -105z" />
    <glyph glyph-name="n" unicode="n" horiz-adv-x="656" 
d="M66 0v552h144v-237h-8q0 86 22 142.5t65.5 84.5t105.5 28h8q94 0 145.5 -62.5t51.5 -191.5v-316h-182v321q0 38 -22.5 62.5t-61.5 24.5t-62.5 -24.5t-23.5 -64.5v-319h-182z" />
    <glyph glyph-name="nacute" unicode="&#x144;" horiz-adv-x="656" 
d="M66 0v552h144v-237h-8q0 86 22 142.5t65.5 84.5t105.5 28h8q94 0 145.5 -62.5t51.5 -191.5v-316h-182v321q0 38 -22.5 62.5t-61.5 24.5t-62.5 -24.5t-23.5 -64.5v-319h-182zM246 612l90 212h186l-116 -212h-160z" />
    <glyph glyph-name="uni00A0" unicode="&#xa0;" horiz-adv-x="204" 
 />
    <glyph glyph-name="ncaron" unicode="&#x148;" horiz-adv-x="656" 
d="M66 0v552h144v-237h-8q0 86 22 142.5t65.5 84.5t105.5 28h8q94 0 145.5 -62.5t51.5 -191.5v-316h-182v321q0 38 -22.5 62.5t-61.5 24.5t-62.5 -24.5t-23.5 -64.5v-319h-182zM214 612l-101 212h154l56 -128h14l50 128h150l-95 -212h-228z" />
    <glyph glyph-name="uni0146" unicode="&#x146;" horiz-adv-x="656" 
d="M66 0v552h144v-237h-8q0 86 22 142.5t65.5 84.5t105.5 28h8q94 0 145.5 -62.5t51.5 -191.5v-316h-182v321q0 38 -22.5 62.5t-61.5 24.5t-62.5 -24.5t-23.5 -64.5v-319h-182zM334 -42q48 0 74.5 -32.5t26.5 -88.5v-6q0 -70 -41.5 -106.5t-109.5 -36.5h-28v88h30
q31 0 43 14t12 34v27l27 -3q-6 -14 -19.5 -23.5t-35.5 -9.5q-29 0 -47 18t-18 50q0 40 26 57.5t60 17.5z" />
    <glyph glyph-name="nine" unicode="9" horiz-adv-x="696" 
d="M334 752q81 0 140.5 -26.5t98 -74.5t57 -111.5t18.5 -136.5v-40q0 -185 -95 -277t-282 -92q-37 0 -76 2t-73 6v156q33 -3 74 -5.5t81 -2.5q77 0 120.5 24t61 73t17.5 124v86l40 2q-1 -74 -30.5 -123.5t-81.5 -74.5t-120 -25q-77 0 -133.5 30.5t-87.5 85.5t-31 131
q0 82 38.5 142.5t106.5 93.5t157 33zM340 598q-40 0 -68.5 -14t-44 -39t-15.5 -58q0 -34 15 -58.5t43 -38.5t67 -14q35 0 65 12t48 36.5t18 62.5q0 33 -15 58t-43.5 39t-69.5 14z" />
    <glyph glyph-name="nine.dnom" horiz-adv-x="413" 
d="M197 415q69 0 109 -29t57 -74t17 -92v-27q0 -97 -55.5 -147t-158.5 -50q-26 0 -47.5 1.5t-39.5 2.5v100q18 -1 40.5 -2.5t49.5 -1.5q44 0 65.5 12.5t28 36t6.5 54.5v25l25 26q-1 -64 -38 -92t-90 -28q-64 0 -102.5 36.5t-38.5 100.5q0 70 48 109t124 39zM201 316
q-30 0 -47 -12t-17 -35t16.5 -36t43.5 -13q23 0 44.5 10.5t21.5 38.5q0 16 -7 26t-21 15.5t-34 5.5z" />
    <glyph glyph-name="nine.numr" horiz-adv-x="413" 
d="M197 670q69 0 109 -29t57 -74t17 -92v-27q0 -97 -55.5 -147t-158.5 -50q-26 0 -47.5 1.5t-39.5 2.5v100q18 -1 40.5 -2.5t49.5 -1.5q44 0 65.5 12.5t28 36t6.5 54.5v25l25 26q-1 -64 -38 -92t-90 -28q-64 0 -102.5 36.5t-38.5 100.5q0 70 48 109t124 39zM201 571
q-30 0 -47 -12t-17 -35t16.5 -36t43.5 -13q23 0 44.5 10.5t21.5 38.5q0 16 -7 26t-21 15.5t-34 5.5z" />
    <glyph glyph-name="nine.tnum" horiz-adv-x="676" 
d="M326 752q79 0 136.5 -27t95 -74.5t55.5 -111t18 -136.5v-41q0 -185 -93 -276.5t-274 -91.5q-35 0 -72.5 2t-69.5 6v156q31 -3 70.5 -5.5t77.5 -2.5q75 0 116 25t57 74t16 122v88h36q-1 -73 -29.5 -122t-78.5 -74t-113 -25q-73 0 -127 30t-84 85t-30 131q0 82 37.5 142
t103.5 93t152 33zM332 598q-37 0 -63.5 -14t-41 -39t-14.5 -58q0 -34 14.5 -58.5t40.5 -38.5t62 -14q31 0 59 12t45 36.5t17 62.5q0 32 -13.5 57.5t-40.5 39.5t-65 14z" />
    <glyph glyph-name="ntilde" unicode="&#xf1;" horiz-adv-x="656" 
d="M66 0v552h144v-237h-8q0 86 22 142.5t65.5 84.5t105.5 28h8q94 0 145.5 -62.5t51.5 -191.5v-316h-182v321q0 38 -22.5 62.5t-61.5 24.5t-62.5 -24.5t-23.5 -64.5v-319h-182zM417 618q-31 0 -52 8t-37.5 18t-34 18t-41.5 8q-28 0 -49 -10.5t-36 -24.5l-26 124
q18 18 44.5 31.5t66.5 13.5q32 0 52.5 -8t37 -18t34 -18t41.5 -8q29 0 50 10.5t36 24.5l26 -124q-18 -18 -45 -31.5t-67 -13.5z" />
    <glyph glyph-name="numbersign" unicode="#" horiz-adv-x="732" 
d="M110 0l113 730h140l-113 -730h-140zM370 0l113 730h140l-113 -730h-140zM32 177v118h628v-118h-628zM72 435v118h628v-118h-628z" />
    <glyph glyph-name="o" unicode="o" horiz-adv-x="682" 
d="M341 -20q-73 0 -130 22t-96.5 61t-60 90t-20.5 109v24q0 60 21.5 112t61.5 91t97 61t127 22q71 0 127.5 -22t96.5 -61t61.5 -91t21.5 -112v-24q0 -58 -20.5 -109t-60 -90t-96.5 -61t-130 -22zM341 132q42 0 69.5 18t41.5 50.5t14 73.5q0 43 -14.5 75.5t-42.5 51.5t-68 19
t-68 -19t-42.5 -51.5t-14.5 -75.5q0 -41 14 -73.5t42 -50.5t69 -18z" />
    <glyph glyph-name="oacute" unicode="&#xf3;" horiz-adv-x="682" 
d="M341 -20q-73 0 -130 22t-96.5 61t-60 90t-20.5 109v24q0 60 21.5 112t61.5 91t97 61t127 22q71 0 127.5 -22t96.5 -61t61.5 -91t21.5 -112v-24q0 -58 -20.5 -109t-60 -90t-96.5 -61t-130 -22zM341 132q42 0 69.5 18t41.5 50.5t14 73.5q0 43 -14.5 75.5t-42.5 51.5t-68 19
t-68 -19t-42.5 -51.5t-14.5 -75.5q0 -41 14 -73.5t42 -50.5t69 -18zM252 612l90 212h186l-116 -212h-160z" />
    <glyph glyph-name="obreve" unicode="&#x14f;" horiz-adv-x="682" 
d="M341 -20q-73 0 -130 22t-96.5 61t-60 90t-20.5 109v24q0 60 21.5 112t61.5 91t97 61t127 22q71 0 127.5 -22t96.5 -61t61.5 -91t21.5 -112v-24q0 -58 -20.5 -109t-60 -90t-96.5 -61t-130 -22zM341 132q42 0 69.5 18t41.5 50.5t14 73.5q0 43 -14.5 75.5t-42.5 51.5t-68 19
t-68 -19t-42.5 -51.5t-14.5 -75.5q0 -41 14 -73.5t42 -50.5t69 -18zM342 606q-90 0 -139.5 53t-52.5 165h134q2 -52 16 -71t42 -19t43.5 19t16.5 71h130q-3 -112 -51.5 -165t-138.5 -53z" />
    <glyph glyph-name="ocircumflex" unicode="&#xf4;" horiz-adv-x="682" 
d="M341 -20q-73 0 -130 22t-96.5 61t-60 90t-20.5 109v24q0 60 21.5 112t61.5 91t97 61t127 22q71 0 127.5 -22t96.5 -61t61.5 -91t21.5 -112v-24q0 -58 -20.5 -109t-60 -90t-96.5 -61t-130 -22zM341 132q42 0 69.5 18t41.5 50.5t14 73.5q0 43 -14.5 75.5t-42.5 51.5t-68 19
t-68 -19t-42.5 -51.5t-14.5 -75.5q0 -41 14 -73.5t42 -50.5t69 -18zM129 612l101 212h224l103 -212h-154l-56 128h-14l-54 -128h-150z" />
    <glyph glyph-name="odieresis" unicode="&#xf6;" horiz-adv-x="682" 
d="M341 -20q-73 0 -130 22t-96.5 61t-60 90t-20.5 109v24q0 60 21.5 112t61.5 91t97 61t127 22q71 0 127.5 -22t96.5 -61t61.5 -91t21.5 -112v-24q0 -58 -20.5 -109t-60 -90t-96.5 -61t-130 -22zM341 132q42 0 69.5 18t41.5 50.5t14 73.5q0 43 -14.5 75.5t-42.5 51.5t-68 19
t-68 -19t-42.5 -51.5t-14.5 -75.5q0 -41 14 -73.5t42 -50.5t69 -18zM231 626q-49 0 -70.5 26.5t-21.5 65.5t21.5 65.5t70.5 26.5t70.5 -26.5t21.5 -65.5t-21.5 -65.5t-70.5 -26.5zM451 626q-49 0 -70.5 26.5t-21.5 65.5t21.5 65.5t70.5 26.5t70.5 -26.5t21.5 -65.5
t-21.5 -65.5t-70.5 -26.5z" />
    <glyph glyph-name="oe" unicode="&#x153;" horiz-adv-x="1060" 
d="M335 -18q-73 0 -129 22.5t-94.5 61t-58 89.5t-19.5 108v24q0 60 20.5 111.5t59.5 90.5t95 61t126 22q71 0 123 -22t87 -61t52 -90.5t17 -111.5h-114q0 55 15 106t46.5 91.5t80 64t115.5 23.5q89 0 149.5 -40.5t92 -106t31.5 -141.5v-56h-404v94h299l-63 -40
q0 47 -12.5 79t-37 48.5t-61.5 16.5q-36 0 -62.5 -17t-40.5 -50.5t-14 -83.5q0 -45 13 -78.5t40 -52t70 -18.5q38 0 62.5 13t34.5 35h166q-18 -85 -84.5 -139.5t-172.5 -54.5q-70 0 -120 24.5t-81.5 65.5t-46.5 91.5t-15 103.5h114q-1 -58 -17.5 -109t-50 -90t-86 -61.5
t-125.5 -22.5zM341 134q42 0 69.5 18.5t41.5 50.5t14 72q0 42 -14.5 74.5t-42.5 51.5t-68 19t-68 -19t-42.5 -51.5t-14.5 -74.5q0 -40 14 -72t42 -50.5t69 -18.5z" />
    <glyph glyph-name="uni0328" unicode="&#x328;" 
d="M197 -242q-66 0 -105.5 35t-39.5 95q0 46 18.5 81.5t58.5 76.5l33 34l78 -80l-33 -36q-11 -12 -18 -23.5t-7 -24.5q0 -14 10.5 -22t28.5 -8q25 0 41 7v-128q-10 -3 -29.5 -5t-35.5 -2z" />
    <glyph glyph-name="uni0328.case" 
d="M194 -258q-67 0 -110.5 39t-43.5 102q0 50 22.5 91t68.5 81l30 27l80 -82l-30 -29q-15 -14 -25 -29.5t-10 -31.5q0 -18 12 -28t31 -10q14 0 25 2.5t18 6.5v-132q-10 -3 -29.5 -5t-38.5 -2z" />
    <glyph glyph-name="ograve" unicode="&#xf2;" horiz-adv-x="682" 
d="M341 -20q-73 0 -130 22t-96.5 61t-60 90t-20.5 109v24q0 60 21.5 112t61.5 91t97 61t127 22q71 0 127.5 -22t96.5 -61t61.5 -91t21.5 -112v-24q0 -58 -20.5 -109t-60 -90t-96.5 -61t-130 -22zM341 132q42 0 69.5 18t41.5 50.5t14 73.5q0 43 -14.5 75.5t-42.5 51.5t-68 19
t-68 -19t-42.5 -51.5t-14.5 -75.5q0 -41 14 -73.5t42 -50.5t69 -18zM259 612l-114 212h190l88 -212h-164z" />
    <glyph glyph-name="ohungarumlaut" unicode="&#x151;" horiz-adv-x="682" 
d="M341 -20q-73 0 -130 22t-96.5 61t-60 90t-20.5 109v24q0 60 21.5 112t61.5 91t97 61t127 22q71 0 127.5 -22t96.5 -61t61.5 -91t21.5 -112v-24q0 -58 -20.5 -109t-60 -90t-96.5 -61t-130 -22zM341 132q42 0 69.5 18t41.5 50.5t14 73.5q0 43 -14.5 75.5t-42.5 51.5t-68 19
t-68 -19t-42.5 -51.5t-14.5 -75.5q0 -41 14 -73.5t42 -50.5t69 -18zM366 612l84 212h138l-92 -212h-130zM178 612l84 212h138l-92 -212h-130z" />
    <glyph glyph-name="omacron" unicode="&#x14d;" horiz-adv-x="682" 
d="M341 -20q-73 0 -130 22t-96.5 61t-60 90t-20.5 109v24q0 60 21.5 112t61.5 91t97 61t127 22q71 0 127.5 -22t96.5 -61t61.5 -91t21.5 -112v-24q0 -58 -20.5 -109t-60 -90t-96.5 -61t-130 -22zM341 132q42 0 69.5 18t41.5 50.5t14 73.5q0 43 -14.5 75.5t-42.5 51.5t-68 19
t-68 -19t-42.5 -51.5t-14.5 -75.5q0 -41 14 -73.5t42 -50.5t69 -18zM161 642v126h360v-126h-360z" />
    <glyph glyph-name="one" unicode="1" horiz-adv-x="430" 
d="M166 0v602l44 -34h-180v162h322v-730h-186z" />
    <glyph glyph-name="one.dnom" horiz-adv-x="264" 
d="M98 0v324l33 -25h-107v103h193v-402h-119z" />
    <glyph glyph-name="one.numr" horiz-adv-x="264" 
d="M98 255v324l33 -25h-107v103h193v-402h-119z" />
    <glyph glyph-name="one.tnum" horiz-adv-x="676" 
d="M272 0v602l44 -34h-222v162h364v-730h-186zM74 0v162h548v-162h-548z" />
    <glyph glyph-name="onehalf" unicode="&#xbd;" horiz-adv-x="874" 
d="M98 255v324l33 -25h-107v103h193v-402h-119zM122 -22l416 702h120l-416 -702h-120zM531 0v86q0 41 22 69t72 48l57 23q21 9 33 20t12 33q0 15 -11 25.5t-34 10.5q-22 0 -32 -10.5t-10 -28.5h-115q0 57 38 97.5t119 40.5q80 0 119 -38.5t39 -91.5v-7q0 -44 -24.5 -75.5
t-89.5 -57.5l-57 -23q-14 -5 -22.5 -10.5t-8.5 -16.5v-22l-27 24h226v-96h-306z" />
    <glyph glyph-name="onequarter" unicode="&#xbc;" horiz-adv-x="864" 
d="M98 255v324l33 -25h-107v103h193v-402h-119zM122 -22l416 702h120l-416 -702h-120zM478 64v123l152 247l90 -55l-125 -207l9 -14h241v-94h-367zM692 0v293h110v-293h-110z" />
    <glyph glyph-name="uni00B9" unicode="&#xb9;" horiz-adv-x="264" 
d="M98 420v324l33 -25h-107v103h193v-402h-119z" />
    <glyph glyph-name="ordfeminine" unicode="&#xaa;" horiz-adv-x="449" 
d="M280 345v112h-27v111q0 17 -6 25.5t-25 8.5q-9 0 -35.5 -0.5t-60 -1.5t-62.5 -3v134q19 2 45.5 3t54 2t47.5 1q60 0 104 -18.5t68.5 -55t24.5 -92.5v-226h-128zM163 335q-61 0 -100 33t-39 90q0 46 25.5 72.5t69 38.5t97.5 12h56v-79h-54q-16 0 -25 -8.5t-9 -22.5
q0 -12 8 -20.5t26 -8.5q12 0 19.5 4.5t11 14.5t4.5 26l36 -32q-6 -56 -36 -88t-90 -32z" />
    <glyph glyph-name="ordmasculine" unicode="&#xba;" horiz-adv-x="491" 
d="M246 330q-67 0 -115.5 25.5t-74.5 70t-26 99.5v20q0 58 27 102.5t75.5 70t113.5 25.5t113.5 -25.5t75 -70t26.5 -102.5v-20q0 -55 -25.5 -99.5t-73.5 -70t-116 -25.5zM246 464q18 0 30 8.5t17.5 24.5t5.5 38t-6 38.5t-17.5 26t-29.5 9.5q-17 0 -29.5 -9t-18.5 -25.5
t-6 -39.5q0 -22 6 -38t18 -24.5t30 -8.5z" />
    <glyph glyph-name="oslash" unicode="&#xf8;" horiz-adv-x="682" 
d="M68 -66l442 666h104l-442 -666h-104zM341 -20q-73 0 -130 22t-96.5 61t-60 90t-20.5 109v24q0 60 21.5 112t61.5 91t97 61t127 22q71 0 127.5 -22t96.5 -61t61.5 -91t21.5 -112v-24q0 -58 -20.5 -109t-60 -90t-96.5 -61t-130 -22zM341 132q42 0 69.5 18t41.5 50.5
t14 73.5q0 43 -14.5 75.5t-42.5 51.5t-68 19t-68 -19t-42.5 -51.5t-14.5 -75.5q0 -41 14 -73.5t42 -50.5t69 -18z" />
    <glyph glyph-name="otilde" unicode="&#xf5;" horiz-adv-x="682" 
d="M341 -20q-73 0 -130 22t-96.5 61t-60 90t-20.5 109v24q0 60 21.5 112t61.5 91t97 61t127 22q71 0 127.5 -22t96.5 -61t61.5 -91t21.5 -112v-24q0 -58 -20.5 -109t-60 -90t-96.5 -61t-130 -22zM341 132q42 0 69.5 18t41.5 50.5t14 73.5q0 43 -14.5 75.5t-42.5 51.5t-68 19
t-68 -19t-42.5 -51.5t-14.5 -75.5q0 -41 14 -73.5t42 -50.5t69 -18zM423 618q-31 0 -52 8t-37.5 18t-34 18t-41.5 8q-28 0 -49 -10.5t-36 -24.5l-26 124q18 18 44.5 31.5t66.5 13.5q32 0 52.5 -8t37 -18t34 -18t41.5 -8q29 0 50 10.5t36 24.5l26 -124q-18 -18 -45 -31.5
t-67 -13.5z" />
    <glyph glyph-name="p" unicode="p" horiz-adv-x="708" 
d="M66 -200v752h144v-238h-16q3 81 32.5 138t80.5 86.5t117 29.5q57 0 103 -20.5t79 -58t50.5 -88.5t17.5 -112v-24q0 -61 -16 -112.5t-48 -90t-78.5 -59.5t-106.5 -21q-64 0 -113 25.5t-77.5 77t-30.5 129.5l44 -54v-360h-182zM370 132q36 0 63.5 18.5t43 51.5t15.5 75
q0 43 -15.5 74.5t-42.5 49t-64 17.5q-33 0 -61.5 -15t-46.5 -44t-18 -70v-34q0 -39 19 -66.5t48 -42t59 -14.5z" />
    <glyph glyph-name="paragraph" unicode="&#xb6;" horiz-adv-x="643" 
d="M203 361q-103 0 -149 49.5t-46 131.5v11q0 82 46 131.5t149 49.5h110v-373h-110zM278 0v734h117v-734h-117zM456 0v734h115v-734h-115z" />
    <glyph glyph-name="parenleft" unicode="(" horiz-adv-x="398" 
d="M188 -182q-45 61 -78.5 131t-51.5 157t-18 197q0 111 19.5 196t54.5 152.5t80 124.5h200q-47 -65 -87 -137.5t-63.5 -155.5t-23.5 -180q0 -96 17 -180.5t55.5 -160.5t101.5 -144h-206z" />
    <glyph glyph-name="parenleft.case" horiz-adv-x="398" 
d="M184 -118q-44 61 -75.5 129t-48 151t-16.5 188q0 106 18 187t51 146t77 123h200q-45 -66 -82.5 -136.5t-60.5 -149t-23 -170.5q0 -91 16.5 -171.5t53 -153.5t96.5 -143h-206z" />
    <glyph glyph-name="parenright" unicode=")" horiz-adv-x="398" 
d="M210 -182q45 61 78.5 131t51.5 157t18 197q0 111 -19.5 196t-54.5 152.5t-80 124.5h-200q47 -65 87 -137.5t63.5 -155.5t23.5 -180q0 -96 -17 -180.5t-55.5 -160.5t-101.5 -144h206z" />
    <glyph glyph-name="parenright.case" horiz-adv-x="398" 
d="M214 -118q44 61 75.5 129t48 151t16.5 188q0 106 -18 187t-51 146t-77 123h-200q45 -66 82.5 -136.5t60.5 -149t23 -170.5q0 -91 -16.5 -171.5t-53 -153.5t-96.5 -143h206z" />
    <glyph glyph-name="percent" unicode="%" horiz-adv-x="904" 
d="M246 0l262 730h154l-262 -730h-154zM197 326q-60 0 -100.5 26.5t-61 71.5t-20.5 100v26q0 59 21 103.5t62 69.5t99 25q59 0 99.5 -25t61.5 -69.5t21 -103.5v-26q0 -55 -20.5 -100t-60.5 -71.5t-101 -26.5zM197 446q26 0 38 19t12 71q0 56 -12.5 74t-37.5 18t-37.5 -18
t-12.5 -73q0 -52 12.5 -71.5t37.5 -19.5zM707 -20q-60 0 -100.5 26.5t-61 71.5t-20.5 100v26q0 59 21 103.5t62 69.5t99 25q59 0 99.5 -25t61.5 -69.5t21 -103.5v-26q0 -55 -20.5 -100t-60.5 -71.5t-101 -26.5zM707 100q26 0 38 19t12 71q0 56 -12.5 74t-37.5 18t-37.5 -18
t-12.5 -73q0 -52 12.5 -71.5t37.5 -19.5z" />
    <glyph glyph-name="period" unicode="." horiz-adv-x="276" 
d="M40 0v198h196v-198h-196z" />
    <glyph glyph-name="periodcentered" unicode="&#xb7;" horiz-adv-x="276" 
d="M40 188v198h196v-198h-196z" />
    <glyph glyph-name="periodcentered.case" horiz-adv-x="276" 
d="M40 268v198h196v-198h-196z" />
    <glyph glyph-name="perthousand" unicode="&#x2030;" horiz-adv-x="1298" 
d="M246 0l262 730h154l-262 -730h-154zM197 326q-60 0 -100.5 26.5t-61 71.5t-20.5 100v26q0 59 21 103.5t62 69.5t99 25q59 0 99.5 -25t61.5 -69.5t21 -103.5v-26q0 -55 -20.5 -100t-60.5 -71.5t-101 -26.5zM197 446q26 0 38 19t12 71q0 56 -12.5 74t-37.5 18t-37.5 -18
t-12.5 -73q0 -52 12.5 -71.5t37.5 -19.5zM707 -20q-60 0 -100.5 26.5t-61 71.5t-20.5 100v26q0 59 21 103.5t62 69.5t99 25q59 0 99.5 -25t61.5 -69.5t21 -103.5v-26q0 -55 -20.5 -100t-60.5 -71.5t-101 -26.5zM707 100q26 0 38 19t12 71q0 56 -12.5 74t-37.5 18t-37.5 -18
t-12.5 -73q0 -52 12.5 -71.5t37.5 -19.5zM1101 -20q-60 0 -100.5 26.5t-61 71.5t-20.5 100v26q0 59 21 103.5t62 69.5t99 25q59 0 99.5 -25t61.5 -69.5t21 -103.5v-26q0 -55 -20.5 -100t-60.5 -71.5t-101 -26.5zM1101 100q26 0 38 19t12 71q0 56 -12.5 74t-37.5 18
t-37.5 -18t-12.5 -73q0 -52 12.5 -71.5t37.5 -19.5z" />
    <glyph glyph-name="plus" unicode="+" horiz-adv-x="598" 
d="M218 88v512h162v-512h-162zM44 270v148h510v-148h-510z" />
    <glyph glyph-name="plus.tnum" horiz-adv-x="676" 
d="M257 72v544h162v-544h-162zM70 270v148h536v-148h-536z" />
    <glyph glyph-name="plusminus" unicode="&#xb1;" horiz-adv-x="610" 
d="M60 15v137h490v-137h-490zM229 212v460h152v-460h-152zM60 373v138h490v-138h-490z" />
    <glyph glyph-name="q" unicode="q" horiz-adv-x="708" 
d="M460 -200v363l44 52q-2 -70 -28 -122.5t-74 -81.5t-116 -29q-58 0 -104.5 21t-79.5 58.5t-50.5 88.5t-17.5 111v24q0 60 18.5 111.5t53 90t82 60t105.5 21.5q67 0 116 -29.5t76 -85.5t29 -136h-16v235h144v-752h-182zM342 132q33 0 60.5 15t44.5 44t17 70v34
q0 40 -17.5 67t-45 41.5t-59.5 14.5q-36 0 -64.5 -18.5t-45 -51t-16.5 -75.5t16.5 -74.5t45 -49t64.5 -17.5z" />
    <glyph glyph-name="question" unicode="?" horiz-adv-x="566" 
d="M169 254v170h101q48 0 71 25t23 62q0 25 -9.5 44t-28.5 30t-46 11t-45.5 -11.5t-28.5 -30.5t-10 -43h-174q0 69 31 123.5t90.5 86t142.5 31.5q78 0 134.5 -28.5t87 -79t30.5 -118.5v-12q0 -66 -31.5 -115t-91 -76.5t-143.5 -30.5l79 58l-2 -96h-180zM157 0v174h204v-174
h-204z" />
    <glyph glyph-name="questiondown" unicode="&#xbf;" horiz-adv-x="566" 
d="M397 298v-170h-101q-48 0 -71 -25t-23 -62q0 -25 9.5 -44t28.5 -30t46 -11t45.5 11.5t28.5 30.5t10 43h174q0 -69 -31 -123.5t-90.5 -86t-142.5 -31.5q-78 0 -134.5 28.5t-87 79t-30.5 118.5v12q0 66 31.5 115t91 76.5t143.5 30.5l-79 -58l2 96h180zM409 552v-174h-204
v174h204z" />
    <glyph glyph-name="questiondown.case" horiz-adv-x="566" 
d="M397 476v-170h-101q-48 0 -71 -25t-23 -62q0 -25 9.5 -44t28.5 -30t46 -11t45.5 11.5t28.5 30.5t10 43h174q0 -69 -31 -123.5t-90.5 -86t-142.5 -31.5q-78 0 -134.5 28.5t-87 79t-30.5 118.5v12q0 66 31.5 115t91 76.5t143.5 30.5l-79 -58l2 96h180zM409 730v-174h-204
v174h204z" />
    <glyph glyph-name="quotedbl" unicode="&#x22;" horiz-adv-x="516" 
d="M52 408v322h166v-322h-166zM298 408v322h166v-322h-166z" />
    <glyph glyph-name="quotedblbase" unicode="&#x201e;" horiz-adv-x="526" 
d="M36 -204v104h38q26 0 41.5 7t23 26.5t7.5 55.5v73l33 -68q-7 -6 -21 -10.5t-31 -4.5q-38 0 -63.5 23t-25.5 65q0 39 24.5 67t72.5 28q31 0 56.5 -14.5t41 -48t15.5 -90.5v-13q0 -70 -21 -114t-62 -65t-102 -21h-27zM284 -204v104h38q26 0 41.5 7t23 26.5t7.5 55.5v73
l33 -68q-7 -6 -21 -10.5t-31 -4.5q-38 0 -63.5 23t-25.5 65q0 39 24.5 67t72.5 28q31 0 56.5 -14.5t41 -48t15.5 -90.5v-13q0 -70 -21 -114t-62 -65t-102 -21h-27z" />
    <glyph glyph-name="quotedblleft" unicode="&#x201c;" horiz-adv-x="526" 
d="M490 742v-104h-38q-26 0 -41.5 -7t-23 -26.5t-7.5 -55.5v-73l-33 68q7 6 21 10.5t31 4.5q38 0 63.5 -23t25.5 -65q0 -39 -24.5 -67t-72.5 -28q-31 0 -56.5 14.5t-41 48t-15.5 90.5v13q0 70 21 114t62 65t102 21h27zM242 742v-104h-38q-26 0 -41.5 -7t-23 -26.5
t-7.5 -55.5v-73l-33 68q7 6 21 10.5t31 4.5q38 0 63.5 -23t25.5 -65q0 -39 -24.5 -67t-72.5 -28q-31 0 -56.5 14.5t-41 48t-15.5 90.5v13q0 70 21 114t62 65t102 21h27z" />
    <glyph glyph-name="quotedblright" unicode="&#x201d;" horiz-adv-x="526" 
d="M36 376v104h38q26 0 41.5 7t23 26.5t7.5 55.5v73l33 -68q-7 -6 -21 -10.5t-31 -4.5q-38 0 -63.5 23t-25.5 65q0 39 24.5 67t72.5 28q31 0 56.5 -14.5t41 -48t15.5 -90.5v-13q0 -70 -21 -114t-62 -65t-102 -21h-27zM284 376v104h38q26 0 41.5 7t23 26.5t7.5 55.5v73
l33 -68q-7 -6 -21 -10.5t-31 -4.5q-38 0 -63.5 23t-25.5 65q0 39 24.5 67t72.5 28q31 0 56.5 -14.5t41 -48t15.5 -90.5v-13q0 -70 -21 -114t-62 -65t-102 -21h-27z" />
    <glyph glyph-name="quoteleft" unicode="&#x2018;" horiz-adv-x="278" 
d="M242 742v-104h-38q-26 0 -41.5 -7t-23 -26.5t-7.5 -55.5v-73l-33 68q7 6 21 10.5t31 4.5q38 0 63.5 -23t25.5 -65q0 -39 -24.5 -67t-72.5 -28q-31 0 -56.5 14.5t-41 48t-15.5 90.5v13q0 70 21 114t62 65t102 21h27z" />
    <glyph glyph-name="quoteright" unicode="&#x2019;" horiz-adv-x="278" 
d="M36 376v104h38q26 0 41.5 7t23 26.5t7.5 55.5v73l33 -68q-7 -6 -21 -10.5t-31 -4.5q-38 0 -63.5 23t-25.5 65q0 39 24.5 67t72.5 28q31 0 56.5 -14.5t41 -48t15.5 -90.5v-13q0 -70 -21 -114t-62 -65t-102 -21h-27z" />
    <glyph glyph-name="quotesinglbase" unicode="&#x201a;" horiz-adv-x="278" 
d="M36 -204v104h38q26 0 41.5 7t23 26.5t7.5 55.5v73l33 -68q-7 -6 -21 -10.5t-31 -4.5q-38 0 -63.5 23t-25.5 65q0 39 24.5 67t72.5 28q31 0 56.5 -14.5t41 -48t15.5 -90.5v-13q0 -70 -21 -114t-62 -65t-102 -21h-27z" />
    <glyph glyph-name="quotesingle" unicode="'" horiz-adv-x="270" 
d="M52 408v322h166v-322h-166z" />
    <glyph glyph-name="r" unicode="r" horiz-adv-x="424" 
d="M66 0v552h144v-240h-2q0 116 48.5 182t139.5 66h22v-156h-42q-61 0 -94.5 -33t-33.5 -95v-276h-182z" />
    <glyph glyph-name="r.salt" horiz-adv-x="444" 
d="M66 0v552h138v-240h-2q0 97 22 151t58.5 75.5t81.5 21.5h76v-156h-109q-40 0 -61.5 -21t-21.5 -62v-321h-182z" />
    <glyph glyph-name="racute" unicode="&#x155;" horiz-adv-x="424" 
d="M66 0v552h144v-240h-2q0 116 48.5 182t139.5 66h22v-156h-42q-61 0 -94.5 -33t-33.5 -95v-276h-182zM149 612l90 212h186l-116 -212h-160z" />
    <glyph glyph-name="racute.salt" horiz-adv-x="444" 
d="M66 0v552h138v-240h-2q0 97 22 151t58.5 75.5t81.5 21.5h76v-156h-109q-40 0 -61.5 -21t-21.5 -62v-321h-182zM173 612l90 212h186l-116 -212h-160z" />
    <glyph glyph-name="rcaron" unicode="&#x159;" horiz-adv-x="424" 
d="M66 0v552h144v-240h-2q0 116 48.5 182t139.5 66h22v-156h-42q-61 0 -94.5 -33t-33.5 -95v-276h-182zM117 612l-101 212h154l56 -128h14l50 128h150l-95 -212h-228z" />
    <glyph glyph-name="rcaron.salt" horiz-adv-x="444" 
d="M66 0v552h138v-240h-2q0 97 22 151t58.5 75.5t81.5 21.5h76v-156h-109q-40 0 -61.5 -21t-21.5 -62v-321h-182zM141 612l-101 212h154l56 -128h14l50 128h150l-95 -212h-228z" />
    <glyph glyph-name="uni0157" unicode="&#x157;" horiz-adv-x="424" 
d="M66 0v552h144v-240h-2q0 116 48.5 182t139.5 66h22v-156h-42q-61 0 -94.5 -33t-33.5 -95v-276h-182zM158 -42q48 0 74.5 -32.5t26.5 -88.5v-6q0 -70 -41.5 -106.5t-109.5 -36.5h-28v88h30q31 0 43 14t12 34v27l27 -3q-6 -14 -19.5 -23.5t-35.5 -9.5q-29 0 -47 18t-18 50
q0 40 26 57.5t60 17.5z" />
    <glyph glyph-name="uni0157.salt" horiz-adv-x="444" 
d="M66 0v552h138v-240h-2q0 97 22 151t58.5 75.5t81.5 21.5h76v-156h-109q-40 0 -61.5 -21t-21.5 -62v-321h-182zM141 -42q48 0 74.5 -32.5t26.5 -88.5v-6q0 -70 -41.5 -106.5t-109.5 -36.5h-28v88h30q31 0 43 14t12 34v27l27 -3q-6 -14 -19.5 -23.5t-35.5 -9.5
q-29 0 -47 18t-18 50q0 40 26 57.5t60 17.5z" />
    <glyph glyph-name="registered" unicode="&#xae;" horiz-adv-x="678" 
d="M339 174q-70 0 -123.5 24.5t-89.5 65t-54 89.5t-18 98v16q0 51 18.5 99.5t55 88.5t89.5 63.5t122 23.5t122 -23.5t89.5 -63.5t55 -88.5t18.5 -99.5v-16q0 -49 -18 -98t-54 -89.5t-89.5 -65t-123.5 -24.5zM339 226q69 0 120.5 31.5t80 84t28.5 116.5q0 66 -28.5 118.5
t-80 83t-120.5 30.5t-120.5 -30.5t-80 -83t-28.5 -118.5q0 -64 28.5 -116.5t80 -84t120.5 -31.5zM213 306v317h92v-317h-92zM396 306l-66 123h94l72 -123h-100zM256 393v76h88q25 0 35 10.5t10 28.5t-10 28.5t-35 10.5h-88v76h86q69 0 104 -29t35 -86t-35 -86t-104 -29h-86z
" />
    <glyph glyph-name="uni17DB" unicode="&#x17db;" horiz-adv-x="546" 
d="M264 -8q-70 0 -117.5 18.5t-72 53t-24.5 83.5q0 50 24.5 85.5t74 54.5t123.5 19v-106q-37 0 -56.5 -13t-19.5 -38t18.5 -38t47.5 -13h37l-35 -37l4 304h138v-373h-142zM128 334v106h382v-106h-382zM268 408v32q0 8 -2.5 12.5t-10.5 8.5q-18 11 -45.5 25.5t-43.5 23.5
q-42 24 -54 67t7 92q20 49 54 65t101 16q44 0 85 -4t82 -10v-122q-41 6 -81.5 10t-90.5 4q-12 0 -16.5 -2t-6.5 -7q-2 -6 -1.5 -10t7.5 -8q7 -3 23 -12t34.5 -19t31.5 -18q31 -18 48 -42.5t17 -69.5v-32h-138z" />
    <glyph glyph-name="uni17DB.tnum" horiz-adv-x="676" 
d="M332 -8q-73 0 -123 18.5t-75.5 53t-25.5 83.5q0 50 26 85.5t77.5 54.5t129.5 19v-106q-46 0 -67.5 -12.5t-21.5 -38.5q0 -25 20 -38t57 -13h40l-37 -37l4 304h140v-373h-144zM183 334v106h401v-106h-401zM336 408v32q0 7 -3 12t-11 9q-21 11 -46.5 25t-45.5 24
q-43 23 -55 67t8 93q20 48 55 64t103 16q47 0 89 -3.5t86 -10.5v-122q-44 7 -89.5 10.5t-90.5 3.5q-14 0 -19 -2t-7 -7t-1 -9.5t8 -8.5q6 -3 24 -12.5t37.5 -20t30.5 -16.5q32 -17 49.5 -42t17.5 -70v-32h-140z" />
    <glyph glyph-name="ring" unicode="&#x2da;" horiz-adv-x="300" 
d="M133 601q-59 0 -96 35t-37 90t37 90t96 35t96 -35t37 -90t-37 -90t-96 -35zM133 686q19 0 29.5 11.5t10.5 28.5t-10.5 28.5t-29.5 11.5t-29.5 -11.5t-10.5 -28.5t10.5 -28.5t29.5 -11.5z" />
    <glyph glyph-name="uni030A" unicode="&#x30a;" 
d="M133 601q-59 0 -96 35t-37 90t37 90t96 35t96 -35t37 -90t-37 -90t-96 -35zM133 686q19 0 29.5 11.5t10.5 28.5t-10.5 28.5t-29.5 11.5t-29.5 -11.5t-10.5 -28.5t10.5 -28.5t29.5 -11.5z" />
    <glyph glyph-name="uni030A.case" 
d="M134 760q-60 0 -97 31t-37 83t37 83t97 31t97 -31t37 -83t-37 -83t-97 -31zM134 839q18 0 28 10t10 25t-10 25t-28 10t-28 -10t-10 -25t10 -25t28 -10z" />
    <glyph glyph-name="s" unicode="s" horiz-adv-x="562" 
d="M285 -18q-120 0 -189 49.5t-74 139.5h160q4 -25 31 -43t76 -18q35 0 60.5 10.5t25.5 34.5q0 21 -20 34.5t-73 18.5l-38 4q-106 11 -156 58t-50 118q0 61 30 100.5t83 59.5t121 20q111 0 179 -48.5t72 -139.5h-160q-4 25 -27 42.5t-66 17.5q-31 0 -50.5 -11t-19.5 -31
q0 -21 18.5 -31t59.5 -15l38 -4q106 -11 163.5 -58.5t57.5 -124.5q0 -57 -30.5 -98t-87 -63t-134.5 -22z" />
    <glyph glyph-name="sacute" unicode="&#x15b;" horiz-adv-x="562" 
d="M285 -18q-120 0 -189 49.5t-74 139.5h160q4 -25 31 -43t76 -18q35 0 60.5 10.5t25.5 34.5q0 21 -20 34.5t-73 18.5l-38 4q-106 11 -156 58t-50 118q0 61 30 100.5t83 59.5t121 20q111 0 179 -48.5t72 -139.5h-160q-4 25 -27 42.5t-66 17.5q-31 0 -50.5 -11t-19.5 -31
q0 -21 18.5 -31t59.5 -15l38 -4q106 -11 163.5 -58.5t57.5 -124.5q0 -57 -30.5 -98t-87 -63t-134.5 -22zM185 612l90 212h186l-116 -212h-160z" />
    <glyph glyph-name="scaron" unicode="&#x161;" horiz-adv-x="562" 
d="M285 -18q-120 0 -189 49.5t-74 139.5h160q4 -25 31 -43t76 -18q35 0 60.5 10.5t25.5 34.5q0 21 -20 34.5t-73 18.5l-38 4q-106 11 -156 58t-50 118q0 61 30 100.5t83 59.5t121 20q111 0 179 -48.5t72 -139.5h-160q-4 25 -27 42.5t-66 17.5q-31 0 -50.5 -11t-19.5 -31
q0 -21 18.5 -31t59.5 -15l38 -4q106 -11 163.5 -58.5t57.5 -124.5q0 -57 -30.5 -98t-87 -63t-134.5 -22zM153 612l-101 212h154l56 -128h14l50 128h150l-95 -212h-228z" />
    <glyph glyph-name="scedilla" unicode="&#x15f;" horiz-adv-x="562" 
d="M285 -18q-120 0 -189 49.5t-74 139.5h160q4 -25 31 -43t76 -18q35 0 60.5 10.5t25.5 34.5q0 21 -20 34.5t-73 18.5l-38 4q-106 11 -156 58t-50 118q0 61 30 100.5t83 59.5t121 20q111 0 179 -48.5t72 -139.5h-160q-4 25 -27 42.5t-66 17.5q-31 0 -50.5 -11t-19.5 -31
q0 -21 18.5 -31t59.5 -15l38 -4q106 -11 163.5 -58.5t57.5 -124.5q0 -57 -30.5 -98t-87 -63t-134.5 -22zM279 -280q-25 0 -48.5 4.5t-36.5 8.5v110q14 -5 34 -9t42 -4q27 0 40.5 6.5t13.5 18.5q0 9 -8.5 14t-29.5 5h-57v140h110v-101l-62 45h13q72 0 112 -27t40 -81
q0 -55 -41.5 -92.5t-121.5 -37.5z" />
    <glyph glyph-name="scircumflex" unicode="&#x15d;" horiz-adv-x="562" 
d="M285 -18q-120 0 -189 49.5t-74 139.5h160q4 -25 31 -43t76 -18q35 0 60.5 10.5t25.5 34.5q0 21 -20 34.5t-73 18.5l-38 4q-106 11 -156 58t-50 118q0 61 30 100.5t83 59.5t121 20q111 0 179 -48.5t72 -139.5h-160q-4 25 -27 42.5t-66 17.5q-31 0 -50.5 -11t-19.5 -31
q0 -21 18.5 -31t59.5 -15l38 -4q106 -11 163.5 -58.5t57.5 -124.5q0 -57 -30.5 -98t-87 -63t-134.5 -22zM62 612l101 212h224l103 -212h-154l-56 128h-14l-54 -128h-150z" />
    <glyph glyph-name="uni0219" unicode="&#x219;" horiz-adv-x="562" 
d="M285 -18q-120 0 -189 49.5t-74 139.5h160q4 -25 31 -43t76 -18q35 0 60.5 10.5t25.5 34.5q0 21 -20 34.5t-73 18.5l-38 4q-106 11 -156 58t-50 118q0 61 30 100.5t83 59.5t121 20q111 0 179 -48.5t72 -139.5h-160q-4 25 -27 42.5t-66 17.5q-31 0 -50.5 -11t-19.5 -31
q0 -21 18.5 -31t59.5 -15l38 -4q106 -11 163.5 -58.5t57.5 -124.5q0 -57 -30.5 -98t-87 -63t-134.5 -22zM285 -42q48 0 74.5 -32.5t26.5 -88.5v-6q0 -70 -41.5 -106.5t-109.5 -36.5h-28v88h30q31 0 43 14t12 34v27l27 -3q-6 -14 -19.5 -23.5t-35.5 -9.5q-29 0 -47 18t-18 50
q0 40 26 57.5t60 17.5z" />
    <glyph glyph-name="second" unicode="&#x2033;" horiz-adv-x="516" 
d="M24 408l56 322h166l-56 -322h-166zM270 408l56 322h166l-56 -322h-166z" />
    <glyph glyph-name="section" unicode="&#xa7;" horiz-adv-x="602" 
d="M287 -102q-118 0 -187.5 52.5t-74.5 148.5h160q4 -29 31 -51t73 -22q38 0 58.5 14.5t20.5 36.5q0 19 -16.5 31.5t-44 22.5t-60.5 20q-36 11 -74.5 25t-70.5 34.5t-52 51t-20 74.5q0 53 25.5 92.5t65.5 64t81 29.5l110 -57q-44 -7 -70.5 -22.5t-38 -34t-11.5 -36.5
q0 -26 18.5 -42.5t48.5 -28.5t65 -23t70.5 -24.5t65.5 -34t48 -51.5t18 -77q0 -90 -63.5 -141.5t-175.5 -51.5zM372 157l-85 85q64 12 94 40t30 63q0 22 -18 37t-47.5 26.5t-64.5 22.5q-37 12 -75.5 27t-71 36.5t-52.5 53t-20 77.5q0 53 29 95t80.5 67t118.5 25
q110 0 174 -49.5t64 -141.5h-156q-1 30 -21.5 47t-61.5 17q-33 0 -49.5 -14.5t-16.5 -37.5q0 -17 16.5 -30t44 -23t60.5 -20q38 -12 78.5 -27t74.5 -36.5t55 -53.5t21 -79q0 -51 -21 -89.5t-65 -67.5t-115 -50z" />
    <glyph glyph-name="semicolon" unicode=";" horiz-adv-x="276" 
d="M139 -176l-139 54l110 322l154 -56zM46 320v198h196v-198h-196z" />
    <glyph glyph-name="seven" unicode="7" horiz-adv-x="618" 
d="M143 0l238 561l-13 17h-340v152h574v-100l-261 -630h-198zM28 460v270h150v-270h-150z" />
    <glyph glyph-name="seven.dnom" horiz-adv-x="372" 
d="M84 0l136 296l-7 8h-191v98h333v-74l-144 -328h-127zM22 245v157h96v-157h-96z" />
    <glyph glyph-name="seven.numr" horiz-adv-x="372" 
d="M84 255l136 296l-7 8h-191v98h333v-74l-144 -328h-127zM22 500v157h96v-157h-96z" />
    <glyph glyph-name="seven.salt" horiz-adv-x="594" 
d="M164 0v143q0 144 58 245.5t170 159.5l-8 22h-368v160h552v-233q-83 -42 -131 -92t-67.5 -113.5t-19.5 -148.5v-143h-186z" />
    <glyph glyph-name="seven.tnum" horiz-adv-x="676" 
d="M165 0l251 561l-13 17h-355v152h588v-100l-273 -630h-198zM48 450v280h150v-280h-150z" />
    <glyph glyph-name="seven.tnum.salt" horiz-adv-x="676" 
d="M207 0v143q0 145 60 247t172 158l-8 22h-376v160h560v-235q-84 -41 -132.5 -90t-69 -113t-20.5 -149v-143h-186z" />
    <glyph glyph-name="six" unicode="6" horiz-adv-x="696" 
d="M362 -22q-81 0 -140.5 26.5t-98 74.5t-57 111.5t-18.5 136.5v40q0 185 95 277t282 92q37 0 76 -2t73 -6v-156q-33 3 -74 5.5t-81 2.5q-77 0 -120.5 -24t-61 -73t-17.5 -124v-86l-40 -2q1 74 30.5 123.5t81.5 74.5t120 25q77 0 133.5 -30.5t87.5 -85.5t31 -131
q0 -82 -38.5 -142.5t-106.5 -93.5t-157 -33zM356 132q40 0 68.5 14t44 39t15.5 58q0 34 -15 58.5t-43 38.5t-67 14q-35 0 -65 -12t-48 -36.5t-18 -62.5q0 -33 15 -58t43.5 -39t69.5 -14z" />
    <glyph glyph-name="six.dnom" horiz-adv-x="413" 
d="M215 -13q-68 0 -108 29t-57 74t-17 92v27q0 98 55.5 147t158.5 49q21 0 43 -1t44 -3v-99q-1 0 -15.5 1t-35 2t-40.5 1q-44 0 -65.5 -13t-28 -36t-6.5 -54v-26l-25 -26q1 65 38.5 93t89.5 28q65 0 103.5 -36.5t38.5 -100.5q0 -70 -48 -109t-125 -39zM212 86
q29 0 46.5 11.5t17.5 35.5q0 23 -17 35.5t-43 12.5q-22 0 -44 -9.5t-22 -38.5q0 -16 7 -26.5t21 -15.5t34 -5z" />
    <glyph glyph-name="six.numr" horiz-adv-x="413" 
d="M215 242q-68 0 -108 29t-57 74t-17 92v27q0 98 55.5 147t158.5 49q21 0 43 -1t44 -3v-99q-1 0 -15.5 1t-35 2t-40.5 1q-44 0 -65.5 -13t-28 -36t-6.5 -54v-26l-25 -26q1 65 38.5 93t89.5 28q65 0 103.5 -36.5t38.5 -100.5q0 -70 -48 -109t-125 -39zM212 341
q29 0 46.5 11.5t17.5 35.5q0 23 -17 35.5t-43 12.5q-22 0 -44 -9.5t-22 -38.5q0 -16 7 -26.5t21 -15.5t34 -5z" />
    <glyph glyph-name="six.tnum" horiz-adv-x="676" 
d="M351 -22q-79 0 -136.5 27t-95 74.5t-55.5 111t-18 136.5v41q0 185 93 276.5t274 91.5q35 0 72.5 -2t69.5 -6v-156q-31 3 -70.5 5.5t-77.5 2.5q-75 0 -116 -25t-57 -74t-16 -122v-88h-36q1 73 29.5 122t78.5 74t113 25q73 0 127 -30t84 -85t30 -131q0 -82 -37.5 -142
t-103.5 -93t-152 -33zM345 132q37 0 63.5 14t41 39t14.5 58q0 34 -14.5 58.5t-40.5 38.5t-62 14q-31 0 -59 -12t-45 -36.5t-17 -62.5q0 -32 13.5 -57.5t40.5 -39.5t65 -14z" />
    <glyph glyph-name="slash" unicode="/" horiz-adv-x="428" 
d="M16 -60l208 840h188l-208 -840h-188z" />
    <glyph glyph-name="uni00AD" unicode="&#xad;" horiz-adv-x="431" 
d="M32 203v162h367v-162h-367z" />
    <glyph glyph-name="sora" unicode="&#xe000;" horiz-adv-x="842" 
d="M274 0h-205l270 435h166l269 -435h-206l-146 239zM70 435v106h704v-106h-704zM339 478v196h166v-196h-166zM70 624v106h704v-106h-704z" />
    <glyph glyph-name="sora.tnum" horiz-adv-x="676" 
d="M204 0h-194l233 435h190l232 -435h-195l-132 283zM11 435v106h654v-106h-654zM250 478v196h176v-196h-176zM11 624v106h654v-106h-654z" />
    <glyph glyph-name="space" unicode=" " horiz-adv-x="204" 
 />
    <glyph glyph-name="sterling" unicode="&#xa3;" horiz-adv-x="640" 
d="M104 0v483q0 128 80.5 193.5t215.5 65.5q22 0 53.5 -1.5t62.5 -4t50 -4.5v-146q-19 2 -51 4.5t-64 4t-51 1.5q-49 0 -77.5 -14t-40.5 -41t-12 -65v-476h-166zM40 0v140h468v-140h-468zM46 312v120h454v-120h-454zM472 0v226h140v-226h-140z" />
    <glyph glyph-name="sterling.tnum" horiz-adv-x="676" 
d="M126 0v483q0 126 77.5 192.5t210.5 66.5q22 0 54 -1.5t63.5 -4t50.5 -4.5v-146q-19 2 -51.5 4.5t-64.5 4t-52 1.5q-49 0 -75.5 -14t-36.5 -41t-10 -65v-476h-166zM62 0v140h462v-140h-462zM68 312v120h454v-120h-454zM488 0v226h140v-226h-140z" />
    <glyph glyph-name="uni0336" unicode="&#x336;" 
d="M-47 284v152h394v-152h-394z" />
    <glyph glyph-name="uni0335" unicode="&#x335;" 
d="M-36 220v94h372v-94h-372z" />
    <glyph glyph-name="t" unicode="t" horiz-adv-x="436" 
d="M329 -8q-90 0 -143.5 22t-77.5 73t-24 138l1 471h168l-1 -476q0 -37 19.5 -56.5t56.5 -19.5h76v-152h-75zM4 420v132h400v-132h-400z" />
    <glyph glyph-name="t.salt" horiz-adv-x="464" 
d="M276 -14q-93 0 -144.5 50.5t-51.5 144.5v313h168v-317q0 -22 10.5 -34.5t29.5 -12.5q20 0 29 12.5t9 34.5h128q0 -88 -41.5 -139.5t-136.5 -51.5zM2 420v132h438v-132h-438zM80 502v202h168v-202h-168z" />
    <glyph glyph-name="tbar" unicode="&#x167;" horiz-adv-x="436" 
d="M329 -8q-90 0 -143.5 22t-77.5 73t-24 138l1 471h168l-1 -476q0 -37 19.5 -56.5t56.5 -19.5h76v-152h-75zM4 420v132h400v-132h-400zM14 243v94h372v-94h-372z" />
    <glyph glyph-name="tbar.salt" horiz-adv-x="464" 
d="M276 -14q-93 0 -144.5 50.5t-51.5 144.5v313h168v-317q0 -22 10.5 -34.5t29.5 -12.5q20 0 29 12.5t9 34.5h128q0 -88 -41.5 -139.5t-136.5 -51.5zM2 420v132h438v-132h-438zM80 502v202h168v-202h-168zM26 245v94h372v-94h-372z" />
    <glyph glyph-name="tcaron" unicode="&#x165;" horiz-adv-x="436" 
d="M329 -8q-90 0 -143.5 22t-77.5 73t-24 138l1 471h168l-1 -476q0 -37 19.5 -56.5t56.5 -19.5h76v-152h-75zM4 420v132h400v-132h-400zM297 600v264h156l-18 -264h-138z" />
    <glyph glyph-name="tcaron.salt" horiz-adv-x="464" 
d="M276 -14q-93 0 -144.5 50.5t-51.5 144.5v313h168v-317q0 -22 10.5 -34.5t29.5 -12.5q20 0 29 12.5t9 34.5h128q0 -88 -41.5 -139.5t-136.5 -51.5zM2 420v132h438v-132h-438zM80 502v202h168v-202h-168zM298 600v264h156l-18 -264h-138z" />
    <glyph glyph-name="uni0163" unicode="&#x163;" horiz-adv-x="436" 
d="M329 -8q-90 0 -143.5 22t-77.5 73t-24 138l1 471h168l-1 -476q0 -37 19.5 -56.5t56.5 -19.5h76v-152h-75zM4 420v132h400v-132h-400zM243 -280q-25 0 -48.5 4.5t-36.5 8.5v110q14 -5 34 -9t42 -4q27 0 40.5 6.5t13.5 18.5q0 9 -8.5 14t-29.5 5h-57v140h110v-101l-62 45
h13q72 0 112 -27t40 -81q0 -55 -41.5 -92.5t-121.5 -37.5z" />
    <glyph glyph-name="uni0163.salt" horiz-adv-x="464" 
d="M276 -14q-93 0 -144.5 50.5t-51.5 144.5v313h168v-317q0 -22 10.5 -34.5t29.5 -12.5q20 0 29 12.5t9 34.5h128q0 -88 -41.5 -139.5t-136.5 -51.5zM2 420v132h438v-132h-438zM80 502v202h168v-202h-168zM254 -280q-25 0 -48.5 4.5t-36.5 8.5v110q14 -5 34 -9t42 -4
q27 0 40.5 6.5t13.5 18.5q0 9 -8.5 14t-29.5 5h-57v140h110v-101l-62 45h13q72 0 112 -27t40 -81q0 -55 -41.5 -92.5t-121.5 -37.5z" />
    <glyph glyph-name="uni021B" unicode="&#x21b;" horiz-adv-x="436" 
d="M329 -8q-90 0 -143.5 22t-77.5 73t-24 138l1 471h168l-1 -476q0 -37 19.5 -56.5t56.5 -19.5h76v-152h-75zM4 420v132h400v-132h-400zM249 -42q48 0 74.5 -32.5t26.5 -88.5v-6q0 -70 -41.5 -106.5t-109.5 -36.5h-28v88h30q31 0 43 14t12 34v27l27 -3q-6 -14 -19.5 -23.5
t-35.5 -9.5q-29 0 -47 18t-18 50q0 40 26 57.5t60 17.5z" />
    <glyph glyph-name="uni021B.salt" horiz-adv-x="464" 
d="M276 -14q-93 0 -144.5 50.5t-51.5 144.5v313h168v-317q0 -22 10.5 -34.5t29.5 -12.5q20 0 29 12.5t9 34.5h128q0 -88 -41.5 -139.5t-136.5 -51.5zM2 420v132h438v-132h-438zM80 502v202h168v-202h-168zM260 -42q48 0 74.5 -32.5t26.5 -88.5v-6q0 -70 -41.5 -106.5
t-109.5 -36.5h-28v88h30q31 0 43 14t12 34v27l27 -3q-6 -14 -19.5 -23.5t-35.5 -9.5q-29 0 -47 18t-18 50q0 40 26 57.5t60 17.5z" />
    <glyph glyph-name="thorn" unicode="&#xfe;" horiz-adv-x="708" 
d="M66 -200v930h182v-388h-24q3 66 29 116t73 78t113 28q55 0 98.5 -20t74 -56.5t46.5 -87.5t16 -113v-24q0 -61 -16 -112t-48 -89t-78.5 -59t-106.5 -21q-64 0 -113 25t-77.5 76t-30.5 129l44 -54v-358h-182zM370 132q36 0 63.5 18t43 50.5t15.5 74.5q0 43 -15.5 74
t-42.5 48t-64 17q-33 0 -61.5 -14.5t-46.5 -43t-18 -69.5v-34q0 -39 19 -66t48 -41t59 -14z" />
    <glyph glyph-name="three" unicode="3" horiz-adv-x="638" 
d="M313 -20q-86 0 -150 31.5t-98.5 86t-34.5 124.5h180q0 -39 27 -63.5t76 -24.5q33 0 56 12.5t35 34t12 48.5q0 41 -26.5 68t-76.5 27q-29 0 -51.5 -9t-38.5 -23l-83 138l202 124l-9 16h-272v160h508v-159l-263 -160l-84 31q21 6 44.5 9t48.5 3q86 0 149 -27t97.5 -77.5
t34.5 -120.5v-12q0 -69 -34.5 -122.5t-98 -84t-150.5 -30.5z" />
    <glyph glyph-name="three.dnom" horiz-adv-x="381" 
d="M187 -12q-76 0 -119.5 39.5t-43.5 94.5h115q0 -16 13 -25.5t35 -9.5q23 0 35 11.5t12 28.5t-12.5 29t-34.5 12q-16 0 -28 -5t-20 -12l-52 88l105 50l-6 11h-144v102h288v-108l-124 -61l-64 15q11 2 23.5 2.5t22.5 0.5q75 0 118.5 -33.5t43.5 -89.5v-7q0 -56 -43 -94.5
t-120 -38.5z" />
    <glyph glyph-name="three.numr" horiz-adv-x="381" 
d="M187 243q-76 0 -119.5 39.5t-43.5 94.5h115q0 -16 13 -25.5t35 -9.5q23 0 35 11.5t12 28.5t-12.5 29t-34.5 12q-16 0 -28 -5t-20 -12l-52 88l105 50l-6 11h-144v102h288v-108l-124 -61l-64 15q11 2 23.5 2.5t22.5 0.5q75 0 118.5 -33.5t43.5 -89.5v-7q0 -56 -43 -94.5
t-120 -38.5z" />
    <glyph glyph-name="three.tnum" horiz-adv-x="676" 
d="M331 -20q-87 0 -151.5 31t-99.5 86t-35 125h180q0 -39 28.5 -63.5t77.5 -24.5q33 0 56.5 12.5t36.5 34t13 48.5q0 41 -28 68t-78 27q-27 0 -51 -10t-41 -25l-83 137l206 128l-9 16h-277v160h514v-159l-264 -161l-94 29q24 8 50.5 11.5t48.5 3.5q87 0 151.5 -27t99.5 -77
t35 -121v-12q0 -69 -35 -122.5t-99.5 -84t-151.5 -30.5z" />
    <glyph glyph-name="threequarters" unicode="&#xbe;" horiz-adv-x="962" 
d="M187 243q-76 0 -119.5 39.5t-43.5 94.5h115q0 -16 13 -25.5t35 -9.5q23 0 35 11.5t12 28.5t-12.5 29t-34.5 12q-16 0 -28 -5t-20 -12l-52 88l105 50l-6 11h-144v102h288v-108l-124 -61l-64 15q11 2 23.5 2.5t22.5 0.5q75 0 118.5 -33.5t43.5 -89.5v-7q0 -56 -43 -94.5
t-120 -38.5zM220 -22l416 702h120l-416 -702h-120zM576 64v123l152 247l90 -55l-125 -207l9 -14h241v-94h-367zM790 0v293h110v-293h-110z" />
    <glyph glyph-name="uni00B3" unicode="&#xb3;" horiz-adv-x="381" 
d="M187 408q-76 0 -119.5 39.5t-43.5 94.5h115q0 -16 13 -25.5t35 -9.5q23 0 35 11.5t12 28.5t-12.5 29t-34.5 12q-16 0 -28 -5t-20 -12l-52 88l105 50l-6 11h-144v102h288v-108l-124 -61l-64 15q11 2 23.5 2.5t22.5 0.5q75 0 118.5 -33.5t43.5 -89.5v-7q0 -56 -43 -94.5
t-120 -38.5z" />
    <glyph glyph-name="tilde" unicode="&#x2dc;" horiz-adv-x="300" 
d="M276 618q-31 0 -52 8t-37.5 18t-34 18t-41.5 8q-28 0 -49 -10.5t-36 -24.5l-26 124q18 18 44.5 31.5t66.5 13.5q32 0 52.5 -8t37 -18t34 -18t41.5 -8q29 0 50 10.5t36 24.5l26 -124q-18 -18 -45 -31.5t-67 -13.5z" />
    <glyph glyph-name="tildecomb" unicode="&#x303;" 
d="M276 618q-31 0 -52 8t-37.5 18t-34 18t-41.5 8q-28 0 -49 -10.5t-36 -24.5l-26 124q18 18 44.5 31.5t66.5 13.5q32 0 52.5 -8t37 -18t34 -18t41.5 -8q29 0 50 10.5t36 24.5l26 -124q-18 -18 -45 -31.5t-67 -13.5z" />
    <glyph glyph-name="tildecomb.case" 
d="M303 777q-33 0 -56 8.5t-41.5 19.5t-38 19.5t-45.5 8.5q-35 0 -58.5 -12t-37.5 -29l-26 124q18 21 47.5 36t74.5 15q33 0 56 -8.5t41.5 -19.5t38 -19.5t45.5 -8.5q35 0 59 12.5t38 28.5l26 -124q-18 -21 -48 -36t-75 -15z" />
    <glyph glyph-name="trademark" unicode="&#x2122;" horiz-adv-x="922" 
d="M396 326v404h155l86 -238h4l86 238h155v-404h-114v348l29 -1l-103 -283h-114l-103 283l27 1v-348h-108zM120 326v312h120v-312h-120zM10 628v102h340v-102h-340z" />
    <glyph glyph-name="two" unicode="2" horiz-adv-x="636" 
d="M54 0v160q0 48 16.5 84.5t52 64.5t92.5 52l111 47q43 18 62.5 43t19.5 63q0 35 -23.5 59.5t-68.5 24.5q-46 0 -69 -25.5t-23 -68.5h-180q0 72 31 128t91.5 88t149.5 32q88 0 148.5 -30.5t92 -83t31.5 -118.5v-12q0 -85 -46 -140t-148 -99l-111 -47q-24 -10 -35.5 -22
t-11.5 -32v-36l-43 28h393v-160h-532z" />
    <glyph glyph-name="two.dnom" horiz-adv-x="379" 
d="M36 0v86q0 41 22 69t72 48l57 23q21 9 33 20t12 33q0 15 -11 25.5t-34 10.5q-22 0 -32 -10.5t-10 -28.5h-115q0 57 38 97.5t119 40.5q80 0 119 -38.5t39 -91.5v-7q0 -44 -24.5 -75.5t-89.5 -57.5l-57 -23q-14 -5 -22.5 -10.5t-8.5 -16.5v-22l-27 24h226v-96h-306z" />
    <glyph glyph-name="two.numr" horiz-adv-x="379" 
d="M36 255v86q0 41 22 69t72 48l57 23q21 9 33 20t12 33q0 15 -11 25.5t-34 10.5q-22 0 -32 -10.5t-10 -28.5h-115q0 57 38 97.5t119 40.5q80 0 119 -38.5t39 -91.5v-7q0 -44 -24.5 -75.5t-89.5 -57.5l-57 -23q-14 -5 -22.5 -10.5t-8.5 -16.5v-22l-27 24h226v-96h-306z" />
    <glyph glyph-name="two.tnum" horiz-adv-x="676" 
d="M70 1v161q0 47 17 84t53.5 65.5t96.5 51.5l117 45q43 17 60.5 42.5t17.5 63.5q0 35 -25 59.5t-71 24.5t-71 -25.5t-25 -68.5h-180q0 72 31.5 128t93 88t151.5 32q89 0 150.5 -31t93.5 -83.5t32 -117.5v-12q0 -87 -50.5 -145.5t-150.5 -96.5l-117 -45q-25 -10 -34.5 -21.5
t-9.5 -29.5v-38l-41 29h401v-160h-540z" />
    <glyph glyph-name="uni00B2" unicode="&#xb2;" horiz-adv-x="379" 
d="M36 420v86q0 41 22 69t72 48l57 23q21 9 33 20t12 33q0 15 -11 25.5t-34 10.5q-22 0 -32 -10.5t-10 -28.5h-115q0 57 38 97.5t119 40.5q80 0 119 -38.5t39 -91.5v-7q0 -44 -24.5 -75.5t-89.5 -57.5l-57 -23q-14 -5 -22.5 -10.5t-8.5 -16.5v-22l-27 24h226v-96h-306z" />
    <glyph glyph-name="u" unicode="u" horiz-adv-x="650" 
d="M251 -18q-94 0 -145.5 61.5t-51.5 188.5v320h182v-325q0 -37 22 -60t59 -23t60 23t23 62v323h182v-552h-144v232h10q0 -85 -21.5 -140.5t-63.5 -82.5t-104 -27h-8z" />
    <glyph glyph-name="u.salt" horiz-adv-x="626" 
d="M313 -20q-87 0 -146 28.5t-89 84t-30 137.5v322h182v-327q0 -37 23 -60t60 -23q38 0 60.5 23t22.5 60v327h182v-322q0 -82 -30 -137.5t-89 -84t-146 -28.5z" />
    <glyph glyph-name="uacute" unicode="&#xfa;" horiz-adv-x="650" 
d="M251 -18q-94 0 -145.5 61.5t-51.5 188.5v320h182v-325q0 -37 22 -60t59 -23t60 23t23 62v323h182v-552h-144v232h10q0 -85 -21.5 -140.5t-63.5 -82.5t-104 -27h-8zM229 612l90 212h186l-116 -212h-160z" />
    <glyph glyph-name="uacute.salt" horiz-adv-x="626" 
d="M313 -20q-87 0 -146 28.5t-89 84t-30 137.5v322h182v-327q0 -37 23 -60t60 -23q38 0 60.5 23t22.5 60v327h182v-322q0 -82 -30 -137.5t-89 -84t-146 -28.5zM224 594l90 212h186l-116 -212h-160z" />
    <glyph glyph-name="ubreve" unicode="&#x16d;" horiz-adv-x="650" 
d="M251 -18q-94 0 -145.5 61.5t-51.5 188.5v320h182v-325q0 -37 22 -60t59 -23t60 23t23 62v323h182v-552h-144v232h10q0 -85 -21.5 -140.5t-63.5 -82.5t-104 -27h-8zM319 606q-90 0 -139.5 53t-52.5 165h134q2 -52 16 -71t42 -19t43.5 19t16.5 71h130q-3 -112 -51.5 -165
t-138.5 -53z" />
    <glyph glyph-name="ubreve.salt" horiz-adv-x="626" 
d="M313 -20q-87 0 -146 28.5t-89 84t-30 137.5v322h182v-327q0 -37 23 -60t60 -23q38 0 60.5 23t22.5 60v327h182v-322q0 -82 -30 -137.5t-89 -84t-146 -28.5zM314 588q-90 0 -139.5 53t-52.5 165h134q2 -52 16 -71t42 -19t43.5 19t16.5 71h130q-3 -112 -51.5 -165
t-138.5 -53z" />
    <glyph glyph-name="ucircumflex" unicode="&#xfb;" horiz-adv-x="650" 
d="M251 -18q-94 0 -145.5 61.5t-51.5 188.5v320h182v-325q0 -37 22 -60t59 -23t60 23t23 62v323h182v-552h-144v232h10q0 -85 -21.5 -140.5t-63.5 -82.5t-104 -27h-8zM106 612l101 212h224l103 -212h-154l-56 128h-14l-54 -128h-150z" />
    <glyph glyph-name="ucircumflex.salt" horiz-adv-x="626" 
d="M313 -20q-87 0 -146 28.5t-89 84t-30 137.5v322h182v-327q0 -37 23 -60t60 -23q38 0 60.5 23t22.5 60v327h182v-322q0 -82 -30 -137.5t-89 -84t-146 -28.5zM101 594l101 212h224l103 -212h-154l-56 128h-14l-54 -128h-150z" />
    <glyph glyph-name="udieresis" unicode="&#xfc;" horiz-adv-x="650" 
d="M251 -18q-94 0 -145.5 61.5t-51.5 188.5v320h182v-325q0 -37 22 -60t59 -23t60 23t23 62v323h182v-552h-144v232h10q0 -85 -21.5 -140.5t-63.5 -82.5t-104 -27h-8zM208 626q-49 0 -70.5 26.5t-21.5 65.5t21.5 65.5t70.5 26.5t70.5 -26.5t21.5 -65.5t-21.5 -65.5
t-70.5 -26.5zM428 626q-49 0 -70.5 26.5t-21.5 65.5t21.5 65.5t70.5 26.5t70.5 -26.5t21.5 -65.5t-21.5 -65.5t-70.5 -26.5z" />
    <glyph glyph-name="udieresis.salt" horiz-adv-x="626" 
d="M313 -20q-87 0 -146 28.5t-89 84t-30 137.5v322h182v-327q0 -37 23 -60t60 -23q38 0 60.5 23t22.5 60v327h182v-322q0 -82 -30 -137.5t-89 -84t-146 -28.5zM203 608q-49 0 -70.5 26.5t-21.5 65.5t21.5 65.5t70.5 26.5t70.5 -26.5t21.5 -65.5t-21.5 -65.5t-70.5 -26.5z
M423 608q-49 0 -70.5 26.5t-21.5 65.5t21.5 65.5t70.5 26.5t70.5 -26.5t21.5 -65.5t-21.5 -65.5t-70.5 -26.5z" />
    <glyph glyph-name="ugrave" unicode="&#xf9;" horiz-adv-x="650" 
d="M251 -18q-94 0 -145.5 61.5t-51.5 188.5v320h182v-325q0 -37 22 -60t59 -23t60 23t23 62v323h182v-552h-144v232h10q0 -85 -21.5 -140.5t-63.5 -82.5t-104 -27h-8zM236 612l-114 212h190l88 -212h-164z" />
    <glyph glyph-name="ugrave.salt" horiz-adv-x="626" 
d="M313 -20q-87 0 -146 28.5t-89 84t-30 137.5v322h182v-327q0 -37 23 -60t60 -23q38 0 60.5 23t22.5 60v327h182v-322q0 -82 -30 -137.5t-89 -84t-146 -28.5zM231 594l-114 212h190l88 -212h-164z" />
    <glyph glyph-name="uhungarumlaut" unicode="&#x171;" horiz-adv-x="650" 
d="M251 -18q-94 0 -145.5 61.5t-51.5 188.5v320h182v-325q0 -37 22 -60t59 -23t60 23t23 62v323h182v-552h-144v232h10q0 -85 -21.5 -140.5t-63.5 -82.5t-104 -27h-8zM343 612l84 212h138l-92 -212h-130zM155 612l84 212h138l-92 -212h-130z" />
    <glyph glyph-name="uhungarumlaut.salt" horiz-adv-x="626" 
d="M313 -20q-87 0 -146 28.5t-89 84t-30 137.5v322h182v-327q0 -37 23 -60t60 -23q38 0 60.5 23t22.5 60v327h182v-322q0 -82 -30 -137.5t-89 -84t-146 -28.5zM338 594l84 212h138l-92 -212h-130zM150 594l84 212h138l-92 -212h-130z" />
    <glyph glyph-name="umacron" unicode="&#x16b;" horiz-adv-x="650" 
d="M251 -18q-94 0 -145.5 61.5t-51.5 188.5v320h182v-325q0 -37 22 -60t59 -23t60 23t23 62v323h182v-552h-144v232h10q0 -85 -21.5 -140.5t-63.5 -82.5t-104 -27h-8zM138 642v126h360v-126h-360z" />
    <glyph glyph-name="umacron.salt" horiz-adv-x="626" 
d="M313 -20q-87 0 -146 28.5t-89 84t-30 137.5v322h182v-327q0 -37 23 -60t60 -23q38 0 60.5 23t22.5 60v327h182v-322q0 -82 -30 -137.5t-89 -84t-146 -28.5zM133 624v126h360v-126h-360z" />
    <glyph glyph-name="underscore" unicode="_" horiz-adv-x="594" 
d="M0 -184v136h594v-136h-594z" />
    <glyph glyph-name="uogonek" unicode="&#x173;" horiz-adv-x="650" 
d="M251 -18q-94 0 -145.5 61.5t-51.5 188.5v320h182v-325q0 -37 22 -60t59 -23t60 23t23 62v323h182v-552h-144v232h10q0 -85 -21.5 -140.5t-63.5 -82.5t-104 -27h-8zM537 -242q-66 0 -105.5 35t-39.5 95q0 46 18.5 81.5t58.5 76.5l33 34l78 -80l-33 -36q-11 -12 -18 -23.5
t-7 -24.5q0 -14 10.5 -22t28.5 -8q25 0 41 7v-128q-10 -3 -29.5 -5t-35.5 -2z" />
    <glyph glyph-name="uogonek.salt" horiz-adv-x="626" 
d="M313 -20q-87 0 -146 28.5t-89 84t-30 137.5v322h182v-327q0 -37 23 -60t60 -23q38 0 60.5 23t22.5 60v327h182v-322q0 -82 -30 -137.5t-89 -84t-146 -28.5zM385 -242q-66 0 -105.5 35t-39.5 95q0 46 18.5 81.5t58.5 76.5l33 34l78 -80l-33 -36q-11 -12 -18 -23.5
t-7 -24.5q0 -14 10.5 -22t28.5 -8q25 0 41 7v-128q-10 -3 -29.5 -5t-35.5 -2z" />
    <glyph glyph-name="uring" unicode="&#x16f;" horiz-adv-x="650" 
d="M251 -18q-94 0 -145.5 61.5t-51.5 188.5v320h182v-325q0 -37 22 -60t59 -23t60 23t23 62v323h182v-552h-144v232h10q0 -85 -21.5 -140.5t-63.5 -82.5t-104 -27h-8zM318 601q-59 0 -96 35t-37 90t37 90t96 35t96 -35t37 -90t-37 -90t-96 -35zM318 686q19 0 29.5 11.5
t10.5 28.5t-10.5 28.5t-29.5 11.5t-29.5 -11.5t-10.5 -28.5t10.5 -28.5t29.5 -11.5z" />
    <glyph glyph-name="uring.salt" horiz-adv-x="626" 
d="M313 -20q-87 0 -146 28.5t-89 84t-30 137.5v322h182v-327q0 -37 23 -60t60 -23q38 0 60.5 23t22.5 60v327h182v-322q0 -82 -30 -137.5t-89 -84t-146 -28.5zM313 583q-59 0 -96 35t-37 90t37 90t96 35t96 -35t37 -90t-37 -90t-96 -35zM313 668q19 0 29.5 11.5t10.5 28.5
t-10.5 28.5t-29.5 11.5t-29.5 -11.5t-10.5 -28.5t10.5 -28.5t29.5 -11.5z" />
    <glyph glyph-name="utilde" unicode="&#x169;" horiz-adv-x="650" 
d="M251 -18q-94 0 -145.5 61.5t-51.5 188.5v320h182v-325q0 -37 22 -60t59 -23t60 23t23 62v323h182v-552h-144v232h10q0 -85 -21.5 -140.5t-63.5 -82.5t-104 -27h-8zM400 618q-31 0 -52 8t-37.5 18t-34 18t-41.5 8q-28 0 -49 -10.5t-36 -24.5l-26 124q18 18 44.5 31.5
t66.5 13.5q32 0 52.5 -8t37 -18t34 -18t41.5 -8q29 0 50 10.5t36 24.5l26 -124q-18 -18 -45 -31.5t-67 -13.5z" />
    <glyph glyph-name="utilde.salt" horiz-adv-x="626" 
d="M313 -20q-87 0 -146 28.5t-89 84t-30 137.5v322h182v-327q0 -37 23 -60t60 -23q38 0 60.5 23t22.5 60v327h182v-322q0 -82 -30 -137.5t-89 -84t-146 -28.5zM395 600q-31 0 -52 8t-37.5 18t-34 18t-41.5 8q-28 0 -49 -10.5t-36 -24.5l-26 124q18 18 44.5 31.5t66.5 13.5
q32 0 52.5 -8t37 -18t34 -18t41.5 -8q29 0 50 10.5t36 24.5l26 -124q-18 -18 -45 -31.5t-67 -13.5z" />
    <glyph glyph-name="v" unicode="v" horiz-adv-x="609" 
d="M170 0l-158 552h186l147 -552h-175zM228 0v152h177v-152h-177zM292 0l125 552h174l-136 -552h-163z" />
    <glyph glyph-name="w" unicode="w" horiz-adv-x="946" 
d="M282 0l98 534h190l112 -534h-138l-116 530h84l-106 -530h-124zM248 0l-1 152h110l1 -152h-110zM159 0l-145 552h178l134 -552h-167zM593 0l1 152h110l-1 -152h-110zM637 0l121 552h166l-132 -552h-155z" />
    <glyph glyph-name="wacute" unicode="&#x1e83;" horiz-adv-x="946" 
d="M282 0l98 534h190l112 -534h-138l-116 530h84l-106 -530h-124zM248 0l-1 152h110l1 -152h-110zM159 0l-145 552h178l134 -552h-167zM593 0l1 152h110l-1 -152h-110zM637 0l121 552h166l-132 -552h-155zM385 612l90 212h186l-116 -212h-160z" />
    <glyph glyph-name="wcircumflex" unicode="&#x175;" horiz-adv-x="946" 
d="M282 0l98 534h190l112 -534h-138l-116 530h84l-106 -530h-124zM248 0l-1 152h110l1 -152h-110zM159 0l-145 552h178l134 -552h-167zM593 0l1 152h110l-1 -152h-110zM637 0l121 552h166l-132 -552h-155zM262 612l101 212h224l103 -212h-154l-56 128h-14l-54 -128h-150z
" />
    <glyph glyph-name="wdieresis" unicode="&#x1e85;" horiz-adv-x="946" 
d="M282 0l98 534h190l112 -534h-138l-116 530h84l-106 -530h-124zM248 0l-1 152h110l1 -152h-110zM159 0l-145 552h178l134 -552h-167zM593 0l1 152h110l-1 -152h-110zM637 0l121 552h166l-132 -552h-155zM364 626q-49 0 -70.5 26.5t-21.5 65.5t21.5 65.5t70.5 26.5
t70.5 -26.5t21.5 -65.5t-21.5 -65.5t-70.5 -26.5zM584 626q-49 0 -70.5 26.5t-21.5 65.5t21.5 65.5t70.5 26.5t70.5 -26.5t21.5 -65.5t-21.5 -65.5t-70.5 -26.5z" />
    <glyph glyph-name="wgrave" unicode="&#x1e81;" horiz-adv-x="946" 
d="M282 0l98 534h190l112 -534h-138l-116 530h84l-106 -530h-124zM248 0l-1 152h110l1 -152h-110zM159 0l-145 552h178l134 -552h-167zM593 0l1 152h110l-1 -152h-110zM637 0l121 552h166l-132 -552h-155zM392 612l-114 212h190l88 -212h-164z" />
    <glyph glyph-name="x" unicode="x" horiz-adv-x="614" 
d="M6 0l163 298l-4 -26l-154 280h196l89 -181h16l84 181h184l-147 -285l4 22l173 -289h-196l-108 193h-16l-100 -193h-184z" />
    <glyph glyph-name="y" unicode="y" horiz-adv-x="577" 
d="M70 -220v152h127q23 0 39 6t26 19.5t15 37.5l124 557h172l-145 -592q-16 -68 -44.5 -107.5t-78 -56t-128.5 -16.5h-107zM245 12v140h116v-140h-116zM161 12l-161 540h182l151 -540h-172z" />
    <glyph glyph-name="yacute" unicode="&#xfd;" horiz-adv-x="577" 
d="M70 -220v152h127q23 0 39 6t26 19.5t15 37.5l124 557h172l-145 -592q-16 -68 -44.5 -107.5t-78 -56t-128.5 -16.5h-107zM245 12v140h116v-140h-116zM161 12l-161 540h182l151 -540h-172zM203 612l90 212h186l-116 -212h-160z" />
    <glyph glyph-name="ycircumflex" unicode="&#x177;" horiz-adv-x="577" 
d="M70 -220v152h127q23 0 39 6t26 19.5t15 37.5l124 557h172l-145 -592q-16 -68 -44.5 -107.5t-78 -56t-128.5 -16.5h-107zM245 12v140h116v-140h-116zM161 12l-161 540h182l151 -540h-172zM80 612l101 212h224l103 -212h-154l-56 128h-14l-54 -128h-150z" />
    <glyph glyph-name="ydieresis" unicode="&#xff;" horiz-adv-x="577" 
d="M70 -220v152h127q23 0 39 6t26 19.5t15 37.5l124 557h172l-145 -592q-16 -68 -44.5 -107.5t-78 -56t-128.5 -16.5h-107zM245 12v140h116v-140h-116zM161 12l-161 540h182l151 -540h-172zM182 626q-49 0 -70.5 26.5t-21.5 65.5t21.5 65.5t70.5 26.5t70.5 -26.5t21.5 -65.5
t-21.5 -65.5t-70.5 -26.5zM402 626q-49 0 -70.5 26.5t-21.5 65.5t21.5 65.5t70.5 26.5t70.5 -26.5t21.5 -65.5t-21.5 -65.5t-70.5 -26.5z" />
    <glyph glyph-name="yen" unicode="&#xa5;" horiz-adv-x="680" 
d="M232 294l-216 436h188l142 -305l-25 9h66l-27 -9l126 305h178l-198 -436h-234zM264 0v318h170v-318h-170zM62 142v86h570v-86h-570zM62 294v86h570v-86h-570z" />
    <glyph glyph-name="yen.tnum" horiz-adv-x="676" 
d="M230 294l-210 436h188l136 -297l-25 9h66l-27 -9l120 297h178l-192 -436h-234zM262 0v318h170v-318h-170zM64 142v86h562v-86h-562zM64 294v86h562v-86h-562z" />
    <glyph glyph-name="ygrave" unicode="&#x1ef3;" horiz-adv-x="577" 
d="M70 -220v152h127q23 0 39 6t26 19.5t15 37.5l124 557h172l-145 -592q-16 -68 -44.5 -107.5t-78 -56t-128.5 -16.5h-107zM245 12v140h116v-140h-116zM161 12l-161 540h182l151 -540h-172zM210 612l-114 212h190l88 -212h-164z" />
    <glyph glyph-name="z" unicode="z" horiz-adv-x="506" 
d="M30 0v113l245 295v-16l-26 32l20 -10h-237v138h448v-113l-245 -295v16l26 -32l-20 10h245v-138h-456z" />
    <glyph glyph-name="zacute" unicode="&#x17a;" horiz-adv-x="506" 
d="M30 0v113l245 295v-16l-26 32l20 -10h-237v138h448v-113l-245 -295v16l26 -32l-20 10h245v-138h-456zM165 612l90 212h186l-116 -212h-160z" />
    <glyph glyph-name="zcaron" unicode="&#x17e;" horiz-adv-x="506" 
d="M30 0v113l245 295v-16l-26 32l20 -10h-237v138h448v-113l-245 -295v16l26 -32l-20 10h245v-138h-456zM133 612l-101 212h154l56 -128h14l50 128h150l-95 -212h-228z" />
    <glyph glyph-name="zdotaccent" unicode="&#x17c;" horiz-adv-x="506" 
d="M30 0v113l245 295v-16l-26 32l20 -10h-237v138h448v-113l-245 -295v16l26 -32l-20 10h245v-138h-456zM254 626q-49 0 -70.5 26.5t-21.5 65.5t21.5 65.5t70.5 26.5t70.5 -26.5t21.5 -65.5t-21.5 -65.5t-70.5 -26.5z" />
    <glyph glyph-name="zero" unicode="0" horiz-adv-x="769" 
d="M385 -20q-89 0 -152 28.5t-103 78t-59 114t-19 135.5v58q0 100 36 181t110 129t187 48t186.5 -48t109.5 -129t36 -181v-58q0 -71 -19 -135.5t-58.5 -114t-102.5 -78t-152 -28.5zM385 152q74 0 110 52t36 160q0 115 -37 165.5t-109 50.5q-73 0 -110 -50.5t-37 -163.5
q0 -109 36.5 -161.5t110.5 -52.5z" />
    <glyph glyph-name="zero.dnom" horiz-adv-x="457" 
d="M229 -12q-71 0 -114 28.5t-61.5 73.5t-18.5 92v38q0 50 20 94.5t63 72t111 27.5t110.5 -27.5t62.5 -72t20 -94.5v-38q0 -47 -18.5 -92t-61 -73.5t-113.5 -28.5zM229 98q38 0 55.5 24.5t17.5 77.5q0 57 -17.5 80.5t-55.5 23.5t-56 -23t-18 -79q0 -55 18 -79.5t56 -24.5z
" />
    <glyph glyph-name="zero.numr" horiz-adv-x="457" 
d="M229 243q-71 0 -114 28.5t-61.5 73.5t-18.5 92v38q0 50 20 94.5t63 72t111 27.5t110.5 -27.5t62.5 -72t20 -94.5v-38q0 -47 -18.5 -92t-61 -73.5t-113.5 -28.5zM229 353q38 0 55.5 24.5t17.5 77.5q0 57 -17.5 80.5t-55.5 23.5t-56 -23t-18 -79q0 -55 18 -79.5t56 -24.5z
" />
    <glyph glyph-name="zero.tnum" horiz-adv-x="676" 
d="M338 -22q-102 0 -167 46t-96 127.5t-31 189.5v46q0 113 33 194.5t98.5 126t162.5 44.5t162.5 -44.5t98.5 -126t33 -194.5v-46q0 -108 -31 -189.5t-96 -127.5t-167 -46zM338 150q41 0 65.5 19.5t35.5 66.5t11 127q0 84 -11.5 131t-36 66.5t-64.5 19.5q-39 0 -64 -19
t-36.5 -66t-11.5 -130q0 -81 11 -128t36 -67t65 -20z" />
    </font>
</defs>
</svg>
