<svg width="20" height="20" viewBox="0 0 20 20" fill="none" xmlns="http://www.w3.org/2000/svg">
<path d="M7.79412 13.5V15.25C7.79412 15.7141 7.98004 16.1592 8.31099 16.4874C8.64194 16.8156 9.09079 17 9.55882 17L15.7353 17C16.2033 17 16.6522 16.8156 16.9831 16.4874C17.3141 16.1592 17.5 15.7141 17.5 15.25L17.5 4.75C17.5 4.28587 17.3141 3.84075 16.9831 3.51256C16.6522 3.18438 16.2033 3 15.7353 3L9.55882 3C9.0908 3 8.64194 3.18437 8.31099 3.51256C7.98004 3.84075 7.79412 4.28587 7.79412 4.75V6.5M13.0882 10L2.5 10M2.5 10L5.14706 12.625M2.5 10L5.14706 7.375" stroke="#013912" stroke-linecap="round" stroke-linejoin="round"/>
</svg>
