<svg width="25" height="24" viewBox="0 0 25 24"  xmlns="http://www.w3.org/2000/svg">
<path d="M11.108 10H13.1199V15H11.108V10ZM11.107 16H13.1189V18H11.107V16Z" />
<path d="M13.8914 4.19994C13.5413 3.54494 12.8593 3.13794 12.1129 3.13794C11.3665 3.13794 10.6845 3.54494 10.3344 4.20094L2.95275 18.0639C2.78895 18.3684 2.70781 18.71 2.71734 19.0551C2.72686 19.4002 2.82672 19.7369 3.00707 20.0319C3.18482 20.3283 3.43725 20.5735 3.73945 20.7432C4.04164 20.913 4.38315 21.0015 4.73026 20.9999H19.4956C20.2078 20.9999 20.8526 20.6379 21.2197 20.0319C21.3998 19.7368 21.4995 19.4001 21.509 19.0551C21.5185 18.71 21.4376 18.3685 21.2741 18.0639L13.8914 4.19994ZM4.73026 18.9999L12.1129 5.13694L19.5006 18.9999H4.73026Z" />
</svg>
