<svg width="20" height="20" viewBox="0 0 20 20" xmlns="http://www.w3.org/2000/svg">
<path d="M15 6.5C15 9.26142 12.7614 11.5 10 11.5M15 6.5C15 3.73858 12.7614 1.5 10 1.5M15 6.5H5M10 11.5C7.23858 11.5 5 9.26142 5 6.5M10 11.5C11.1046 11.5 12 9.26142 12 6.5C12 3.73858 11.1046 1.5 10 1.5M10 11.5C8.89543 11.5 8 9.26142 8 6.5C8 3.73858 8.89543 1.5 10 1.5M5 6.5C5 3.73858 7.23858 1.5 10 1.5M12 16.5C12 17.6046 11.1046 18.5 10 18.5C8.89543 18.5 8 17.6046 8 16.5M12 16.5C12 15.3954 11.1046 14.5 10 14.5C8.89543 14.5 8 15.3954 8 16.5M12 16.5H18M8 16.5H2" stroke-linecap="round" stroke-linejoin="round"/>
</svg>
