<svg width="18" height="18" viewBox="0 0 18 18" xmlns="http://www.w3.org/2000/svg">
<g clip-path="url(#clip0_401_1057)">
<path d="M3.375 10.125C3.375 10.57 3.50696 11.005 3.75419 11.375C4.00143 11.745 4.35283 12.0334 4.76396 12.2037C5.1751 12.374 5.6275 12.4186 6.06395 12.3318C6.50041 12.245 6.90132 12.0307 7.21599 11.716C7.53066 11.4013 7.74495 11.0004 7.83177 10.564C7.91858 10.1275 7.87403 9.6751 7.70373 9.26396C7.53343 8.85283 7.24504 8.50143 6.87503 8.25419C6.50502 8.00696 6.07001 7.875 5.625 7.875C5.02826 7.875 4.45597 8.11205 4.03401 8.53401C3.61205 8.95597 3.375 9.52826 3.375 10.125ZM6.75 10.125C6.75 10.3475 6.68402 10.565 6.5604 10.75C6.43679 10.935 6.26109 11.0792 6.05552 11.1644C5.84995 11.2495 5.62375 11.2718 5.40552 11.2284C5.18729 11.185 4.98684 11.0778 4.8295 10.9205C4.67217 10.7632 4.56502 10.5627 4.52162 10.3445C4.47821 10.1262 4.50049 9.90005 4.58564 9.69448C4.67078 9.48891 4.81498 9.31321 4.99998 9.1896C5.18499 9.06598 5.4025 9 5.625 9C5.92337 9 6.20952 9.11853 6.4205 9.3295C6.63147 9.54048 6.75 9.82663 6.75 10.125ZM8.4375 13.5H2.8125C2.06658 13.5 1.35121 13.7963 0.823762 14.3238C0.296316 14.8512 0 15.5666 0 16.3125C0 16.7601 0.17779 17.1893 0.494257 17.5057C0.810725 17.8222 1.23995 18 1.6875 18H9.5625C10.0101 18 10.4393 17.8222 10.7557 17.5057C11.0722 17.1893 11.25 16.7601 11.25 16.3125C11.25 15.5666 10.9537 14.8512 10.4262 14.3238C9.89879 13.7963 9.18342 13.5 8.4375 13.5ZM9.5625 16.875H1.6875C1.53832 16.875 1.39524 16.8157 1.28975 16.7102C1.18426 16.6048 1.125 16.4617 1.125 16.3125C1.125 15.8649 1.30279 15.4357 1.61926 15.1193C1.93572 14.8028 2.36495 14.625 2.8125 14.625H8.4375C8.88505 14.625 9.31428 14.8028 9.63074 15.1193C9.94721 15.4357 10.125 15.8649 10.125 16.3125C10.125 16.4617 10.0657 16.6048 9.96025 16.7102C9.85476 16.8157 9.71168 16.875 9.5625 16.875ZM18 0.5625V9.5625C18 9.71168 17.9407 9.85476 17.8352 9.96025C17.7298 10.0657 17.5867 10.125 17.4375 10.125H11.25V11.25H14.0625C14.2117 11.25 14.3548 11.3093 14.4602 11.4148C14.5657 11.5202 14.625 11.6633 14.625 11.8125C14.625 11.9617 14.5657 12.1048 14.4602 12.2102C14.3548 12.3157 14.2117 12.375 14.0625 12.375H9.5625C9.41332 12.375 9.27024 12.3157 9.16475 12.2102C9.05926 12.1048 9 11.9617 9 11.8125C9 11.6633 9.05926 11.5202 9.16475 11.4148C9.27024 11.3093 9.41332 11.25 9.5625 11.25H10.125V10.125H9.5625C9.41332 10.125 9.27024 10.0657 9.16475 9.96025C9.05926 9.85476 9 9.71168 9 9.5625C9 9.41332 9.05926 9.27024 9.16475 9.16475C9.27024 9.05926 9.41332 9 9.5625 9H16.875V1.125H4.5V6.1875C4.5 6.33668 4.44074 6.47976 4.33525 6.58525C4.22976 6.69074 4.08668 6.75 3.9375 6.75C3.78832 6.75 3.64524 6.69074 3.53975 6.58525C3.43426 6.47976 3.375 6.33668 3.375 6.1875V0.5625C3.375 0.413316 3.43426 0.270242 3.53975 0.164752C3.64524 0.0592632 3.78832 0 3.9375 0L17.4375 0C17.5867 0 17.7298 0.0592632 17.8352 0.164752C17.9407 0.270242 18 0.413316 18 0.5625ZM7.3125 6.75C7.23873 6.7509 7.16558 6.73635 7.09777 6.70729C7.02996 6.67822 6.96898 6.63529 6.91875 6.58125C6.86494 6.53075 6.82205 6.46975 6.79274 6.40203C6.76342 6.33431 6.74829 6.2613 6.74829 6.1875C6.74829 6.1137 6.76342 6.04069 6.79274 5.97297C6.82205 5.90525 6.86494 5.84425 6.91875 5.79375L9.16875 3.54375C9.21925 3.48994 9.28025 3.44705 9.34797 3.41774C9.41569 3.38842 9.4887 3.37329 9.5625 3.37329C9.6363 3.37329 9.70931 3.38842 9.77703 3.41774C9.84475 3.44705 9.90575 3.48994 9.95625 3.54375L11.8125 5.38875L14.7937 2.41875C14.8455 2.36704 14.9068 2.32603 14.9744 2.29804C15.042 2.27006 15.1144 2.25565 15.1875 2.25565C15.2606 2.25565 15.333 2.27006 15.4006 2.29804C15.4682 2.32603 15.5295 2.36704 15.5813 2.41875C15.633 2.47046 15.674 2.53184 15.702 2.5994C15.7299 2.66696 15.7443 2.73937 15.7443 2.8125C15.7443 2.88563 15.7299 2.95804 15.702 3.0256C15.674 3.09316 15.633 3.15454 15.5813 3.20625L12.2063 6.58125C12.1557 6.63506 12.0948 6.67795 12.027 6.70726C11.9593 6.73658 11.8863 6.75171 11.8125 6.75171C11.7387 6.75171 11.6657 6.73658 11.598 6.70726C11.5302 6.67795 11.4693 6.63506 11.4187 6.58125L9.5625 4.73625L7.70625 6.58125C7.65602 6.63529 7.59504 6.67822 7.52723 6.70729C7.45942 6.73635 7.38627 6.7509 7.3125 6.75Z"/>
</g>
<defs>
<clipPath id="clip0_401_1057">
<rect width="18" height="18" fill="white"/>
</clipPath>
</defs>
</svg>
