<svg width="14" height="18" viewBox="0 0 14 18" xmlns="http://www.w3.org/2000/svg">
<path d="M4.55548 15.475C4.83162 15.475 5.05548 15.2512 5.05548 14.975C5.05548 14.6989 4.83162 14.475 4.55548 14.475V15.475ZM0.555966 12.3085L0.0559664 12.3085L0.555966 12.3085ZM1.05548 0.999979C1.05547 0.723836 0.831602 0.499988 0.555459 0.5C0.279317 0.500012 0.0554691 0.723879 0.055481 1.00002L1.05548 0.999979ZM4.55548 5.59739C4.83162 5.59739 5.05548 5.37353 5.05548 5.09739C5.05548 4.82125 4.83162 4.59739 4.55548 4.59739V5.59739ZM12.5555 7.22222L12.5555 6.72222L12.5555 6.72222L12.5555 7.22222ZM8.55548 7.2222L8.55547 7.7222L8.55548 7.7222L8.55548 7.2222ZM13.4445 1L13.9445 1.00001C13.9445 0.867401 13.8918 0.740221 13.7981 0.64645C13.7043 0.55268 13.5771 0.5 13.4445 0.5V1ZM13.4444 6.33335L13.9444 6.33337L13.9444 6.33336L13.4444 6.33335ZM7.66659 6.33331L7.16659 6.33331L7.16659 6.33331L7.66659 6.33331ZM7.66662 2.77778L7.33444 2.40408C7.22769 2.49896 7.16662 2.63496 7.16662 2.77777L7.66662 2.77778ZM9.66659 1V0.5C9.54413 0.5 9.42593 0.54494 9.33441 0.626298L9.66659 1ZM12.5555 17L12.5555 16.5L12.5555 16.5L12.5555 17ZM8.55548 17L8.55547 17.5L8.55547 17.5L8.55548 17ZM13.4445 10.7778L13.9445 10.7778C13.9445 10.6452 13.8918 10.518 13.7981 10.4242C13.7043 10.3305 13.5771 10.2778 13.4445 10.2778V10.7778ZM13.4444 16.1111L13.9444 16.1111L13.9444 16.1111L13.4444 16.1111ZM7.66659 16.1111L7.16659 16.1111L7.16659 16.1111L7.66659 16.1111ZM7.66662 12.5556L7.33444 12.1819C7.22769 12.2767 7.16662 12.4127 7.16662 12.5556L7.66662 12.5556ZM9.66659 10.7778V10.2778C9.54413 10.2778 9.42593 10.3227 9.33441 10.4041L9.66659 10.7778ZM4.55548 14.475H3.22263V15.475H4.55548V14.475ZM1.05597 12.3085L1.05566 5.09737L0.0556568 5.09741L0.0559664 12.3085L1.05597 12.3085ZM1.05566 5.09737L1.05548 0.999979L0.055481 1.00002L0.0556568 5.09741L1.05566 5.09737ZM4.55548 4.59739H0.555657V5.59739H4.55548V4.59739ZM3.22263 14.475C2.02605 14.475 1.05602 13.505 1.05597 12.3085L0.0559664 12.3085C0.0560414 14.0573 1.47378 15.475 3.22263 15.475V14.475ZM12.5555 6.72222L8.55548 6.7222L8.55548 7.7222L12.5555 7.72222L12.5555 6.72222ZM12.9445 0.999989L12.9444 6.33334L13.9444 6.33336L13.9445 1.00001L12.9445 0.999989ZM12.5555 7.72222C13.3225 7.72222 13.9444 7.10042 13.9444 6.33337L12.9444 6.33334C12.9444 6.54812 12.7703 6.72222 12.5555 6.72222L12.5555 7.72222ZM7.16659 6.33331C7.16659 7.10037 7.78841 7.7222 8.55547 7.7222L8.55548 6.7222C8.3407 6.7222 8.16659 6.54809 8.16659 6.33331L7.16659 6.33331ZM8.16659 6.33331L8.16662 2.77778L7.16662 2.77777L7.16659 6.33331L8.16659 6.33331ZM9.66659 1.5H13.4445V0.5H9.66659V1.5ZM9.33441 0.626298L7.33444 2.40408L7.9988 3.15148L9.99878 1.3737L9.33441 0.626298ZM12.5555 16.5L8.55548 16.5L8.55547 17.5L12.5555 17.5L12.5555 16.5ZM12.9445 10.7778L12.9444 16.1111L13.9444 16.1111L13.9445 10.7778L12.9445 10.7778ZM12.5555 17.5C13.3225 17.5 13.9444 16.8782 13.9444 16.1111L12.9444 16.1111C12.9444 16.3259 12.7703 16.5 12.5555 16.5L12.5555 17.5ZM7.16659 16.1111C7.16659 16.8781 7.78841 17.5 8.55547 17.5L8.55548 16.5C8.3407 16.5 8.16659 16.3259 8.16659 16.1111L7.16659 16.1111ZM8.16659 16.1111L8.16662 12.5556L7.16662 12.5556L7.16659 16.1111L8.16659 16.1111ZM9.66659 11.2778H13.4445V10.2778H9.66659V11.2778ZM9.33441 10.4041L7.33444 12.1819L7.9988 12.9293L9.99878 11.1515L9.33441 10.4041Z"/>
</svg>
