<svg width="20" height="20" viewBox="0 0 20 20"  xmlns="http://www.w3.org/2000/svg">
<path fill-rule="evenodd" clip-rule="evenodd" d="M11.3969 3.59689C11.0407 2.13437 8.95934 2.13437 8.60308 3.59689C8.54989 3.81666 8.44557 4.02077 8.29859 4.1926C8.15162 4.36443 7.96615 4.49914 7.75728 4.58575C7.54842 4.67237 7.32205 4.70845 7.0966 4.69106C6.87115 4.67366 6.653 4.60329 6.45989 4.48566C5.1736 3.70189 3.70168 5.17379 4.48545 6.46006C4.99172 7.2907 4.54264 8.37447 3.59761 8.60416C2.13413 8.95948 2.13413 11.0417 3.59761 11.3961C3.81744 11.4493 4.02159 11.5538 4.19342 11.7008C4.36526 11.8479 4.49993 12.0335 4.58646 12.2425C4.673 12.4515 4.70895 12.6779 4.6914 12.9034C4.67385 13.1289 4.60328 13.3471 4.48545 13.5402C3.70168 14.8264 5.1736 16.2983 6.45989 15.5146C6.65296 15.3967 6.87114 15.3262 7.09664 15.3086C7.32215 15.2911 7.54862 15.327 7.7576 15.4136C7.96658 15.5001 8.15217 15.6348 8.29925 15.8066C8.44634 15.9784 8.55076 16.1826 8.60402 16.4024C8.95934 17.8659 11.0416 17.8659 11.396 16.4024C11.4494 16.1827 11.5539 15.9787 11.7011 15.807C11.8482 15.6353 12.0337 15.5007 12.2427 15.4142C12.4516 15.3277 12.678 15.2917 12.9034 15.3091C13.1288 15.3266 13.347 15.397 13.5401 15.5146C14.8264 16.2983 16.2983 14.8264 15.5145 13.5402C15.3969 13.3471 15.3265 13.1289 15.3091 12.9035C15.2916 12.678 15.3276 12.4516 15.4141 12.2427C15.5006 12.0338 15.6352 11.8483 15.8069 11.7011C15.9787 11.554 16.1827 11.4495 16.4024 11.3961C17.8659 11.0408 17.8659 8.95854 16.4024 8.60416C16.1826 8.5509 15.9784 8.44648 15.8066 8.2994C15.6347 8.15231 15.5001 7.96673 15.4135 7.75775C15.327 7.54877 15.291 7.32231 15.3086 7.09681C15.3262 6.8713 15.3967 6.65313 15.5145 6.46006C16.2983 5.17379 14.8264 3.70189 13.5401 4.48566C13.347 4.60348 13.1289 4.67405 12.9034 4.6916C12.6778 4.70915 12.4514 4.6732 12.2424 4.58666C12.0334 4.50013 11.8478 4.36546 11.7007 4.19363C11.5537 4.0218 11.4492 3.81766 11.396 3.59783L11.3969 3.59689Z" />
<path d="M11.6667 10C11.6667 10.9205 10.9205 11.6667 10 11.6667C9.07953 11.6667 8.33333 10.9205 8.33333 10C8.33333 9.07953 9.07953 8.33333 10 8.33333C10.9205 8.33333 11.6667 9.07953 11.6667 10Z" />
</svg>
