<svg width="18" height="18" viewBox="0 0 18 18" xmlns="http://www.w3.org/2000/svg">
<path d="M12.8019 1.32273L12.4394 1.6672L12.4394 1.6672L12.8019 1.32273ZM14.0003 2.5L14.3337 2.12738V2.12738L14.0003 2.5ZM15.2253 3.71261L14.8653 4.05963L14.8653 4.05963L15.2253 3.71261ZM15.5003 4.39819L15.0003 4.39818V4.39819H15.5003ZM2.50008 2.99999L2.00008 2.99999V2.99999H2.50008ZM1 11C0.723858 11 0.5 11.2239 0.5 11.5C0.5 11.7761 0.723858 12 1 12V11ZM17 12C17.2761 12 17.5 11.7761 17.5 11.5C17.5 11.2239 17.2761 11 17 11V12ZM2.00008 7.5C2.00008 7.77614 2.22393 8 2.50008 8C2.77622 8 3.00008 7.77614 3.00008 7.5H2.00008ZM15.0003 7.5C15.0003 7.77614 15.2242 8 15.5003 8C15.7764 8 16.0003 7.77614 16.0003 7.5H15.0003ZM3.00031 15C3.00031 14.7239 2.77645 14.5 2.50031 14.5C2.22417 14.5 2.00031 14.7239 2.00031 15H3.00031ZM2.00031 17C2.00031 17.2761 2.22417 17.5 2.50031 17.5C2.77645 17.5 3.00031 17.2761 3.00031 17H2.00031ZM10.0003 15C10.0003 14.7239 9.77645 14.5 9.50031 14.5C9.22417 14.5 9.00031 14.7239 9.00031 15H10.0003ZM9.00031 17C9.00031 17.2761 9.22417 17.5 9.50031 17.5C9.77645 17.5 10.0003 17.2761 10.0003 17H9.00031ZM17.0003 15C17.0003 14.7239 16.7765 14.5 16.5003 14.5C16.2242 14.5 16.0003 14.7239 16.0003 15H17.0003ZM16.0003 17C16.0003 17.2761 16.2242 17.5 16.5003 17.5C16.7765 17.5 17.0003 17.2761 17.0003 17H16.0003ZM6.50031 15C6.50031 14.7239 6.27645 14.5 6.00031 14.5C5.72417 14.5 5.50031 14.7239 5.50031 15H6.50031ZM5.50031 16C5.50031 16.2761 5.72417 16.5 6.00031 16.5C6.27645 16.5 6.50031 16.2761 6.50031 16H5.50031ZM13.5003 15C13.5003 14.7239 13.2765 14.5 13.0003 14.5C12.7242 14.5 12.5003 14.7239 12.5003 15H13.5003ZM12.5003 16C12.5003 16.2761 12.7242 16.5 13.0003 16.5C13.2765 16.5 13.5003 16.2761 13.5003 16H12.5003ZM4.50008 1.5H11.5003V0.5H4.50008V1.5ZM11.5003 1.5H12.0582V0.5H11.5003V1.5ZM12.4394 1.6672C12.7341 1.97717 13.2068 2.46093 13.6669 2.87262L14.3337 2.12738C13.9037 1.74264 13.4528 1.28179 13.1643 0.978266L12.4394 1.6672ZM13.6669 2.87262C13.9997 3.17034 14.535 3.71696 14.8653 4.05963L15.5853 3.36559C15.2593 3.02745 14.6986 2.45385 14.3337 2.12738L13.6669 2.87262ZM16.0003 4.39821C16.0003 4.01525 15.8541 3.64443 15.5853 3.36559L14.8653 4.05963C14.9514 4.14897 15.0003 4.26974 15.0003 4.39818L16.0003 4.39821ZM12.0582 1.5C12.1985 1.5 12.3368 1.55924 12.4394 1.6672L13.1643 0.978267C12.8789 0.677984 12.4811 0.5 12.0582 0.5V1.5ZM4.50008 0.5C3.11937 0.5 2.00009 1.61928 2.00008 2.99999L3.00008 2.99999C3.00008 2.17157 3.67165 1.5 4.50008 1.5V0.5ZM11.0003 1V4H12.0003V1H11.0003ZM12.5003 5.5H15.5003V4.5H12.5003V5.5ZM11.0003 4C11.0003 4.82843 11.6719 5.5 12.5003 5.5V4.5C12.2242 4.5 12.0003 4.27614 12.0003 4H11.0003ZM1 12H17V11H1V12ZM2.00008 2.99999V7.5H3.00008V2.99999H2.00008ZM15.0003 4.39819V5H16.0003V4.39819H15.0003ZM15.0003 5V7.5H16.0003V5H15.0003ZM2.00031 15V17H3.00031V15H2.00031ZM9.00031 15V17H10.0003V15H9.00031ZM16.0003 15V17H17.0003V15H16.0003ZM5.50031 15V16H6.50031V15H5.50031ZM12.5003 15V16H13.5003V15H12.5003Z"/>
</svg>
