<svg width="144" height="83" viewBox="0 0 144 83" fill="none" xmlns="http://www.w3.org/2000/svg">
<g clip-path="url(#clip0_401_1081)">
<path d="M39.4995 83.0006L73.4892 48.576L79.745 54.3524L51.4577 83.0006H39.4995ZM93.9024 64.9691L75.7859 46.6216L114.966 6.7632L110.601 2.63965L127.148 0L125.702 16.9007L121.074 12.5304L87.7843 46.2459L106.272 64.9691H93.9024ZM57.2306 28.0517L69.9011 28.1057L79.659 37.9883L73.351 44.3769L57.2306 28.0517Z" fill="white"/>
<path d="M14.1299 49.7788L13.6683 49.6162C13.0661 50.9578 11.8418 51.4863 9.35303 51.4863C6.36247 51.4863 4.31524 49.7991 4.31524 47.0956C4.31524 44.2294 6.74382 42.6642 9.35303 42.6642C11.8418 42.6642 13.0862 43.2943 13.6683 44.575L14.1299 44.392L13.0661 39.859C12.8576 39.9528 12.632 40.0013 12.4038 40.0013C11.0242 39.7573 9.62899 39.6146 8.22906 39.5744C3.49233 39.5744 0 42.7862 0 47.0549C0 51.4456 3.39198 54.576 8.22906 54.576C9.62184 54.5425 11.0104 54.4066 12.3837 54.1695C12.6116 54.172 12.8368 54.2204 13.0461 54.3118L14.1299 49.7788ZM32.2941 47.1565C32.2941 42.3186 28.019 39.4902 23.7639 39.4902C19.5089 39.4902 15.2137 42.4406 15.2137 47.1565C15.2137 52.0351 19.4688 54.6167 23.7238 54.6167C27.9989 54.6167 32.2941 52.0554 32.2941 47.1565ZM27.9989 47.1972C27.9989 50.0634 25.6105 51.3033 23.7238 51.3033C23.1794 51.3103 22.639 51.2085 22.1335 51.0039C21.628 50.7992 21.1673 50.4956 20.7777 50.1105C20.3881 49.7254 20.0773 49.2663 19.8631 48.7594C19.6488 48.2525 19.5353 47.7079 19.529 47.1565C19.5157 46.5923 19.6156 46.0312 19.8228 45.5072C20.0299 44.9832 20.3399 44.5073 20.7339 44.1082C21.128 43.7091 21.5979 43.3951 22.1153 43.1854C22.6327 42.9756 23.1867 42.8744 23.7439 42.8878C24.3066 42.873 24.8664 42.9744 25.3893 43.1857C25.9121 43.3971 26.387 43.714 26.7851 44.1171C27.1831 44.5203 27.496 45.0012 27.7047 45.5308C27.9134 46.0603 28.0135 46.6273 27.9989 47.1972ZM50.117 47.0549C50.117 42.6235 46.6247 39.6354 41.045 39.6354C37.934 39.6354 35.0237 39.8387 33.4782 39.9607V40.4892C34.2409 40.4892 34.5821 40.8347 34.5821 41.8511V52.4794C34.5821 53.3332 34.2209 53.6584 33.4782 53.6584V54.1898C35.0438 54.3118 38.1146 54.4947 41.2256 54.4947C47.568 54.4947 50.117 51.344 50.117 47.0549ZM45.8018 47.0346C45.8018 49.8804 43.895 51.283 41.1855 51.283C40.2221 51.283 39.3791 51.2627 38.777 51.2017V42.9691C39.511 42.9039 40.2479 42.8768 40.9847 42.8878C43.7144 42.8878 45.8018 44.0668 45.8018 47.0346ZM65.7723 50.043L65.2505 49.8601C65.123 50.209 64.8887 50.5075 64.5817 50.7118C64.2747 50.9161 63.9112 51.0155 63.5444 50.9955H56.5999V48.5795H61.6979C62.581 48.5795 62.8821 48.8437 62.8821 49.4332H63.3839V44.5546H62.8821C62.8821 45.1441 62.561 45.4084 61.6979 45.4084H56.5999V43.1724H63.5846C63.9339 43.1512 64.2807 43.2445 64.5735 43.4385C64.8663 43.6326 65.0896 43.917 65.2103 44.2497L65.7121 44.0668L64.8089 39.798C64.4191 39.9191 64.0122 39.974 63.6046 39.9607H51.3012V40.4892C52.0237 40.4892 52.4051 40.8347 52.4051 41.7088V52.4417C52.4051 53.3564 52.084 53.6613 51.3012 53.6613V54.1898H63.7251C64.1157 54.1942 64.5031 54.2628 64.872 54.3931L65.7723 50.043Z" fill="white"/>
<path d="M111.866 53.9458V53.4173C111.644 53.4178 111.425 53.3597 111.232 53.2487C111.038 53.1377 110.877 52.9777 110.763 52.7843C109.763 51.5651 108.926 50.2176 108.274 48.7769C110.542 48.0451 111.866 46.5815 111.866 44.4878C111.866 40.646 108.133 39.4873 103.738 39.4873C102.152 39.4873 98.5766 39.6296 97.0139 39.7109V40.2394C97.8971 40.2394 98.1178 40.6053 98.1178 41.3777V52.218C98.1178 53.1531 97.8369 53.4173 97.0168 53.4173V53.9458H103.417V53.4173C102.671 53.4173 102.313 53.1328 102.313 52.218V49.4942L104.36 49.5348C104.848 51.1158 105.587 52.6057 106.548 53.9458H111.866ZM107.591 44.6969C107.591 46.1808 106.267 46.6687 104.079 46.6687C103.49 46.6805 102.9 46.6611 102.313 46.6106V42.8471C102.774 42.8268 103.437 42.789 104.019 42.789C106.387 42.7861 107.591 43.1724 107.591 44.6969ZM129.388 53.9458V53.4173C128.826 53.4173 128.585 53.2141 128.241 52.401L123.889 41.5868C123.776 41.3355 123.701 41.0682 123.668 40.7941C123.662 40.7169 123.674 40.6394 123.701 40.5673C123.729 40.4953 123.773 40.4305 123.829 40.3777C123.885 40.325 123.951 40.2857 124.024 40.2628C124.097 40.2398 124.175 40.2338 124.25 40.2452V39.7167H117.627V40.2452C117.7 40.2345 117.775 40.2414 117.846 40.2652C117.917 40.289 117.981 40.3291 118.033 40.3824C118.086 40.4356 118.125 40.5006 118.149 40.572C118.172 40.6435 118.179 40.7195 118.169 40.7941C118.133 41.0637 118.051 41.325 117.928 41.5665L113.532 52.3806C113.211 53.1734 113.01 53.4173 112.348 53.4173V53.9458H118.45V53.4173C117.968 53.4173 117.704 53.3157 117.704 52.9701C117.716 52.7705 117.75 52.5728 117.805 52.3806L117.885 52.1164C118.871 52.3635 119.88 52.4999 120.895 52.5229C121.871 52.5017 122.841 52.3653 123.786 52.1164L123.886 52.3197C123.975 52.4961 124.023 52.6907 124.026 52.8888C124.026 53.2373 123.725 53.4173 123.184 53.4173V53.9458H129.388ZM122.624 49.1689C121.997 49.412 121.329 49.5303 120.657 49.5174C119.993 49.5313 119.332 49.421 118.708 49.1922L120.554 43.7648H120.594L122.624 49.1689ZM144 40.2452V39.7167H137.296V40.2452C137.878 40.2452 138.119 40.4282 138.119 40.7737C138.105 41.0384 138.014 41.293 137.858 41.5055L135.129 46.4654H135.088L132.258 41.4445C132.144 41.2678 132.076 41.0653 132.058 40.855C132.058 40.4485 132.339 40.2452 132.881 40.2452V39.7167H125.735V40.2452C126.317 40.2452 126.619 40.5095 127.14 41.2819L132.76 49.7381V52.218C132.76 53.0921 132.479 53.4173 131.636 53.4173V53.9458H138.039V53.4173C137.196 53.4173 136.935 53.0718 136.935 52.218V49.7787L142.535 41.2209C142.666 40.9368 142.872 40.6952 143.131 40.5229C143.39 40.3506 143.69 40.2545 144 40.2452Z" fill="white"/>
</g>
<defs>
<clipPath id="clip0_401_1081">
<rect width="144" height="83" fill="white"/>
</clipPath>
</defs>
</svg>
